{
.appVersion = "1230";
DisplayStrings = (
rRA
);
copyright = "Copyright © 2012 Natanael Gama (www.ndiscovered.com), with Reserved Font Name “Cinzel Decorative”";
customParameters = (
{
name = openTypeNameLicense;

glyphs = (
{
glyphname = A;
lastChange = "2012-05-04 15:17:19 +0000";
layers = (
{
anchors = (
{
name = ogonek;
position = "{570.72, 10}";
},
{
name = top;
position = "{366.664, 774}";
}
);
guideLines = (
{
position = "{744.412, -14}";
},
{
position = "{734.412, 714}";
showMeasurement = 1;
}
);
hints = (
{
horizontal = 1;
place = "{700, 14}";
type = Stem;
},
{
horizontal = 1;
place = "{-14, 14}";
type = Stem;
}
);
layerId = "A24B85EF-CA04-493E-A47C-A7B61068A6D7";
paths = (
{
closed = 1;
nodes = (
"86.66 73.013 LINE",
"66.448 28.464 OFFCURVE",
"29.438 10 OFFCURVE",
"-1 10 CURVE SMOOTH",
"-1 10 OFFCURVE",
"-10 10 OFFCURVE",
"-10 10 CURVE",
"-10 0 LINE",
"191.278 0 LINE",
"191.278 9.908 LINE",
"182.486 9.908 LINE SMOOTH",
"156.669 9.908 OFFCURVE",
"129.884 32.663 OFFCURVE",
"144.486 72.681 CURVE"
);
},
{
closed = 1;
nodes = (
"339.969 682.013 LINE",
"57.19 3.095 LINE",
"117.233 3.095 LINE",
"371.05 655.019 LINE"
);
},
{
closed = 1;
nodes = (
"187.293 281 LINE",
"187.293 251 LINE",
"519.513 251 LINE",
"519.513 281 LINE"
);
},
{
closed = 1;
nodes = (
"121.116 723.731 LINE",
"295.958 786.991 OFFCURVE",
"356.968 638.08 OFFCURVE",
"398.898 514.257 CURVE SMOOTH",
"526.795 136.563 LINE SMOOTH",
"628.301 -163 OFFCURVE",
"787.584 -259 OFFCURVE",
"945.159 -201 CURVE",
"944.334 -191 LINE",
"762.577 -230 OFFCURVE",
"650.906 -5 OFFCURVE",
"594.487 155.212 CURVE SMOOTH",
"472.472 500.821 LINE SMOOTH",
"422.78 641.574 OFFCURVE",
"352.599 833.043 OFFCURVE",
"118.292 733.835 CURVE"
);
}
);
width = 712;
},
{
anchors = (
{
name = ogonek;
position = "{547, 10}";
},
{
name = top;
position = "{328.812, 784}";
}
);
layerId = "29CFC173-9C98-4BE1-970A-002FF3BCF672";
paths = (
{
closed = 1;
nodes = (
"56.7 73.013 LINE",
"35.488 28.464 OFFCURVE",
"-1 10 OFFCURVE",
"-31 10 CURVE SMOOTH",
"-31 10 OFFCURVE",
"-40 10 OFFCURVE",
"-40 10 CURVE",
"-40 0 LINE",
"183.279 0 LINE",
"183.279 9.908 LINE",
"174.487 9.908 LINE SMOOTH",
"148.67 9.908 OFFCURVE",
"118.49 32.664 OFFCURVE",
"136.092 72.681 CURVE"
);
},
{
closed = 1;
nodes = (
"285.361 574.867 LINE",
"24.19 3.095 LINE",
"105.233 3.095 LINE",
"351.3 567.543 LINE"
);
},
{
closed = 1;
nodes = (
"150.293 216 LINE",
"150.293 166 LINE",
"432.513 166 LINE",
"432.513 216 LINE"
);
},
{
closed = 1;
nodes = (
"38.226 703.731 LINE",
"201.955 763.731 OFFCURVE",
"255.391 497.003 OFFCURVE",
"306.956 370.504 CURVE SMOOTH",
"417.399 99.563 LINE SMOOTH",
"537.606 -195 OFFCURVE",
"792.285 -279 OFFCURVE",
"977.975 -171 CURVE",
"976.102 -161 LINE",
"794.24 -210 OFFCURVE",
"693.68 -6 OFFCURVE",
"623.138 155.212 CURVE SMOOTH",
"462.755 521.535 LINE SMOOTH",
"372.17 728.435 OFFCURVE",
"224.45 826.42 OFFCURVE",
"36.344 713.835 CURVE"
);
}
);
width = 702;
},
{
anchors = (
{
name = ogonek;
position = "{524, 10}";
},
{
name = top;
position = "{349.521, 700}";
}
);
associatedMasterId = "29CFC173-9C98-4BE1-970A-002FF3BCF672";
layerId = "59CEB433-257F-415D-9120-586C401C6E37";
name = "Bold Mar 19 12, 21:22";
paths = (
{
closed = 1;
nodes = (
"285.51 500 LINE",
"478.573 6.095 LINE",
"673.633 6.095 LINE",
"353.414 714 LINE SMOOTH"
);
},
{
closed = 1;
nodes = (
"71.828 73.013 LINE",
"49.616 28.464 OFFCURVE",
"14.438 10 OFFCURVE",
"-16 10 CURVE SMOOTH",
"-16 10 OFFCURVE",
"-25 10 OFFCURVE",
"-25 10 CURVE",
"-25 0 LINE",
"197.67 0 LINE",
"197.67 9.908 LINE",
"188.878 9.908 LINE SMOOTH",
"163.061 9.908 OFFCURVE",
"135.881 32.664 OFFCURVE",
"150.483 72.681 CURVE"
);
},
{
closed = 1;
nodes = (
"344.408 714 LINE",
"340.408 680.283 OFFCURVE",
"299.112 589.922 OFFCURVE",
"287.361 564.867 CURVE",
"41.19 3.095 LINE",
"122.233 3.095 LINE",
"343.3 547.543 LINE",
"353.414 714 LINE"
);
},
{
closed = 1;
nodes = (
"171.293 234 LINE",
"171.293 184 LINE",
"483.513 184 LINE",
"483.513 234 LINE"
);
},
{
closed = 1;
nodes = (
"467.164 32.664 OFFCURVE",
"440.233 9.911 OFFCURVE",
"414.417 9.911 CURVE SMOOTH",
"405.625 9.911 LINE",
"405.625 0 LINE",
"739.59 0 LINE",
"739.59 10 LINE",
"739.59 10 OFFCURVE",
"731.227 10 OFFCURVE",
"731.227 10 CURVE SMOOTH",
"700.58 10 OFFCURVE",
"665.57 28.464 OFFCURVE",
"643.358 73.013 CURVE",
"452.562 72.681 LINE"
);
}
);
width = 713;
},
{
anchors = (
{
name = ogonek;
position = "{535.72, 10}";
},
{
name = top;
position = "{356.664, 764}";
}
);
associatedMasterId = "A24B85EF-CA04-493E-A47C-A7B61068A6D7";
guideLines = (
{
position = "{744.412, -14}";
},
{
position = "{734.412, 714}";
showMeasurement = 1;
}
);
hints = (
{
horizontal = 1;
place = "{700, 14}";
type = Stem;
},
{
horizontal = 1;
place = "{-14, 14}";
type = Stem;
}
);
layerId = "8B67F133-351C-499E-B917-01DF93202C09";
name = "Regular Apr 16 12, 11:57";
paths = (
{
closed = 1;
nodes = (
"339.4 619 LINE",
"569.573 6.095 LINE",
"654.633 6.095 LINE",
"359.414 714 LINE"
);
},
{
closed = 1;
nodes = (
"86.66 73.013 LINE",
"66.448 28.464 OFFCURVE",
"29.438 10 OFFCURVE",
"-1 10 CURVE SMOOTH",
"-1 10 OFFCURVE",
"-10 10 OFFCURVE",
"-10 10 CURVE",
"-10 0 LINE",
"191.278 0 LINE",
"191.278 9.908 LINE",
"182.486 9.908 LINE SMOOTH",
"156.669 9.908 OFFCURVE",
"129.884 32.663 OFFCURVE",
"144.486 72.681 CURVE"
);
},
{
closed = 1;
nodes = (
"350.408 714 LINE",
"350.408 692.013 OFFCURVE",
"313.382 611 OFFCURVE",
"313.382 611 CURVE",
"57.19 3.095 LINE",
"117.233 3.095 LINE",
"368.42 644 LINE",
"359.414 714 LINE"
);
},
{
closed = 1;
nodes = (
"187.293 273 LINE",
"187.293 243 LINE",
"499.513 243 LINE",
"499.513 273 LINE"
);
},
{
closed = 1;
nodes = (
"559.169 32.664 OFFCURVE",
"532.384 9.911 OFFCURVE",
"506.568 9.911 CURVE SMOOTH",
"497.776 9.911 LINE",
"497.776 0 LINE",
"722.956 0 LINE",
"722.956 10 LINE",
"722.956 10 OFFCURVE",
"714.593 10 OFFCURVE",
"714.593 10 CURVE SMOOTH",
"683.946 10 OFFCURVE",
"646.936 28.464 OFFCURVE",
"626.724 73.013 CURVE",
"544.567 72.681 LINE"
);
}
);
width = 712;
}
);
leftKerningGroup = a;
rightKerningGroup = A;
unicode = 0041;
},
{
glyphname = Aogonek;
lastChange = "2012-05-04 11:11:47 +0000";
layers = (
{
layerId = "A24B85EF-CA04-493E-A47C-A7B61068A6D7";
paths = (
{
closed = 1;
nodes = (
"86.66 73.013 LINE",
"66.448 28.464 OFFCURVE",
"29.438 10 OFFCURVE",
"-1 10 CURVE SMOOTH",
"-1 10 OFFCURVE",
"-10 10 OFFCURVE",
"-10 10 CURVE",
"-10 0 LINE",
"191.278 0 LINE",
"191.278 9.908 LINE",
"182.486 9.908 LINE SMOOTH",
"156.669 9.908 OFFCURVE",
"129.884 32.663 OFFCURVE",
"144.486 72.681 CURVE"
);
},
{
closed = 1;
nodes = (
"339.969 682.013 LINE",
"57.19 3.095 LINE",
"117.233 3.095 LINE",
"371.05 655.019 LINE"
);
},
{
closed = 1;
nodes = (
"187.293 281 LINE",
"187.293 251 LINE",
"519.513 251 LINE",
"519.513 281 LINE"
);
},
{
closed = 1;
nodes = (
"106.076 709.652 LINE",
"280 739 OFFCURVE",
"348.124 623.425 OFFCURVE",
"391 510 CURVE SMOOTH",
"532 137 LINE SMOOTH",
"643.907 -159 OFFCURVE",
"774 -180 OFFCURVE",
"930.875 -157 CURVE",
"929.701 -147 LINE",
"748 -152 OFFCURVE",
"662.602 0.838 OFFCURVE",
"599 158 CURVE SMOOTH",
"461 499 LINE SMOOTH",
"408.541 628.626 OFFCURVE",
"335 787 OFFCURVE",
"102.902 719.652 CURVE"
);
},
{
closed = 1;
nodes = (
"574.938 15.849 OFFCURVE",
"513.576 -4 OFFCURVE",
"496.024 -54 CURVE SMOOTH",
"457.594 -163 OFFCURVE",
"590.443 -215 OFFCURVE",
"646.888 -148 CURVE",
"643.302 -140 LINE",
"579.694 -172 OFFCURVE",
"525.437 -114 OFFCURVE",
"543.053 -59 CURVE SMOOTH",
"554.811 -23 OFFCURVE",
"583.211 -5 OFFCURVE",
"639.911 -11 CURVE",
"631.54 -5 LINE"
);
}
);
width = 727;
},
{
layerId = "29CFC173-9C98-4BE1-970A-002FF3BCF672";
paths = (
{
closed = 1;
nodes = (
"56.7 73.013 LINE",
"35.488 28.464 OFFCURVE",
"-1 10 OFFCURVE",
"-31 10 CURVE SMOOTH",
"-31 10 OFFCURVE",
"-40 10 OFFCURVE",
"-40 10 CURVE",
"-40 0 LINE",
"183.279 0 LINE",
"183.279 9.908 LINE",
"174.487 9.908 LINE SMOOTH",
"148.67 9.908 OFFCURVE",
"118.49 32.664 OFFCURVE",
"136.092 72.681 CURVE"
);
},
{
closed = 1;
nodes = (
"285.361 574.867 LINE",
"24.19 3.095 LINE",
"105.233 3.095 LINE",
"351.3 567.543 LINE"
);
},
{
closed = 1;
nodes = (
"150.293 216 LINE",
"150.293 166 LINE",
"432.513 166 LINE",
"432.513 216 LINE"
);
},
{
closed = 1;
nodes = (
"18.226 683.731 LINE",
"181.955 743.731 OFFCURVE",
"259.532 486.844 OFFCURVE",
"306.956 370.504 CURVE SMOOTH",
"417.399 99.563 LINE SMOOTH",
"537.606 -195 OFFCURVE",
"792.285 -279 OFFCURVE",
"977.975 -171 CURVE",
"976.102 -161 LINE",
"794.24 -210 OFFCURVE",
"694.364 -6 OFFCURVE",
"623.138 155.212 CURVE SMOOTH",
"469.755 501.535 LINE SMOOTH",
"359.744 749.927 OFFCURVE",
"204.45 806.42 OFFCURVE",
"16.344 693.835 CURVE"
);
},
{
closed = 1;
nodes = (
"416.071 13.903 OFFCURVE",
"341.771 -8 OFFCURVE",
"331.071 -84 CURVE SMOOTH",
"311.432 -223 OFFCURVE",
"526.071 -257 OFFCURVE",
"535.117 -121 CURVE",
"529.117 -115 LINE",
"479.071 -155 OFFCURVE",
"423.071 -134 OFFCURVE",
"417.071 -73 CURVE SMOOTH",
"414.071 -39 OFFCURVE",
"427.071 -7 OFFCURVE",
"481.652 5.396 CURVE",
"471.652 8.396 LINE"
);
}
);
width = 682;
}
);
leftKerningGroup = A;
leftMetricsKey = A;
rightKerningGroup = A;
rightMetricsKey = A;
unicode = 0104;
},
{
glyphname = AE;
lastChange = "2012-05-04 12:06:31 +0000";
layers = (
{
anchors = (
{
name = top;
position = "{552, 700}";
}
);
layerId = "A24B85EF-CA04-493E-A47C-A7B61068A6D7";
paths = (
{
closed = 1;
nodes = (
"377.553 700 LINE",
"377.553 690 LINE",
"381.553 690 LINE",
"400.307 690 OFFCURVE",
"411.17 672.717 OFFCURVE",
"403.278 655.434 CURVE",
"36.51 78.594 LINE SMOOTH",
"-33 -31 OFFCURVE",
"-104 -77 OFFCURVE",
"-199 -81 CURVE",
"-200 -91 LINE",
"-117 -111 OFFCURVE",
"12.211 -80 OFFCURVE",
"90.216 54.501 CURVE SMOOTH",
"427.757 635.308 LINE SMOOTH",
"460.757 669.409 LINE",
"650.498 669.409 LINE",
"650.498 700 LINE"
);
},
{
closed = 1;
nodes = (
"405.555 653.94 LINE",
"405.555 0 LINE",
"470.588 0 LINE",
"470.588 700 LINE"
);
},
{
closed = 1;
nodes = (
"237.949 350.218 LINE",
"232.949 320.218 LINE",
"722.946 320.218 LINE",
"722.946 350.218 LINE"
);
},
{
closed = 1;
nodes = (
"405.55 58.357 LINE",
"405.046 31.561 OFFCURVE",
"383.202 9.984 OFFCURVE",
"356.278 9.984 CURVE SMOOTH",
"356.161 9.984 OFFCURVE",
"346.668 10 OFFCURVE",
"346.547 10 CURVE",
"346.423 0 LINE",
"407.788 0 LINE",
"407.788 58.357 LINE"
);
},
{
closed = 1;
nodes = (
"467.769 30.59 LINE",
"467.769 0 LINE",
"810.544 0 LINE",
"810.544 30.59 LINE"
);
},
{
closed = 1;
nodes = (
"857.685 138.8 LINE",
"831.347 75.876 OFFCURVE",
"782.841 30.576 OFFCURVE",
"702.706 30.576 CURVE",
"672.703 0 LINE",
"811.993 0 LINE",
"867.685 138.8 LINE"
);
},
{
closed = 1;
nodes = (
"664.59 322.487 LINE",
"664.59 320.249 LINE",
"691.385 319.745 OFFCURVE",
"712.961 297.901 OFFCURVE",
"712.961 270.977 CURVE SMOOTH",
"712.946 256.243 LINE",
"722.946 256.119 LINE",
"722.946 322.487 LINE"
);
},
{
closed = 1;
nodes = (
"712.946 414.25 LINE",
"712.963 399.516 LINE SMOOTH",
"712.963 372.593 OFFCURVE",
"691.385 350.753 OFFCURVE",
"664.59 350.248 CURVE",
"664.59 348.012 LINE",
"722.946 348.012 LINE",
"722.946 414.375 LINE"
);
},
{
closed = 1;
nodes = (
"592.143 671.625 LINE",
"592.143 669.387 LINE",
"618.94 668.883 OFFCURVE",
"640.514 647.038 OFFCURVE",
"640.514 620.115 CURVE SMOOTH",
"640.498 605.384 LINE",
"650.498 605.26 LINE",
"650.498 671.625 LINE"
);
},
{
closed = 1;
nodes = (
"631.549 710.201 OFFCURVE",
"571.926 699.987 OFFCURVE",
"528.567 699.987 CURVE",
"650.498 688.909 LINE",
"650.498 718.187 LINE"
);
}
);
width = 872;
},
{
anchors = (
{
name = top;
position = "{170, 700}";
}
);
layerId = "29CFC173-9C98-4BE1-970A-002FF3BCF672";
paths = (
{
closed = 1;
nodes = (
"305.436 699.442 LINE",
"305.436 687.948 LINE",
"310.034 687.948 LINE",
"331.591 687.948 OFFCURVE",
"344.078 668.081 OFFCURVE",
"335.006 648.215 CURVE",
"-53 78.594 LINE SMOOTH",
"-159 -77 OFFCURVE",
"-244 -87 OFFCURVE",
"-339 -81 CURVE",
"-340 -91 LINE",
"-217 -141 OFFCURVE",
"-72 -129 OFFCURVE",
"40.216 54.501 CURVE SMOOTH",
"357.757 575.308 LINE SMOOTH",
"460.757 649.478 LINE",
"713.426 649.478 LINE",
"713.426 700 LINE"
);
},
{
closed = 1;
nodes = (
"337.623 646.498 LINE",
"335.555 0 LINE",
"540.588 0 LINE",
"540.588 700 LINE"
);
},
{
closed = 1;
nodes = (
"167.949 367.218 LINE",
"162.949 317.218 LINE",
"797.604 317.218 LINE",
"797.604 367.218 LINE"
);
},
{
closed = 1;
nodes = (
"335.55 58.357 LINE",
"335.046 31.561 OFFCURVE",
"313.202 9.984 OFFCURVE",
"286.278 9.984 CURVE SMOOTH",
"286.161 9.984 OFFCURVE",
"276.668 10 OFFCURVE",
"276.547 10 CURVE",
"276.423 0 LINE",
"337.788 0 LINE",
"337.788 58.357 LINE"
);
},
{
closed = 1;
nodes = (
"537.769 50.59 LINE",
"537.769 0 LINE",
"880.54 0 LINE",
"880.54 50.59 LINE"
);
},
{
closed = 1;
nodes = (
"931.42 231.543 LINE",
"900.33 117.359 OFFCURVE",
"819.855 50.592 OFFCURVE",
"723.892 50.592 CURVE",
"687.588 0 LINE",
"903.13 0 LINE",
"941.42 231.543 LINE"
);
},
{
closed = 1;
nodes = (
"679.476 319.644 LINE",
"679.476 317.406 LINE",
"742.95 316.212 OFFCURVE",
"788.059 270.942 OFFCURVE",
"787.847 208.134 CURVE SMOOTH",
"787.831 203.4 LINE",
"797.604 203.276 LINE",
"797.604 319.644 LINE"
);
},
{
closed = 1;
nodes = (
"787.831 481.11 LINE",
"787.848 476.376 LINE SMOOTH",
"788.073 413.574 OFFCURVE",
"743.023 368.306 OFFCURVE",
"679.476 367.108 CURVE",
"679.476 364.872 LINE",
"797.604 364.872 LINE",
"797.604 481.235 LINE"
);
},
{
closed = 1;
nodes = (
"574.808 652.218 LINE",
"574.808 649.51 LINE",
"655.792 647.987 OFFCURVE",
"703.531 599.769 OFFCURVE",
"703.337 519.891 CURVE SMOOTH",
"703.318 512.067 LINE",
"713.426 511.917 LINE",
"713.426 652.218 LINE"
);
},
{
closed = 1;
nodes = (
"694.477 710.201 OFFCURVE",
"634.812 699.987 OFFCURVE",
"591.452 699.987 CURVE",
"713.426 688.909 LINE",
"713.426 718.187 LINE"
);
}
);
width = 941;
}
);
leftKerningGroup = A;
rightKerningGroup = E;
rightMetricsKey = E;
unicode = 00C6;
},
{
glyphname = B;
lastChange = "2012-05-04 14:56:40 +0000";
layers = (
{
layerId = "A24B85EF-CA04-493E-A47C-A7B61068A6D7";
paths = (
{
closed = 1;
nodes = (
"149.944 700 OFFCURVE",
"159.996 669.483 OFFCURVE",
"159.996 667.949 CURVE",
"212.509 667.818 LINE",
"305.333 668 OFFCURVE",
"358.333 629 OFFCURVE",
"358.333 536 CURVE SMOOTH",
"358.333 434 OFFCURVE",
"293.333 399 OFFCURVE",
"233.349 399.222 CURVE",
"233.577 389.81 LINE",
"330.333 390 OFFCURVE",
"479.333 362 OFFCURVE",
"479.333 208 CURVE SMOOTH",
"479.333 102 OFFCURVE",
"408.333 22 OFFCURVE",
"274.518 22.47 CURVE SMOOTH",
"138.68 22.47 OFFCURVE",
"34.617 61.851 OFFCURVE",
"11.148 238.469 CURVE",
"0.148 236.469 LINE",
"-5 68 OFFCURVE",
"108.333 -14 OFFCURVE",
"271.333 -14 CURVE SMOOTH",
"440.333 -14 OFFCURVE",
"554.333 73 OFFCURVE",
"554.333 203 CURVE SMOOTH",
"554.333 306 OFFCURVE",
"488.333 388 OFFCURVE",
"353.637 408.237 CURVE",
"401.333 426 OFFCURVE",
"433.333 475 OFFCURVE",
"433.333 538 CURVE SMOOTH",
"433.333 640 OFFCURVE",
"349.333 700 OFFCURVE",
"226.128 700 CURVE SMOOTH",
"149.944 700 LINE SMOOTH"
);
},
{
closed = 1;
nodes = (
"134.53 700 LINE",
"134.53 25 LINE",
"199.647 25 LINE",
"199.647 700 LINE"
);
},
{
closed = 1;
nodes = (
"137.459 700.06 LINE",
"57.685 700.06 LINE",
"57.846 690.06 LINE",
"60.333 690 OFFCURVE",
"68.333 690 OFFCURVE",
"70.333 690 CURVE SMOOTH",
"103.333 690 OFFCURVE",
"133.333 665 OFFCURVE",
"134.55 627.195 CURVE",
"137.459 627.195 LINE"
);
}
);
width = 594;
},
{
layerId = "29CFC173-9C98-4BE1-970A-002FF3BCF672";
paths = (
{
closed = 1;
nodes = (
"181.136 700 OFFCURVE",
"191.188 651.642 OFFCURVE",
"191.188 650.119 CURVE",
"303.701 649.989 LINE",
"402.873 652 OFFCURVE",
"430.873 607 OFFCURVE",
"434.873 516 CURVE SMOOTH",
"435.873 490 OFFCURVE",
"438.873 381 OFFCURVE",
"364.541 381.304 CURVE",
"364.769 371.96 LINE",
"438.873 372 OFFCURVE",
"515.873 332 OFFCURVE",
"520.873 222 CURVE SMOOTH",
"525.873 106 OFFCURVE",
"447.873 38 OFFCURVE",
"326.873 38 CURVE SMOOTH",
"194.873 38 OFFCURVE",
"2.873 118 OFFCURVE",
"2.873 381.228 CURVE",
"-7 380.245 LINE",
"-37 62 OFFCURVE",
"173.873 -3 OFFCURVE",
"342.873 -14 CURVE SMOOTH",
"565.873 -29 OFFCURVE",
"758.873 46 OFFCURVE",
"755.873 209 CURVE SMOOTH",
"753.873 323 OFFCURVE",
"656.873 387 OFFCURVE",
"564.074 382.846 CURVE",
"610.873 401 OFFCURVE",
"650.873 458 OFFCURVE",
"649.873 524 CURVE SMOOTH",
"647.873 645 OFFCURVE",
"508.873 700 OFFCURVE",
"357.32 700 CURVE SMOOTH",
"181.136 700 LINE SMOOTH"
);
},
{
closed = 1;
nodes = (
"125.722 700 LINE",
"125.722 54.904 LINE",
"330.839 4.739 LINE",
"330.839 700 LINE"
);
},
{
closed = 1;
nodes = (
"128.651 700.06 LINE",
"48.876 700.06 LINE",
"49.038 690.131 LINE",
"50.873 690.072 OFFCURVE",
"59.873 690.072 OFFCURVE",
"61.873 690.072 CURVE SMOOTH",
"95.873 690.072 OFFCURVE",
"124.873 663.244 OFFCURVE",
"125.742 627.715 CURVE",
"128.651 627.715 LINE"
);
}
);
width = 755;
},
{
associatedMasterId = "29CFC173-9C98-4BE1-970A-002FF3BCF672";
layerId = "1E958117-1102-42AD-91AA-E507AA1BD0B4";
name = "Bold Mar 19 12, 21:20";
paths = (
{
closed = 1;
nodes = (
"142.263 700 OFFCURVE",
"152.315 649.483 OFFCURVE",
"152.315 647.949 CURVE",
"324.828 647.818 LINE",
"389.425 647.818 OFFCURVE",
"421.036 604.308 OFFCURVE",
"421.036 515.397 CURVE SMOOTH",
"421.036 423.965 OFFCURVE",
"389.701 379.222 OFFCURVE",
"325.668 379.222 CURVE",
"325.896 369.81 LINE",
"410.27 369.81 OFFCURVE",
"451.559 315.953 OFFCURVE",
"451.559 205.897 CURVE SMOOTH",
"451.559 99.163 OFFCURVE",
"405.35 56.47 OFFCURVE",
"324.828 56.47 CURVE",
"283.646 56.47 LINE",
"283.646 56.47 OFFCURVE",
"282.788 0 OFFCURVE",
"282.788 0 CURVE",
"373.646 0 LINE SMOOTH",
"556.888 0 OFFCURVE",
"646.559 67.652 OFFCURVE",
"646.559 205.897 CURVE SMOOTH",
"646.559 304.989 OFFCURVE",
"575.568 376.471 OFFCURVE",
"475.201 380.853 CURVE",
"545.976 383.548 OFFCURVE",
"596.036 433.431 OFFCURVE",
"596.036 525.397 CURVE SMOOTH",
"596.036 642.63 OFFCURVE",
"517.971 700 OFFCURVE",
"358.447 700 CURVE SMOOTH",
"142.263 700 LINE SMOOTH"
);
},
{
closed = 1;
nodes = (
"126.849 700 LINE",
"126.849 0 LINE",
"291.966 0 LINE",
"291.966 700 LINE"
);
},
{
closed = 1;
nodes = (
"126.865 72.864 LINE",
"126.21 38.029 OFFCURVE",
"97.813 9.979 OFFCURVE",
"62.812 9.979 CURVE SMOOTH",
"62.66 9.979 OFFCURVE",
"50.319 10 OFFCURVE",
"50.162 10 CURVE",
"50 0 LINE",
"129.775 0 LINE",
"129.775 72.864 LINE"
);
},
{
closed = 1;
nodes = (
"129.778 700.06 LINE",
"50.003 700.06 LINE",
"50.165 690.06 LINE",
"50.322 690.06 OFFCURVE",
"62.663 690.08 OFFCURVE",
"62.815 690.08 CURVE SMOOTH",
"97.816 690.08 OFFCURVE",
"126.213 662.03 OFFCURVE",
"126.869 627.195 CURVE",
"129.778 627.195 LINE"
);
}
);
width = 656;
},
{
associatedMasterId = "A24B85EF-CA04-493E-A47C-A7B61068A6D7";
layerId = "66C05218-5C09-4A22-A831-42D18F494A24";
name = "Regular Apr 16 12, 15:20";
paths = (
{
closed = 1;
nodes = (
"152.611 700 OFFCURVE",
"162.663 669.483 OFFCURVE",
"162.663 667.949 CURVE",
"255.176 667.818 LINE",
"350 668 OFFCURVE",
"401 616 OFFCURVE",
"401.384 525.604 CURVE SMOOTH",
"401 397 OFFCURVE",
"297 379 OFFCURVE",
"236.016 379.222 CURVE",
"236.244 369.81 LINE",
"333 370 OFFCURVE",
"462 345 OFFCURVE",
"461.907 195.122 CURVE SMOOTH",
"462 94 OFFCURVE",
"403 36 OFFCURVE",
"300.375 36.469 CURVE",
"193.994 36.469 LINE",
"193.994 36.469 OFFCURVE",
"193.136 0 OFFCURVE",
"193.136 0 CURVE",
"303.994 0 LINE SMOOTH",
"453 0 OFFCURVE",
"537 75 OFFCURVE",
"536.907 187.941 CURVE SMOOTH",
"537 287 OFFCURVE",
"472 365 OFFCURVE",
"365.549 380.853 CURVE",
"422 397 OFFCURVE",
"476 448 OFFCURVE",
"476.384 532.796 CURVE SMOOTH",
"476 633 OFFCURVE",
"399 700 OFFCURVE",
"258.795 700 CURVE SMOOTH",
"152.611 700 LINE SMOOTH"
);
},
{
closed = 1;
nodes = (
"137.197 700 LINE",
"137.197 0 LINE",
"202.314 0 LINE",
"202.314 700 LINE"
);
},
{
closed = 1;
nodes = (
"137.213 72.864 LINE",
"136.558 38.029 OFFCURVE",
"108.161 9.979 OFFCURVE",
"73.16 9.979 CURVE SMOOTH",
"71 10 OFFCURVE",
"63 10 OFFCURVE",
"60.51 10 CURVE",
"60.348 0 LINE",
"140.123 0 LINE",
"140.123 72.864 LINE"
);
},
{
closed = 1;
nodes = (
"140.126 700.06 LINE",
"60.351 700.06 LINE",
"60.513 690.06 LINE",
"63 690 OFFCURVE",
"71 690 OFFCURVE",
"73 690 CURVE SMOOTH",
"108.164 690.08 OFFCURVE",
"136.561 662.03 OFFCURVE",
"137.217 627.195 CURVE",
"140.126 627.195 LINE"
);
}
);
width = 586;
}
);
leftKerningGroup = B;
rightKerningGroup = B;
unicode = 0042;
},
{
glyphname = C;
lastChange = "2012-05-05 22:29:51 +0000";
layers = (
{
anchors = (
{
name = bottom;
position = "{467.32, -9.388}";
},
{
name = top;
position = "{452, 764}";
}
);
layerId = "29CFC173-9C98-4BE1-970A-002FF3BCF672";
paths = (
{
closed = 1;
nodes = (
"807.006 401.85 LINE",
"815.793 162.752 OFFCURVE",
"682.274 35.929 OFFCURVE",
"498.128 35.929 CURVE",
"321 42 OFFCURVE",
"230 169 OFFCURVE",
"230 358 CURVE SMOOTH",
"230 546 OFFCURVE",
"320 664 OFFCURVE",
"483 664 CURVE SMOOTH",
"580 664 OFFCURVE",
"677 622 OFFCURVE",
"717.378 477.264 CURVE",
"725.701 477.232 LINE",
"735.525 668.468 LINE",
"680 692 OFFCURVE",
"591 714 OFFCURVE",
"478 714 CURVE SMOOTH",
"190 714 OFFCURVE",
"10 571 OFFCURVE",
"10 346 CURVE SMOOTH",
"10 133 OFFCURVE",
"171 -14 OFFCURVE",
"478.128 -14 CURVE",
"695.905 -14 OFFCURVE",
"852.99 134.237 OFFCURVE",
"815.328 401.886 CURVE"
);
}
);
width = 830;
},
{
anchors = (
{
name = bottom;
position = "{418.068, -9.388}";
},
{
name = top;
position = "{417.19, 764}";
}
);
associatedMasterId = "A24B85EF-CA04-493E-A47C-A7B61068A6D7";
layerId = "D775B6D0-E5C6-4DF0-9F6E-642E50D2FF77";
name = "Regular Apr 19 12, 18:20";
paths = (
{
closed = 1;
nodes = (
"547 -16 OFFCURVE",
"636 50 OFFCURVE",
"671.749 9.625 CURVE",
"681.749 9.625 LINE",
"681.749 199.625 LINE",
"671.749 199.589 LINE",
"639 63 OFFCURVE",
"537 9 OFFCURVE",
"400 16 CURVE SMOOTH",
"201 26 OFFCURVE",
"95 179 OFFCURVE",
"95 353 CURVE SMOOTH",
"95 519 OFFCURVE",
"193 684 OFFCURVE",
"422.685 684.074 CURVE SMOOTH",
"550 684 OFFCURVE",
"626 634 OFFCURVE",
"671.731 520.205 CURVE",
"681.731 520.17 LINE",
"681.731 690.17 LINE",
"671.731 690.17 LINE",
"636 650 OFFCURVE",
"551 714 OFFCURVE",
"406 714 CURVE SMOOTH",
"179 714 OFFCURVE",
"20 558 OFFCURVE",
"20 351 CURVE SMOOTH",
"20 148 OFFCURVE",
"174 -10 OFFCURVE",
"400 -14 CURVE SMOOTH"
);
}
);
width = 760;
},
{
anchors = (
{
name = bottom;
position = "{418.068, -9.388}";
},
{
name = top;
position = "{417.19, 764}";
}
);
associatedMasterId = "A24B85EF-CA04-493E-A47C-A7B61068A6D7";
layerId = "C98A9D8D-5634-4309-9A7A-F5EBDAE21363";
name = "Regular Apr 19 12, 18:20";
paths = (
{
closed = 1;
nodes = (
"547 -16 OFFCURVE",
"636 50 OFFCURVE",
"671.749 9.625 CURVE",
"681.749 9.625 LINE",
"681.749 199.625 LINE",
"671.749 199.589 LINE",
"639 63 OFFCURVE",
"537 9 OFFCURVE",
"400 16 CURVE SMOOTH",
"201 26 OFFCURVE",
"95 179 OFFCURVE",
"95 353 CURVE SMOOTH",
"95 519 OFFCURVE",
"193 684 OFFCURVE",
"422.685 684.074 CURVE SMOOTH",
"550 684 OFFCURVE",
"626 634 OFFCURVE",
"671.731 520.205 CURVE",
"681.731 520.17 LINE",
"681.731 690.17 LINE",
"671.731 690.17 LINE",
"636 650 OFFCURVE",
"551 714 OFFCURVE",
"406 714 CURVE SMOOTH",
"179 714 OFFCURVE",
"20 558 OFFCURVE",
"20 351 CURVE SMOOTH",
"20 148 OFFCURVE",
"174 -10 OFFCURVE",
"400 -14 CURVE SMOOTH"
);
}
);
width = 760;
},
{
anchors = (
{
name = bottom;
position = "{443.068, -9.388}";
},
{
name = top;
position = "{442.19, 764}";
}
);
layerId = "A24B85EF-CA04-493E-A47C-A7B61068A6D7";
paths = (
{
closed = 1;
nodes = (
"786.167 374.85 LINE",
"786 149 OFFCURVE",
"646 16 OFFCURVE",
"448 16 CURVE SMOOTH",
"251 16 OFFCURVE",
"120 164 OFFCURVE",
"120 353 CURVE SMOOTH",
"120 542 OFFCURVE",
"252 684 OFFCURVE",
"430 684 CURVE SMOOTH",
"547 684 OFFCURVE",
"666 622 OFFCURVE",
"696.378 505.264 CURVE",
"704.701 505.232 LINE",
"684.525 646.468 LINE",
"623 687 OFFCURVE",
"520 714 OFFCURVE",
"429 714 CURVE SMOOTH",
"209 714 OFFCURVE",
"45 558 OFFCURVE",
"45 351 CURVE SMOOTH",
"45 144 OFFCURVE",
"210 -14 OFFCURVE",
"443 -14 CURVE SMOOTH",
"663 -14 OFFCURVE",
"805 116 OFFCURVE",
"796.167 374.886 CURVE"
);
}
);
width = 821;
}
);
leftKerningGroup = O;
rightKerningGroup = C;
unicode = 0043;
},
{
glyphname = D;
lastChange = "2012-05-10 12:20:39 +0000";
layers = (
{
anchors = (
{
name = center;
position = "{436.243, 350}";
},
{
name = top;
position = "{420.243, 764}";
}
);
layerId = "A24B85EF-CA04-493E-A47C-A7B61068A6D7";
paths = (
{
closed = 1;
nodes = (
"157.862 699.975 LINE",
"157.862 0.057 LINE",
"222.983 0.057 LINE",
"222.983 699.975 LINE"
);
},
{
closed = 1;
nodes = (
"161.126 72.921 LINE",
"158.217 72.921 LINE",
"157.561 38.087 OFFCURVE",
"129.164 10.037 OFFCURVE",
"94.163 10.037 CURVE SMOOTH",
"94.011 10.037 OFFCURVE",
"81.67 10.057 OFFCURVE",
"81.513 10.057 CURVE",
"81.351 0.057 LINE",
"161.126 0.057 LINE"
);
},
{
closed = 1;
nodes = (
"633.129 0 OFFCURVE",
"778.678 139.879 OFFCURVE",
"778.678 350.054 CURVE SMOOTH",
"778.678 559.811 OFFCURVE",
"633.08 695.112 OFFCURVE",
"419.536 699.706 CURVE SMOOTH",
"331.459 701.601 OFFCURVE",
"257.026 703.773 OFFCURVE",
"194.213 702.682 CURVE SMOOTH",
"24.994 699.742 OFFCURVE",
"-60 673.117 OFFCURVE",
"-100 553.583 CURVE",
"-89 549.583 LINE",
"-53 616.789 OFFCURVE",
"-9 674.618 OFFCURVE",
"205.016 670.35 CURVE SMOOTH",
"230.092 669.85 OFFCURVE",
"419.536 669.323 OFFCURVE",
"419.536 669.323 CURVE SMOOTH",
"590.94 669.323 OFFCURVE",
"703.678 541.615 OFFCURVE",
"703.678 350.054 CURVE SMOOTH",
"703.678 157.913 OFFCURVE",
"589.94 29.819 OFFCURVE",
"419.536 29.819 CURVE",
"419.536 29.819 OFFCURVE",
"195.531 29.832 OFFCURVE",
"195.125 29.832 CURVE",
"195.125 0 LINE",
"419.536 0 LINE SMOOTH"
);
}
);
width = 838;
},
{
anchors = (
{
name = center;
position = "{326, 350}";
},
{
name = top;
position = "{457.238, 764}";
}
);
layerId = "29CFC173-9C98-4BE1-970A-002FF3BCF672";
paths = (
{
closed = 1;
nodes = (
"142.862 669.975 LINE",
"142.862 0.057 LINE",
"347.983 0.057 LINE",
"347.983 689.975 LINE"
);
},
{
closed = 1;
nodes = (
"145.775 72.864 LINE",
"142.865 72.864 LINE",
"142.21 38.029 OFFCURVE",
"113.813 9.979 OFFCURVE",
"78.811 9.979 CURVE SMOOTH",
"78.659 9.979 OFFCURVE",
"66.318 10 OFFCURVE",
"66.161 10 CURVE",
"66 0 LINE",
"145.775 0 LINE"
);
},
{
closed = 1;
nodes = (
"695 0 OFFCURVE",
"844 130 OFFCURVE",
"843.678 349.836 CURVE SMOOTH",
"844 570 OFFCURVE",
"695 700 OFFCURVE",
"444.536 699.975 CURVE",
"357.383 699.975 OFFCURVE",
"280.444 699.582 OFFCURVE",
"213.404 699.582 CURVE SMOOTH",
"51.066 699.582 OFFCURVE",
"-72 632.434 OFFCURVE",
"-100 483.931 CURVE",
"-90 479.931 LINE",
"-52 568.897 OFFCURVE",
"12 646.935 OFFCURVE",
"203.382 646.935 CURVE SMOOTH",
"318.112 646.935 OFFCURVE",
"423 650 OFFCURVE",
"424.536 649.944 CURVE SMOOTH",
"549 650 OFFCURVE",
"624 538 OFFCURVE",
"623.678 349.909 CURVE SMOOTH",
"624 161 OFFCURVE",
"549 50 OFFCURVE",
"424.536 50.44 CURVE",
"346.345 50.444 OFFCURVE",
"268.154 50.448 OFFCURVE",
"189.963 50.452 CURVE",
"191.499 0.057 LINE",
"444.536 0.057 LINE"
);
}
);
width = 878;
}
);
leftKerningGroup = D;
rightKerningGroup = o;
unicode = 0044;
},
{
glyphname = Eth;
lastChange = "2012-05-04 12:06:31 +0000";
layers = (
{
layerId = "A24B85EF-CA04-493E-A47C-A7B61068A6D7";
paths = (
{
closed = 1;
nodes = (
"60 335.016 LINE",
"370 335.016 LINE",
"370 365.016 LINE",
"60 365.016 LINE"
);
},
{
closed = 1;
nodes = (
"136.862 699.975 LINE",
"136.862 0.057 LINE",
"201.983 0.057 LINE",
"201.983 699.975 LINE"
);
},
{
closed = 1;
nodes = (
"140.126 72.921 LINE",
"137.217 72.921 LINE",
"136.561 38.087 OFFCURVE",
"108.164 10.037 OFFCURVE",
"73.163 10.037 CURVE SMOOTH",
"73.011 10.037 OFFCURVE",
"60.67 10.057 OFFCURVE",
"60.513 10.057 CURVE",
"60.351 0.057 LINE",
"140.126 0.057 LINE"
);
},
{
closed = 1;
nodes = (
"612.129 0 OFFCURVE",
"757.678 139.879 OFFCURVE",
"757.678 350.054 CURVE SMOOTH",
"757.678 559.811 OFFCURVE",
"612.08 695.112 OFFCURVE",
"398.536 699.706 CURVE SMOOTH",
"306.357 701.689 OFFCURVE",
"229.121 703.976 OFFCURVE",
"164.511 702.508 CURVE SMOOTH",
"1.072 698.794 OFFCURVE",
"-82 671.051 OFFCURVE",
"-121 553.583 CURVE",
"-110 549.583 LINE",
"-74 616.789 OFFCURVE",
"-30 670.683 OFFCURVE",
"184.016 670.35 CURVE SMOOTH",
"209.075 670.311 OFFCURVE",
"398.536 669.323 OFFCURVE",
"398.536 669.323 CURVE SMOOTH",
"569.94 669.323 OFFCURVE",
"682.678 541.615 OFFCURVE",
"682.678 350.054 CURVE SMOOTH",
"682.678 157.913 OFFCURVE",
"568.94 29.819 OFFCURVE",
"398.536 29.819 CURVE",
"398.536 29.819 OFFCURVE",
"174.531 29.832 OFFCURVE",
"174.125 29.832 CURVE",
"174.125 0 LINE",
"398.536 0 LINE SMOOTH"
);
}
);
width = 817;
},
{
layerId = "29CFC173-9C98-4BE1-970A-002FF3BCF672";
paths = (
{
closed = 1;
nodes = (
"66 325.016 LINE",
"456 325.016 LINE",
"456 375.016 LINE",
"66 375.016 LINE"
);
},
{
closed = 1;
nodes = (
"142.862 669.975 LINE",
"142.862 0.057 LINE",
"347.983 0.057 LINE",
"347.983 689.975 LINE"
);
},
{
closed = 1;
nodes = (
"145.775 72.864 LINE",
"142.865 72.864 LINE",
"142.21 38.029 OFFCURVE",
"113.813 9.979 OFFCURVE",
"78.811 9.979 CURVE SMOOTH",
"78.659 9.979 OFFCURVE",
"66.318 10 OFFCURVE",
"66.161 10 CURVE",
"66 0 LINE",
"145.775 0 LINE"
);
},
{
closed = 1;
nodes = (
"695 0 OFFCURVE",
"844 130 OFFCURVE",
"843.678 349.836 CURVE SMOOTH",
"844 570 OFFCURVE",
"695 700 OFFCURVE",
"444.536 699.975 CURVE",
"357.383 699.975 OFFCURVE",
"280.444 699.582 OFFCURVE",
"213.404 699.582 CURVE SMOOTH",
"51.066 699.582 OFFCURVE",
"-72 632.434 OFFCURVE",
"-100 483.931 CURVE",
"-90 479.931 LINE",
"-52 568.897 OFFCURVE",
"12 646.935 OFFCURVE",
"203.382 646.935 CURVE SMOOTH",
"318.112 646.935 OFFCURVE",
"423 650 OFFCURVE",
"424.536 649.944 CURVE SMOOTH",
"549 650 OFFCURVE",
"624 538 OFFCURVE",
"623.678 349.909 CURVE SMOOTH",
"624 161 OFFCURVE",
"549 50 OFFCURVE",
"424.536 50.44 CURVE",
"346.345 50.444 OFFCURVE",
"268.154 50.448 OFFCURVE",
"189.963 50.452 CURVE",
"191.499 0.057 LINE",
"444.536 0.057 LINE"
);
}
);
width = 878;
}
);
leftMetricsKey = D;
rightKerningGroup = O;
rightMetricsKey = D;
unicode = 00D0;
},
{
glyphname = E;
lastChange = "2012-05-05 22:22:42 +0000";
layers = (
{
anchors = (
{
name = bottom;
position = "{288.313, 0}";
},
{
name = ogonek;
position = "{490.935, 3}";
},
{
name = top;
position = "{248.313, 764}";
}
);
background = {
paths = (
{
closed = 1;
nodes = (
"119.556 700 LINE",
"119.556 0 LINE",
"184.588 0 LINE",
"184.588 700 LINE"
);
},
{
closed = 1;
nodes = (
"119.585 46.392 LINE",
"119.197 25.78 OFFCURVE",
"102.394 9.183 OFFCURVE",
"81.683 9.183 CURVE SMOOTH",
"81.593 9.183 OFFCURVE",
"70.445 9.195 OFFCURVE",
"70.352 9.195 CURVE",
"70.257 0 LINE",
"121.306 0 LINE",
"121.306 46.392 LINE"
);
},
{
closed = 1;
nodes = (
"175.413 28.869 LINE",
"221.805 28.869 LINE",
"221.805 30.59 LINE",
"201.192 30.979 OFFCURVE",
"184.596 47.785 OFFCURVE",
"184.596 68.492 CURVE SMOOTH",
"184.596 68.582 OFFCURVE",
"184.607 73.613 OFFCURVE",
"184.607 73.702 CURVE",
"175.413 73.798 LINE"
);
},
{
closed = 1;
nodes = (
"181.769 30.59 LINE",
"181.769 0 LINE",
"454.544 0 LINE",
"454.544 30.59 LINE"
);
},
{
closed = 1;
nodes = (
"486.92 113.692 LINE",
"470.506 65.289 OFFCURVE",
"424.732 30.443 OFFCURVE",
"370.782 30.443 CURVE",
"347.703 0 LINE",
"454.849 0 LINE",
"496.474 113.692 LINE"
);
},
{
closed = 1;
nodes = (
"181.769 360.218 LINE",
"181.769 330.218 LINE",
"411.719 330.218 LINE",
"411.719 360.218 LINE"
);
},
{
closed = 1;
nodes = (
"365.327 331.963 LINE",
"365.327 330.242 LINE",
"385.939 329.854 OFFCURVE",
"402.536 313.051 OFFCURVE",
"402.536 292.34 CURVE SMOOTH",
"402.536 292.25 OFFCURVE",
"402.524 281.099 OFFCURVE",
"402.524 281.006 CURVE",
"411.719 280.911 LINE",
"411.719 331.963 LINE"
);
},
{
closed = 1;
nodes = (
"70 700 LINE",
"70 690.805 LINE",
"70.095 690.807 OFFCURVE",
"81.593 690.819 OFFCURVE",
"81.683 690.819 CURVE SMOOTH",
"102.394 690.819 OFFCURVE",
"119.197 674.22 OFFCURVE",
"119.585 653.607 CURVE",
"121.306 653.607 LINE",
"121.306 700 LINE"
);
},
{
closed = 1;
nodes = (
"402.524 409.44 LINE",
"402.524 409.345 OFFCURVE",
"402.537 398.199 OFFCURVE",
"402.537 398.106 CURVE SMOOTH",
"402.537 377.396 OFFCURVE",
"385.939 360.596 OFFCURVE",
"365.327 360.207 CURVE",
"365.327 358.487 LINE",
"411.719 358.487 LINE",
"411.719 409.536 LINE"
);
},
{
closed = 1;
nodes = (
"331.824 715.586 LINE",
"181.769 700 LINE",
"181.769 669.409 LINE",
"454.544 669.409 LINE",
"454.544 700 LINE"
);
},
{
closed = 1;
nodes = (
"408.01 671.151 LINE",
"408.01 669.43 LINE",
"428.623 669.042 OFFCURVE",
"445.218 652.238 OFFCURVE",
"445.218 631.528 CURVE SMOOTH",
"445.218 631.438 OFFCURVE",
"445.206 620.29 OFFCURVE",
"445.206 620.197 CURVE",
"454.401 620.101 LINE",
"454.401 671.151 LINE"
);
}
);
};
layerId = "A24B85EF-CA04-493E-A47C-A7B61068A6D7";
paths = (
{
closed = 1;
nodes = (
"136.869 700 LINE",
"136.869 0 LINE",
"201.901 0 LINE",
"201.901 700 LINE"
);
},
{
closed = 1;
nodes = (
"199.082 30.59 LINE",
"199.082 0 LINE",
"541.857 0 LINE",
"541.857 30.59 LINE"
);
},
{
closed = 1;
nodes = (
"199.082 360.218 LINE",
"199.082 330.218 LINE",
"450.032 330.218 LINE",
"450.032 360.218 LINE"
);
},
{
closed = 1;
nodes = (
"199.082 700 LINE",
"199.082 669.409 LINE SMOOTH",
"381.797 669.409 LINE",
"381.797 700 LINE"
);
},
{
closed = 1;
nodes = (
"592.845 161.543 LINE",
"561.976 85.405 OFFCURVE",
"521.283 30.592 OFFCURVE",
"415.32 30.592 CURVE",
"379.016 0 LINE",
"544.557 0 LINE",
"602.845 161.543 LINE"
);
},
{
closed = 1;
nodes = (
"391.904 332.487 LINE",
"391.904 330.249 LINE",
"418.698 329.745 OFFCURVE",
"440.275 307.901 OFFCURVE",
"440.275 280.977 CURVE SMOOTH",
"440.259 266.243 LINE",
"450.032 266.119 LINE",
"450.032 332.487 LINE"
);
},
{
closed = 1;
nodes = (
"440.259 424.25 LINE",
"440.276 409.516 LINE SMOOTH",
"440.276 382.593 OFFCURVE",
"418.698 360.753 OFFCURVE",
"391.904 360.248 CURVE",
"391.904 358.012 LINE",
"450.032 358.012 LINE",
"450.032 424.375 LINE"
);
},
{
closed = 1;
nodes = (
"313.236 672.218 LINE",
"313.236 669.51 LINE",
"345.66 668.9 OFFCURVE",
"371.765 642.468 OFFCURVE",
"371.765 609.891 CURVE SMOOTH",
"371.746 592.067 LINE",
"381.846 591.917 LINE",
"381.846 672.218 LINE"
);
},
{
closed = 1;
nodes = (
"362.862 710.201 OFFCURVE",
"303.24 699.987 OFFCURVE",
"259.88 699.987 CURVE",
"381.811 688.909 LINE",
"381.811 718.187 LINE"
);
},
{
closed = 1;
nodes = (
"136.865 72.864 LINE",
"136.21 38.029 OFFCURVE",
"107.813 9.979 OFFCURVE",
"72.811 9.979 CURVE SMOOTH",
"72.659 9.979 OFFCURVE",
"60.318 10 OFFCURVE",
"60.161 10 CURVE",
"60 0 LINE",
"139.775 0 LINE",
"139.775 72.864 LINE"
);
},
{
closed = 1;
nodes = (
"140.126 700.06 LINE",
"60.351 700.06 LINE",
"60.513 690.06 LINE",
"60.67 690.06 OFFCURVE",
"73.011 690.08 OFFCURVE",
"73.163 690.08 CURVE SMOOTH",
"108.164 690.08 OFFCURVE",
"136.561 662.03 OFFCURVE",
"137.217 627.196 CURVE",
"140.126 627.196 LINE"
);
}
);
width = 607;
},
{
anchors = (
{
name = bottom;
position = "{378.706, 0}";
},
{
name = ogonek;
position = "{627.919, 4.638}";
},
{
name = top;
position = "{279.039, 764}";
}
);
layerId = "29CFC173-9C98-4BE1-970A-002FF3BCF672";
paths = (
{
closed = 1;
nodes = (
"106.869 700 LINE",
"106.869 0 LINE",
"311.901 0 LINE",
"311.901 700 LINE"
);
},
{
closed = 1;
nodes = (
"309.082 50.59 LINE",
"309.082 0 LINE",
"671.857 0 LINE",
"631.857 50.59 LINE"
);
},
{
closed = 1;
nodes = (
"309.082 370.218 LINE",
"309.082 320.218 LINE",
"569.032 320.218 LINE",
"569.032 370.218 LINE"
);
},
{
closed = 1;
nodes = (
"309.082 700 LINE",
"309.082 649.409 LINE SMOOTH",
"481.797 649.409 LINE",
"481.797 700 LINE"
);
},
{
closed = 1;
nodes = (
"702.845 231.543 LINE",
"671.753 117.359 OFFCURVE",
"591.283 50.592 OFFCURVE",
"495.32 50.592 CURVE",
"459.016 0 LINE",
"674.557 0 LINE",
"712.845 231.543 LINE"
);
},
{
closed = 1;
nodes = (
"450.904 322.487 LINE",
"450.904 320.249 LINE",
"514.378 319.055 OFFCURVE",
"559.487 273.785 OFFCURVE",
"559.275 210.977 CURVE SMOOTH",
"559.259 206.243 LINE",
"569.032 206.119 LINE",
"569.032 322.487 LINE"
);
},
{
closed = 1;
nodes = (
"559.259 484.25 LINE",
"559.276 479.516 LINE SMOOTH",
"559.501 416.714 OFFCURVE",
"514.451 371.446 OFFCURVE",
"450.904 370.248 CURVE",
"450.904 368.012 LINE",
"569.032 368.012 LINE",
"569.032 484.375 LINE"
);
},
{
closed = 1;
nodes = (
"343.236 652.218 LINE",
"343.236 649.51 LINE",
"424.22 647.987 OFFCURVE",
"471.959 599.769 OFFCURVE",
"471.765 519.891 CURVE SMOOTH",
"471.746 512.067 LINE",
"481.846 511.917 LINE",
"481.846 652.218 LINE"
);
},
{
closed = 1;
nodes = (
"462.862 710.201 OFFCURVE",
"403.24 699.987 OFFCURVE",
"359.88 699.987 CURVE",
"481.811 688.909 LINE",
"481.811 718.187 LINE"
);
},
{
closed = 1;
nodes = (
"106.865 72.864 LINE",
"106.21 38.029 OFFCURVE",
"77.813 9.979 OFFCURVE",
"42.811 9.979 CURVE SMOOTH",
"42.659 9.979 OFFCURVE",
"30.318 10 OFFCURVE",
"30.161 10 CURVE",
"30 0 LINE",
"109.775 0 LINE",
"109.775 72.864 LINE"
);
},
{
closed = 1;
nodes = (
"109.782 700.06 LINE",
"30.007 700.06 LINE",
"30.169 690.06 LINE",
"30.326 690.06 OFFCURVE",
"42.667 690.08 OFFCURVE",
"42.819 690.08 CURVE SMOOTH",
"77.82 690.08 OFFCURVE",
"106.217 662.03 OFFCURVE",
"106.873 627.196 CURVE",
"109.782 627.196 LINE"
);
}
);
width = 712;
}
);
leftKerningGroup = H;
rightKerningGroup = E;
unicode = 0045;
},
{
glyphname = F;
lastChange = "2012-05-04 11:17:43 +0000";
layers = (
{
layerId = "A24B85EF-CA04-493E-A47C-A7B61068A6D7";
paths = (
{
closed = 1;
nodes = (
"136.869 700 LINE SMOOTH",
"136.869 0 LINE",
"201.901 0 LINE",
"201.901 700 LINE"
);
},
{
closed = 1;
nodes = (
"169.082 360.218 LINE",
"169.082 330.218 LINE",
"579.032 330.218 LINE",
"579.032 360.218 LINE"
);
},
{
closed = 1;
nodes = (
"199.082 700 LINE",
"199.082 669.409 LINE SMOOTH",
"471.797 669.409 LINE",
"471.797 700 LINE"
);
},
{
closed = 1;
nodes = (
"520.904 332.487 LINE",
"520.904 330.249 LINE",
"547.698 329.745 OFFCURVE",
"569.275 307.901 OFFCURVE",
"569.275 280.977 CURVE SMOOTH",
"569.259 266.243 LINE",
"579.032 266.119 LINE",
"579.032 332.487 LINE"
);
},
{
closed = 1;
nodes = (
"569.259 424.25 LINE",
"569.276 409.516 LINE SMOOTH",
"569.276 382.593 OFFCURVE",
"547.698 360.753 OFFCURVE",
"520.904 360.248 CURVE",
"520.904 358.012 LINE",
"579.032 358.012 LINE",
"579.032 424.375 LINE"
);
},
{
closed = 1;
nodes = (
"413.456 671.625 LINE",
"413.456 669.387 LINE",
"440.253 668.883 OFFCURVE",
"461.827 647.038 OFFCURVE",
"461.827 620.115 CURVE SMOOTH",
"461.811 605.384 LINE",
"471.811 605.26 LINE",
"471.811 671.625 LINE"
);
},
{
closed = 1;
nodes = (
"452.862 710.201 OFFCURVE",
"393.24 699.987 OFFCURVE",
"349.88 699.987 CURVE",
"471.811 688.909 LINE",
"471.811 718.187 LINE"
);
},
{
closed = 1;
nodes = (
"136.865 72.864 LINE",
"136.21 38.029 OFFCURVE",
"107.813 9.979 OFFCURVE",
"72.811 9.979 CURVE SMOOTH",
"72.659 9.979 OFFCURVE",
"60.318 10 OFFCURVE",
"60.161 10 CURVE",
"60 0 LINE",
"139.775 0 LINE",
"139.775 72.864 LINE"
);
},
{
closed = 1;
nodes = (
"140.126 700.06 LINE",
"60.351 700.06 LINE",
"60.513 690.06 LINE",
"60.67 690.06 OFFCURVE",
"73.011 690.08 OFFCURVE",
"73.163 690.08 CURVE SMOOTH",
"108.164 690.08 OFFCURVE",
"136.561 662.03 OFFCURVE",
"137.217 627.196 CURVE",
"140.126 627.196 LINE"
);
},
{
closed = 1;
nodes = (
"199.007 0 LINE",
"278.782 0 LINE",
"278.621 10 LINE",
"278.464 10 OFFCURVE",
"266.123 9.979 OFFCURVE",
"265.971 9.979 CURVE SMOOTH",
"230.969 9.979 OFFCURVE",
"202.572 38.029 OFFCURVE",
"201.917 72.864 CURVE",
"199.007 72.864 LINE"
);
}
);
width = 579;
},
{
layerId = "29CFC173-9C98-4BE1-970A-002FF3BCF672";
paths = (
{
closed = 1;
nodes = (
"106.869 700 LINE",
"106.869 0 LINE",
"311.901 0 LINE",
"311.901 700 LINE"
);
},
{
closed = 1;
nodes = (
"309.082 370.218 LINE",
"309.082 320.218 LINE",
"699.032 320.218 LINE",
"699.032 370.218 LINE"
);
},
{
closed = 1;
nodes = (
"309.082 700 LINE",
"309.082 649.409 LINE SMOOTH",
"591.797 649.409 LINE",
"591.797 700 LINE"
);
},
{
closed = 1;
nodes = (
"580.904 322.487 LINE",
"580.904 320.249 LINE",
"644.378 319.055 OFFCURVE",
"689.487 273.785 OFFCURVE",
"689.275 210.977 CURVE SMOOTH",
"689.259 206.243 LINE",
"699.032 206.119 LINE",
"699.032 322.487 LINE"
);
},
{
closed = 1;
nodes = (
"689.259 484.25 LINE",
"689.276 479.516 LINE SMOOTH",
"689.501 416.714 OFFCURVE",
"644.451 371.446 OFFCURVE",
"580.904 370.248 CURVE",
"580.904 368.012 LINE",
"699.032 368.012 LINE",
"699.032 484.375 LINE"
);
},
{
closed = 1;
nodes = (
"453.236 652.218 LINE",
"453.236 649.51 LINE",
"534.22 647.987 OFFCURVE",
"581.959 599.769 OFFCURVE",
"581.765 519.891 CURVE SMOOTH",
"581.746 512.067 LINE",
"591.846 511.917 LINE",
"591.846 652.218 LINE"
);
},
{
closed = 1;
nodes = (
"572.862 710.201 OFFCURVE",
"513.24 699.987 OFFCURVE",
"469.88 699.987 CURVE",
"591.811 688.909 LINE",
"591.811 718.187 LINE"
);
},
{
closed = 1;
nodes = (
"106.865 72.864 LINE",
"106.21 38.029 OFFCURVE",
"77.813 9.979 OFFCURVE",
"42.811 9.979 CURVE SMOOTH",
"42.659 9.979 OFFCURVE",
"30.318 10 OFFCURVE",
"30.161 10 CURVE",
"30 0 LINE",
"109.775 0 LINE",
"109.775 72.864 LINE"
);
},
{
closed = 1;
nodes = (
"109.783 700.067 LINE",
"30.008 700.067 LINE",
"30.17 690.067 LINE",
"30.327 690.067 OFFCURVE",
"42.668 690.087 OFFCURVE",
"42.82 690.087 CURVE SMOOTH",
"77.821 690.087 OFFCURVE",
"106.218 662.037 OFFCURVE",
"106.874 627.203 CURVE",
"109.783 627.203 LINE"
);
},
{
closed = 1;
nodes = (
"309.029 0 LINE",
"388.804 0 LINE",
"388.643 10 LINE",
"388.486 10 OFFCURVE",
"376.145 9.979 OFFCURVE",
"375.993 9.979 CURVE SMOOTH",
"340.991 9.979 OFFCURVE",
"312.594 38.029 OFFCURVE",
"311.939 72.864 CURVE",
"309.029 72.864 LINE"
);
}
);
width = 709;
},
{
associatedMasterId = "A24B85EF-CA04-493E-A47C-A7B61068A6D7";
layerId = "5A4B098B-C5F1-49E5-916E-AB63ADAC1483";
name = "Regular Apr 26 12, 10:59";
paths = (
{
closed = 1;
nodes = (
"136.869 700 LINE",
"136.869 0 LINE",
"201.901 0 LINE",
"201.901 700 LINE"
);
},
{
closed = 1;
nodes = (
"394.497 376.922 OFFCURVE",
"378.984 363.349 OFFCURVE",
"332 361 CURVE SMOOTH",
"232 356 OFFCURVE",
"201 389 OFFCURVE",
"119 383 CURVE SMOOTH",
"89 381 OFFCURVE",
"42 363.284 OFFCURVE",
"17.082 322.218 CURVE",
"26.082 312.218 LINE",
"51.892 336.34 OFFCURVE",
"69.014 350.675 OFFCURVE",
"119 353 CURVE SMOOTH",
"205 357 OFFCURVE",
"233 325 OFFCURVE",
"332 331 CURVE SMOOTH",
"363 333 OFFCURVE",
"409.803 349.982 OFFCURVE",
"428.032 393.218 CURVE",
"419.032 401.218 LINE"
);
},
{
closed = 1;
nodes = (
"199.082 700 LINE",
"199.082 669.409 LINE SMOOTH",
"471.797 669.409 LINE",
"471.797 700 LINE"
);
},
{
closed = 1;
nodes = (
"413.456 671.625 LINE",
"413.456 669.387 LINE",
"440.253 668.883 OFFCURVE",
"461.827 647.038 OFFCURVE",
"461.827 620.115 CURVE SMOOTH",
"461.811 605.384 LINE",
"471.811 605.26 LINE",
"471.811 671.625 LINE"
);
},
{
closed = 1;
nodes = (
"452.862 710.201 OFFCURVE",
"393.24 699.987 OFFCURVE",
"349.88 699.987 CURVE",
"471.811 688.909 LINE",
"471.811 718.187 LINE"
);
},
{
closed = 1;
nodes = (
"136.865 72.864 LINE",
"136.21 38.029 OFFCURVE",
"107.813 9.979 OFFCURVE",
"72.811 9.979 CURVE SMOOTH",
"72.659 9.979 OFFCURVE",
"60.318 10 OFFCURVE",
"60.161 10 CURVE",
"60 0 LINE",
"139.775 0 LINE",
"139.775 72.864 LINE"
);
},
{
closed = 1;
nodes = (
"140.126 700.06 LINE",
"60.351 700.06 LINE",
"60.513 690.06 LINE",
"60.67 690.06 OFFCURVE",
"73.011 690.08 OFFCURVE",
"73.163 690.08 CURVE SMOOTH",
"108.164 690.08 OFFCURVE",
"136.561 662.03 OFFCURVE",
"137.217 627.196 CURVE",
"140.126 627.196 LINE"
);
},
{
closed = 1;
nodes = (
"199.007 0 LINE",
"278.782 0 LINE",
"278.621 10 LINE",
"278.464 10 OFFCURVE",
"266.123 9.979 OFFCURVE",
"265.971 9.979 CURVE SMOOTH",
"230.969 9.979 OFFCURVE",
"202.572 38.029 OFFCURVE",
"201.917 72.864 CURVE",
"199.007 72.864 LINE"
);
}
);
width = 541;
}
);
leftKerningGroup = H;
rightKerningGroup = F;
unicode = 0046;
},
{
glyphname = G;
lastChange = "2012-05-04 15:14:35 +0000";
layers = (
{
anchors = (
{
name = bottom;
position = "{455.347, -64}";
},
{
name = top;
position = "{427, 764}";
}
);
layerId = "29CFC173-9C98-4BE1-970A-002FF3BCF672";
paths = (
{
closed = 1;
nodes = (
"185 714 OFFCURVE",
"10 570 OFFCURVE",
"10 350 CURVE SMOOTH",
"10 132 OFFCURVE",
"183 -14 OFFCURVE",
"434 -14 CURVE SMOOTH",
"604 -14 OFFCURVE",
"745 53 OFFCURVE",
"794.522 114.81 CURVE",
"794.794 279.151 LINE",
"793.945 308.254 OFFCURVE",
"812.133 324.561 OFFCURVE",
"844.467 324.561 CURVE SMOOTH",
"859.537 324.54 LINE",
"859.537 334.54 LINE",
"523.669 334.54 LINE",
"523.669 324.54 LINE",
"539.436 324.561 LINE SMOOTH",
"571.712 324.606 OFFCURVE",
"590.552 308.199 OFFCURVE",
"590.317 278.994 CURVE",
"590.317 142.656 LINE",
"590.521 78.662 OFFCURVE",
"537.195 36 OFFCURVE",
"457 36 CURVE SMOOTH",
"320.8 36 OFFCURVE",
"230 159.2 OFFCURVE",
"230 344 CURVE SMOOTH",
"230 536 OFFCURVE",
"324.8 664 OFFCURVE",
"467 664 CURVE SMOOTH",
"583.108 664 OFFCURVE",
"691 609 OFFCURVE",
"725.378 477.264 CURVE",
"733.701 477.232 LINE",
"743.525 668.468 LINE",
"684.775 693.286 OFFCURVE",
"556.117 714 OFFCURVE",
"446.128 714 CURVE SMOOTH"
);
},
{
closed = 1;
nodes = (
"590.317 146.807 LINE",
"590.317 -87 OFFCURVE",
"826.64 -301 OFFCURVE",
"1117.12 -173 CURVE",
"1115.12 -163 LINE",
"920.049 -208 OFFCURVE",
"794.522 -36 OFFCURVE",
"794.522 118.961 CURVE"
);
}
);
width = 872;
},
{
anchors = (
{
name = bottom;
position = "{419.42, -64}";
},
{
name = top;
position = "{419.421, 764}";
}
);
associatedMasterId = "A24B85EF-CA04-493E-A47C-A7B61068A6D7";
layerId = "57E63442-550E-430E-A2A3-F2DBBF87F2FC";
name = "Regular Apr 19 12, 16:15";
paths = (
{
closed = 1;
nodes = (
"688.048 165.6 LINE",
"645.979 87.388 OFFCURVE",
"555.006 15.926 OFFCURVE",
"419.42 15.926 CURVE SMOOTH",
"249.916 15.926 OFFCURVE",
"135 150.447 OFFCURVE",
"135 350 CURVE SMOOTH",
"135 550.445 OFFCURVE",
"249.919 684.074 OFFCURVE",
"419.422 684.074 CURVE SMOOTH",
"551.47 684.074 OFFCURVE",
"642.999 619.702 OFFCURVE",
"673.378 505.264 CURVE",
"681.701 505.232 LINE",
"661.525 646.468 LINE",
"602.775 684.286 OFFCURVE",
"529.117 714 OFFCURVE",
"419.128 714 CURVE SMOOTH",
"206.768 714 OFFCURVE",
"60 568.401 OFFCURVE",
"60 350.002 CURVE SMOOTH",
"60 132.363 OFFCURVE",
"206.766 -14 OFFCURVE",
"419.42 -14 CURVE SMOOTH",
"593.586 -14 OFFCURVE",
"664.024 53.215 OFFCURVE",
"709.625 113.81 CURVE"
);
},
{
closed = 1;
nodes = (
"612 360.663 OFFCURVE",
"652.869 298.953 OFFCURVE",
"655.684 217.203 CURVE SMOOTH",
"659.684 101.054 LINE SMOOTH",
"666.919 -109 OFFCURVE",
"828.954 -296 OFFCURVE",
"1102.53 -171 CURVE",
"1101.91 -161 LINE",
"846.925 -239 OFFCURVE",
"740.287 -98 OFFCURVE",
"731.237 104.203 CURVE SMOOTH",
"727.237 193.678 LINE SMOOTH",
"721.087 331.255 OFFCURVE",
"643.396 392.586 OFFCURVE",
"501.497 355.121 CURVE",
"502.119 345.24 LINE"
);
}
);
width = 798;
},
{
anchors = (
{
name = bottom;
position = "{448.42, -64}";
},
{
name = top;
position = "{448.421, 764}";
}
);
associatedMasterId = "A24B85EF-CA04-493E-A47C-A7B61068A6D7";
layerId = "2E70069A-7D45-4C86-B084-507172B668E3";
name = "Regular Apr 23 12, 11:59";
paths = (
{
closed = 1;
nodes = (
"738.151 309.103 OFFCURVE",
"756.339 325.41 OFFCURVE",
"788.673 325.41 CURVE SMOOTH",
"803.743 325.389 LINE",
"803.743 335.389 LINE",
"607.875 335.389 LINE",
"607.875 325.389 LINE",
"623.642 325.41 LINE SMOOTH",
"655.918 325.455 OFFCURVE",
"675.075 309.049 OFFCURVE",
"675.075 279.843 CURVE",
"673.565 102.656 LINE",
"617.402 49.354 OFFCURVE",
"536.333 15.926 OFFCURVE",
"449.42 15.926 CURVE SMOOTH",
"269.751 16.87 OFFCURVE",
"135 155.045 OFFCURVE",
"135 350 CURVE SMOOTH",
"135 545.9 OFFCURVE",
"269.752 684.074 OFFCURVE",
"449.422 684.074 CURVE SMOOTH",
"581.47 684.074 OFFCURVE",
"672.999 619.702 OFFCURVE",
"703.378 505.264 CURVE",
"711.701 505.232 LINE",
"691.525 646.468 LINE",
"632.775 684.286 OFFCURVE",
"559.117 714 OFFCURVE",
"449.128 714 CURVE SMOOTH",
"226.769 714 OFFCURVE",
"60 563 OFFCURVE",
"60 350.002 CURVE SMOOTH",
"60 138.047 OFFCURVE",
"226.894 -13 OFFCURVE",
"449.42 -14 CURVE SMOOTH",
"599.586 -14 OFFCURVE",
"693.024 54.215 OFFCURVE",
"738.625 114.81 CURVE",
"738.625 280.182 LINE"
);
},
{
closed = 1;
nodes = (
"673.687 117.016 LINE",
"675.755 -125 OFFCURVE",
"557.29 -274 OFFCURVE",
"210.638 -198 CURVE",
"207.638 -207 LINE",
"585.315 -339 OFFCURVE",
"742.909 -133 OFFCURVE",
"738.618 116.689 CURVE"
);
}
);
width = 828;
},
{
anchors = (
{
name = bottom;
position = "{449.42, -64}";
},
{
name = top;
position = "{449.421, 764}";
}
);
layerId = "A24B85EF-CA04-493E-A47C-A7B61068A6D7";
paths = (
{
closed = 1;
nodes = (
"226.769 714 OFFCURVE",
"60 563 OFFCURVE",
"60 350.002 CURVE SMOOTH",
"60 142.047 OFFCURVE",
"226.894 -13 OFFCURVE",
"449.42 -14 CURVE SMOOTH",
"599.586 -14 OFFCURVE",
"693.024 54.215 OFFCURVE",
"738.625 114.81 CURVE",
"738.625 280.182 LINE",
"738.151 309.103 OFFCURVE",
"756.339 325.41 OFFCURVE",
"788.673 325.41 CURVE SMOOTH",
"803.743 325.389 LINE",
"803.743 335.389 LINE",
"607.875 335.389 LINE",
"607.875 325.389 LINE",
"623.642 325.41 LINE SMOOTH",
"655.918 325.455 OFFCURVE",
"674.32 309.049 OFFCURVE",
"674.32 279.843 CURVE",
"674.32 102.656 LINE",
"618.157 49.354 OFFCURVE",
"536.333 15.926 OFFCURVE",
"449.42 15.926 CURVE SMOOTH",
"269.751 16.87 OFFCURVE",
"135 159.045 OFFCURVE",
"135 350 CURVE SMOOTH",
"135 545.9 OFFCURVE",
"269.752 684.074 OFFCURVE",
"449.422 684.074 CURVE SMOOTH",
"581.47 684.074 OFFCURVE",
"672.999 619.702 OFFCURVE",
"703.378 505.264 CURVE",
"711.701 505.232 LINE",
"691.525 646.468 LINE",
"632.775 684.286 OFFCURVE",
"559.117 714 OFFCURVE",
"449.128 714 CURVE SMOOTH"
);
},
{
closed = 1;
nodes = (
"674.32 123.011 LINE",
"681.555 -97 OFFCURVE",
"863.021 -234 OFFCURVE",
"1116.6 -149 CURVE",
"1115.98 -139 LINE",
"880.992 -177 OFFCURVE",
"747.676 -86 OFFCURVE",
"738.625 126.16 CURVE"
);
}
);
width = 846;
}
);
leftKerningGroup = O;
rightKerningGroup = G;
unicode = 0047;
},
{
glyphname = H;
lastChange = "2012-05-03 15:06:11 +0000";
layers = (
{
anchors = (
{
name = center;
position = "{451, 350}";
},
{
name = top;
position = "{451, 764}";
}
);
layerId = "29CFC173-9C98-4BE1-970A-002FF3BCF672";
paths = (
{
closed = 1;
nodes = (
"109.791 700.06 LINE",
"30.016 700.06 LINE",
"30.178 690.06 LINE",
"32 690 OFFCURVE",
"41 690 OFFCURVE",
"43 690 CURVE SMOOTH",
"77.829 690.08 OFFCURVE",
"106.226 662.03 OFFCURVE",
"106.882 627.196 CURVE",
"109.791 627.196 LINE"
);
},
{
closed = 1;
nodes = (
"106.861 700 LINE",
"106.861 70 LINE SMOOTH",
"106.861 -30 OFFCURVE",
"105.168 -121 OFFCURVE",
"-24 -172 CURVE",
"-24 -182 LINE",
"221.408 -258 OFFCURVE",
"311.959 -82 OFFCURVE",
"311.959 70 CURVE SMOOTH",
"311.959 700 LINE"
);
},
{
closed = 1;
nodes = (
"311.905 627.196 LINE",
"313 664 OFFCURVE",
"342 690 OFFCURVE",
"375.959 690.08 CURVE SMOOTH",
"378 690 OFFCURVE",
"387 690 OFFCURVE",
"388.609 690.06 CURVE",
"388.771 700.06 LINE",
"308.996 700.06 LINE",
"308.996 627.196 LINE"
);
},
{
closed = 1;
nodes = (
"301.574 375 LINE",
"301.574 325 LINE",
"590.318 325 LINE",
"590.318 375 LINE"
);
},
{
closed = 1;
nodes = (
"579.51 72.864 LINE",
"578.855 38.029 OFFCURVE",
"550.458 9.979 OFFCURVE",
"515.456 9.979 CURVE SMOOTH",
"513 10 OFFCURVE",
"505 10 OFFCURVE",
"502.806 10 CURVE",
"502.645 0 LINE",
"582.42 0 LINE",
"582.42 72.864 LINE"
);
},
{
closed = 1;
nodes = (
"784.443 0 LINE",
"785.443 610 LINE SMOOTH",
"785.591 700 OFFCURVE",
"784.636 812 OFFCURVE",
"913.805 852 CURVE",
"913.805 862 LINE",
"712.396 911 OFFCURVE",
"580.645 762 OFFCURVE",
"580.396 610 CURVE SMOOTH",
"579.396 0 LINE"
);
},
{
closed = 1;
nodes = (
"781.694 0 LINE",
"861.469 0 LINE",
"861.308 10 LINE",
"859 10 OFFCURVE",
"851 10 OFFCURVE",
"848.658 9.979 CURVE SMOOTH",
"812 10 OFFCURVE",
"785 40 OFFCURVE",
"784.604 72.864 CURVE",
"781.694 72.864 LINE"
);
}
);
width = 893;
},
{
anchors = (
{
name = center;
position = "{406.306, 350}";
},
{
name = top;
position = "{406.306, 700}";
}
);
associatedMasterId = "A24B85EF-CA04-493E-A47C-A7B61068A6D7";
layerId = "DB4B605A-7E6B-4619-8A6B-0C0A8EC5496A";
name = "Regular Apr 17 12, 12:21";
paths = (
{
closed = 1;
nodes = (
"136.873 700 LINE",
"136.873 60 LINE SMOOTH",
"136.873 -60 OFFCURVE",
"107.68 -121 OFFCURVE",
"48.511 -152 CURVE",
"53.511 -161 LINE",
"144.92 -140 OFFCURVE",
"201.92 -92 OFFCURVE",
"201.92 60 CURVE SMOOTH",
"201.92 700 LINE"
);
},
{
closed = 1;
nodes = (
"191.574 361.058 LINE",
"191.574 331.058 LINE",
"620.318 331.058 LINE",
"620.318 361.058 LINE"
);
},
{
closed = 1;
nodes = (
"201.905 627.196 LINE",
"202.561 662.03 OFFCURVE",
"230.958 690.08 OFFCURVE",
"265.959 690.08 CURVE SMOOTH",
"266.111 690.08 OFFCURVE",
"278.452 690.06 OFFCURVE",
"278.609 690.06 CURVE",
"278.771 700.06 LINE",
"198.996 700.06 LINE",
"198.996 627.196 LINE"
);
},
{
closed = 1;
nodes = (
"650.216 0 LINE",
"729.991 0 LINE",
"729.829 10 LINE",
"729.672 10 OFFCURVE",
"717.331 9.98 OFFCURVE",
"717.179 9.98 CURVE SMOOTH",
"682.178 9.98 OFFCURVE",
"653.781 38.03 OFFCURVE",
"653.125 72.864 CURVE",
"650.216 72.864 LINE"
);
},
{
closed = 1;
nodes = (
"588.102 72.864 LINE",
"587.446 38.03 OFFCURVE",
"559.049 9.98 OFFCURVE",
"524.048 9.98 CURVE SMOOTH",
"523.896 9.98 OFFCURVE",
"511.555 10 OFFCURVE",
"511.398 10 CURVE",
"511.236 0 LINE",
"591.011 0 LINE",
"591.011 72.864 LINE"
);
},
{
closed = 1;
nodes = (
"652.954 0 LINE",
"653.954 610 LINE SMOOTH",
"654.151 730 OFFCURVE",
"683.147 791 OFFCURVE",
"742.316 822 CURVE",
"737.316 831 LINE",
"645.907 810 OFFCURVE",
"589.156 762 OFFCURVE",
"588.907 610 CURVE SMOOTH",
"587.907 0 LINE"
);
},
{
closed = 1;
nodes = (
"191.708 702.155 LINE",
"67.765 682.155 OFFCURVE",
"-60 739.571 OFFCURVE",
"-94 852.504 CURVE",
"-103 848.504 LINE",
"-92 746.011 OFFCURVE",
"17.409 660.384 OFFCURVE",
"136.873 660.384 CURVE SMOOTH",
"154.68 660.384 OFFCURVE",
"171.239 660.618 OFFCURVE",
"192.514 660.384 CURVE"
);
}
);
width = 813;
},
{
anchors = (
{
name = center;
position = "{417.795, 350}";
},
{
name = top;
position = "{417.795, 700}";
}
);
layerId = "A24B85EF-CA04-493E-A47C-A7B61068A6D7";
paths = (
{
closed = 1;
nodes = (
"151.28 700.06 LINE",
"71.504 700.06 LINE",
"71.666 690.06 LINE",
"71.823 690.06 OFFCURVE",
"84.165 690.08 OFFCURVE",
"84.317 690.08 CURVE SMOOTH",
"119.318 690.08 OFFCURVE",
"147.715 662.03 OFFCURVE",
"148.371 627.196 CURVE",
"151.28 627.196 LINE"
);
},
{
closed = 1;
nodes = (
"148.362 700 LINE",
"148.362 70 LINE SMOOTH",
"148.362 -50 OFFCURVE",
"119.168 -111 OFFCURVE",
"60 -142 CURVE",
"65 -151 LINE",
"156.408 -130 OFFCURVE",
"213.409 -82 OFFCURVE",
"213.409 70 CURVE SMOOTH",
"213.409 700 LINE"
);
},
{
closed = 1;
nodes = (
"213.394 627.196 LINE",
"214.05 662.03 OFFCURVE",
"242.447 690.08 OFFCURVE",
"277.448 690.08 CURVE SMOOTH",
"277.6 690.08 OFFCURVE",
"289.941 690.06 OFFCURVE",
"290.098 690.06 CURVE",
"290.26 700.06 LINE",
"210.485 700.06 LINE",
"210.485 627.196 LINE"
);
},
{
closed = 1;
nodes = (
"203.063 361.058 LINE",
"203.063 331.058 LINE",
"631.807 331.058 LINE",
"631.807 361.058 LINE"
);
},
{
closed = 1;
nodes = (
"599.59 72.864 LINE",
"598.934 38.03 OFFCURVE",
"570.537 9.98 OFFCURVE",
"535.536 9.98 CURVE SMOOTH",
"535.384 9.98 OFFCURVE",
"523.043 10 OFFCURVE",
"522.886 10 CURVE",
"522.724 0 LINE",
"602.499 0 LINE",
"602.499 72.864 LINE"
);
},
{
closed = 1;
nodes = (
"664.443 0 LINE",
"665.443 610 LINE SMOOTH",
"665.639 730 OFFCURVE",
"694.636 791 OFFCURVE",
"753.805 822 CURVE",
"748.805 831 LINE",
"657.396 810 OFFCURVE",
"600.645 762 OFFCURVE",
"600.396 610 CURVE SMOOTH",
"599.396 0 LINE"
);
},
{
closed = 1;
nodes = (
"661.704 0 LINE",
"741.479 0 LINE",
"741.317 10 LINE",
"741.16 10 OFFCURVE",
"728.819 9.98 OFFCURVE",
"728.667 9.98 CURVE SMOOTH",
"693.666 9.98 OFFCURVE",
"665.269 38.03 OFFCURVE",
"664.613 72.864 CURVE",
"661.704 72.864 LINE"
);
}
);
width = 813;
}
);
leftKerningGroup = H;
rightKerningGroup = H;
unicode = 0048;
},
{
glyphname = Hbar;
lastChange = "2012-05-03 15:06:25 +0000";
layers = (
{
layerId = "A24B85EF-CA04-493E-A47C-A7B61068A6D7";
paths = (
{
closed = 1;
nodes = (
"60 528.11 LINE",
"60 498.11 LINE",
"728.744 498.11 LINE",
"728.744 528.11 LINE"
);
},
{
closed = 1;
nodes = (
"151.28 700.06 LINE",
"71.504 700.06 LINE",
"71.666 690.06 LINE",
"71.823 690.06 OFFCURVE",
"84.165 690.08 OFFCURVE",
"84.317 690.08 CURVE SMOOTH",
"119.318 690.08 OFFCURVE",
"147.715 662.03 OFFCURVE",
"148.371 627.196 CURVE",
"151.28 627.196 LINE"
);
},
{
closed = 1;
nodes = (
"148.362 700 LINE",
"148.362 70 LINE SMOOTH",
"148.362 -50 OFFCURVE",
"119.168 -111 OFFCURVE",
"60 -142 CURVE",
"65 -151 LINE",
"156.408 -130 OFFCURVE",
"213.409 -82 OFFCURVE",
"213.409 70 CURVE SMOOTH",
"213.409 700 LINE"
);
},
{
closed = 1;
nodes = (
"213.394 627.196 LINE",
"214.05 662.03 OFFCURVE",
"242.447 690.08 OFFCURVE",
"277.448 690.08 CURVE SMOOTH",
"277.6 690.08 OFFCURVE",
"289.941 690.06 OFFCURVE",
"290.098 690.06 CURVE",
"290.26 700.06 LINE",
"210.485 700.06 LINE",
"210.485 627.196 LINE"
);
},
{
closed = 1;
nodes = (
"203.063 361.058 LINE",
"203.063 331.058 LINE",
"631.807 331.058 LINE",
"631.807 361.058 LINE"
);
},
{
closed = 1;
nodes = (
"599.59 72.864 LINE",
"598.934 38.03 OFFCURVE",
"570.537 9.98 OFFCURVE",
"535.536 9.98 CURVE SMOOTH",
"535.384 9.98 OFFCURVE",
"523.043 10 OFFCURVE",
"522.886 10 CURVE",
"522.724 0 LINE",
"602.499 0 LINE",
"602.499 72.864 LINE"
);
},
{
closed = 1;
nodes = (
"664.443 0 LINE",
"665.443 610 LINE SMOOTH",
"665.639 730 OFFCURVE",
"694.636 791 OFFCURVE",
"753.805 822 CURVE",
"748.805 831 LINE",
"657.396 810 OFFCURVE",
"600.645 762 OFFCURVE",
"600.396 610 CURVE SMOOTH",
"599.396 0 LINE"
);
},
{
closed = 1;
nodes = (
"661.704 0 LINE",
"741.479 0 LINE",
"741.317 10 LINE",
"741.16 10 OFFCURVE",
"728.819 9.98 OFFCURVE",
"728.667 9.98 CURVE SMOOTH",
"693.666 9.98 OFFCURVE",
"665.269 38.03 OFFCURVE",
"664.613 72.864 CURVE",
"661.704 72.864 LINE"
);
}
);
width = 816;
},
{
layerId = "29CFC173-9C98-4BE1-970A-002FF3BCF672";
paths = (
{
closed = 1;
nodes = (
"42.268 538.11 LINE",
"42.268 488.11 LINE",
"853.012 488.11 LINE",
"853.012 538.11 LINE"
);
},
{
closed = 1;
nodes = (
"109.791 700.06 LINE",
"30.016 700.06 LINE",
"30.178 690.06 LINE",
"32 690 OFFCURVE",
"41 690 OFFCURVE",
"43 690 CURVE SMOOTH",
"77.829 690.08 OFFCURVE",
"106.226 662.03 OFFCURVE",
"106.882 627.196 CURVE",
"109.791 627.196 LINE"
);
},
{
closed = 1;
nodes = (
"106.861 700 LINE",
"106.861 70 LINE SMOOTH",
"106.861 -30 OFFCURVE",
"105.168 -121 OFFCURVE",
"-24 -172 CURVE",
"-24 -182 LINE",
"221.408 -258 OFFCURVE",
"311.959 -82 OFFCURVE",
"311.959 70 CURVE SMOOTH",
"311.959 700 LINE"
);
},
{
closed = 1;
nodes = (
"311.905 627.196 LINE",
"313 664 OFFCURVE",
"342 690 OFFCURVE",
"375.959 690.08 CURVE SMOOTH",
"378 690 OFFCURVE",
"387 690 OFFCURVE",
"388.609 690.06 CURVE",
"388.771 700.06 LINE",
"308.996 700.06 LINE",
"308.996 627.196 LINE"
);
},
{
closed = 1;
nodes = (
"301.574 375 LINE",
"301.574 325 LINE",
"590.318 325 LINE",
"590.318 375 LINE"
);
},
{
closed = 1;
nodes = (
"579.51 72.864 LINE",
"578.855 38.029 OFFCURVE",
"550.458 9.979 OFFCURVE",
"515.456 9.979 CURVE SMOOTH",
"513 10 OFFCURVE",
"505 10 OFFCURVE",
"502.806 10 CURVE",
"502.645 0 LINE",
"582.42 0 LINE",
"582.42 72.864 LINE"
);
},
{
closed = 1;
nodes = (
"784.443 0 LINE",
"785.443 610 LINE SMOOTH",
"785.591 700 OFFCURVE",
"784.636 812 OFFCURVE",
"913.805 852 CURVE",
"913.805 862 LINE",
"712.396 911 OFFCURVE",
"580.645 762 OFFCURVE",
"580.396 610 CURVE SMOOTH",
"579.396 0 LINE"
);
},
{
closed = 1;
nodes = (
"781.694 0 LINE",
"861.469 0 LINE",
"861.308 10 LINE",
"859 10 OFFCURVE",
"851 10 OFFCURVE",
"848.658 9.979 CURVE SMOOTH",
"812 10 OFFCURVE",
"785 40 OFFCURVE",
"784.604 72.864 CURVE",
"781.694 72.864 LINE"
);
}
);
width = 893;
}
);
leftKerningGroup = H;
leftMetricsKey = H;
rightKerningGroup = H;
rightMetricsKey = H;
unicode = 0126;
},
{
glyphname = I;
lastChange = "2012-05-05 22:30:24 +0000";
layers = (
{
anchors = (
{
name = ogonek;
position = "{290.135, 3}";
},
{
name = top;
position = "{288.393, 764}";
}
);
layerId = "29CFC173-9C98-4BE1-970A-002FF3BCF672";
paths = (
{
closed = 1;
nodes = (
"186.96 690 LINE",
"186.96 0 LINE",
"392.007 0 LINE",
"392.007 700 LINE"
);
},
{
closed = 1;
nodes = (
"186.952 72.864 LINE",
"186.297 38.029 OFFCURVE",
"157.9 9.979 OFFCURVE",
"122.898 9.979 CURVE SMOOTH",
"122.746 9.979 OFFCURVE",
"110.405 10 OFFCURVE",
"110.248 10 CURVE",
"110.087 0 LINE",
"189.862 0 LINE",
"189.862 72.864 LINE"
);
},
{
closed = 1;
nodes = (
"389.099 0 LINE",
"468.874 0 LINE",
"468.713 10 LINE",
"468.556 10 OFFCURVE",
"456.215 9.979 OFFCURVE",
"456.063 9.979 CURVE SMOOTH",
"421.061 9.979 OFFCURVE",
"392.664 38.029 OFFCURVE",
"392.009 72.864 CURVE",
"389.099 72.864 LINE"
);
},
{
closed = 1;
nodes = (
"374.087 702 OFFCURVE",
"179.271 699.19 OFFCURVE",
"109.087 696 CURVE SMOOTH",
"-1 691 OFFCURVE",
"-38 641.871 OFFCURVE",
"-40 591 CURVE SMOOTH",
"-43 518.81 OFFCURVE",
"32.087 479 OFFCURVE",
"88.732 511.398 CURVE",
"88.732 517.205 LINE",
"37.087 512 OFFCURVE",
"7.087 544 OFFCURVE",
"10.087 585 CURVE SMOOTH",
"14.087 627 OFFCURVE",
"44.087 644.925 OFFCURVE",
"100.01 646.865 CURVE SMOOTH",
"389.03 656.865 LINE",
"389.03 607.196 LINE",
"391.939 607.196 LINE",
"391.939 668.867 OFFCURVE",
"409.686 700.42 OFFCURVE",
"470.643 710.06 CURVE",
"468.805 720.06 LINE"
);
}
);
width = 498;
},
{
anchors = (
{
name = ogonek;
position = "{138.048, 3}";
},
{
name = top;
position = "{169.306, 764}";
}
);
associatedMasterId = "A24B85EF-CA04-493E-A47C-A7B61068A6D7";
layerId = "2D9069E3-B670-4196-A64B-2F2E9E23984F";
name = "Regular Apr 19 12, 18:41";
paths = (
{
closed = 1;
nodes = (
"136.873 700 LINE",
"136.873 0 LINE",
"201.92 0 LINE",
"201.92 700 LINE"
);
},
{
closed = 1;
nodes = (
"136.865 72.864 LINE",
"136.21 38.029 OFFCURVE",
"107.813 9.979 OFFCURVE",
"72.811 9.979 CURVE SMOOTH",
"72.659 9.979 OFFCURVE",
"60.318 10 OFFCURVE",
"60.161 10 CURVE",
"60 0 LINE",
"139.775 0 LINE",
"139.775 72.864 LINE"
);
},
{
closed = 1;
nodes = (
"139.791 700.06 LINE",
"60.016 700.06 LINE",
"60.178 690.06 LINE",
"60.335 690.06 OFFCURVE",
"72.676 690.08 OFFCURVE",
"72.828 690.08 CURVE SMOOTH",
"107.829 690.08 OFFCURVE",
"136.226 662.03 OFFCURVE",
"136.882 627.196 CURVE",
"139.791 627.196 LINE"
);
},
{
closed = 1;
nodes = (
"199.012 0 LINE",
"278.787 0 LINE",
"278.626 10 LINE",
"278.469 10 OFFCURVE",
"266.128 9.979 OFFCURVE",
"265.976 9.979 CURVE SMOOTH",
"230.974 9.979 OFFCURVE",
"202.577 38.029 OFFCURVE",
"201.922 72.864 CURVE",
"199.012 72.864 LINE"
);
},
{
closed = 1;
nodes = (
"201.905 627.196 LINE",
"202.561 662.03 OFFCURVE",
"230.958 690.08 OFFCURVE",
"265.959 690.08 CURVE SMOOTH",
"266.111 690.08 OFFCURVE",
"278.452 690.06 OFFCURVE",
"278.609 690.06 CURVE",
"278.771 700.06 LINE",
"198.996 700.06 LINE",
"198.996 627.196 LINE"
);
}
);
width = 338;
},
{
anchors = (
{
name = ogonek;
position = "{193.11, 3}";
},
{
name = top;
position = "{224.368, 764}";
}
);
layerId = "A24B85EF-CA04-493E-A47C-A7B61068A6D7";
paths = (
{
closed = 1;
nodes = (
"191.935 700 LINE",
"191.935 0 LINE",
"256.982 0 LINE",
"256.982 700 LINE"
);
},
{
closed = 1;
nodes = (
"191.927 72.864 LINE",
"191.272 38.029 OFFCURVE",
"162.875 9.979 OFFCURVE",
"127.873 9.979 CURVE SMOOTH",
"127.721 9.979 OFFCURVE",
"115.38 10 OFFCURVE",
"115.223 10 CURVE",
"115.062 0 LINE",
"194.837 0 LINE",
"194.837 72.864 LINE"
);
},
{
closed = 1;
nodes = (
"254.074 0 LINE",
"333.849 0 LINE",
"333.688 10 LINE",
"333.531 10 OFFCURVE",
"321.19 9.979 OFFCURVE",
"321.038 9.979 CURVE SMOOTH",
"286.036 9.979 OFFCURVE",
"257.639 38.029 OFFCURVE",
"256.984 72.864 CURVE",
"254.074 72.864 LINE"
);
},
{
closed = 1;
nodes = (
"239.062 702 OFFCURVE",
"136.041 702.193 OFFCURVE",
"79.061 696 CURVE SMOOTH",
"-13 686 OFFCURVE",
"-48 648 OFFCURVE",
"-50 601 CURVE SMOOTH",
"-52 546.966 OFFCURVE",
"-5 505 OFFCURVE",
"56.686 521.398 CURVE",
"56.603 527.205 LINE",
"4.062 529 OFFCURVE",
"-19 560.782 OFFCURVE",
"-16 601 CURVE SMOOTH",
"-13 645 OFFCURVE",
"25.061 663.325 OFFCURVE",
"84.923 666.865 CURVE SMOOTH",
"254.058 676.865 LINE",
"254.058 617.196 LINE",
"256.967 617.196 LINE",
"256.967 668.867 OFFCURVE",
"274.714 700.42 OFFCURVE",
"335.671 710.06 CURVE",
"333.833 720.06 LINE"
);
}
);
width = 393;
}
);
leftKerningGroup = I;
rightKerningGroup = H;
unicode = 0049;
},
{
glyphname = J;
lastChange = "2012-05-03 15:16:54 +0000";
layers = (
{
anchors = (
{
name = top;
position = "{171, 700}";
}
);
layerId = "A24B85EF-CA04-493E-A47C-A7B61068A6D7";
paths = (
{
closed = 1;
nodes = (
"136.961 699.742 LINE",
"136.961 82.923 LINE SMOOTH",
"136.961 -142 OFFCURVE",
"-6 -160 OFFCURVE",
"-80 -135 CURVE",
"-84 -146 LINE",
"6.649 -188 OFFCURVE",
"202.163 -160 OFFCURVE",
"202.163 80.099 CURVE SMOOTH",
"202.163 700 LINE"
);
},
{
closed = 1;
nodes = (
"139.86 700.06 LINE",
"60.085 700.06 LINE",
"60.247 690.06 LINE",
"60.404 690.06 OFFCURVE",
"72.745 690.08 OFFCURVE",
"72.897 690.08 CURVE SMOOTH",
"107.898 690.08 OFFCURVE",
"136.295 662.03 OFFCURVE",
"136.951 627.196 CURVE",
"139.86 627.196 LINE"
);
},
{
closed = 1;
nodes = (
"202.158 627.196 LINE",
"202.814 662.03 OFFCURVE",
"231.211 690.08 OFFCURVE",
"266.212 690.08 CURVE SMOOTH",
"266.364 690.08 OFFCURVE",
"278.705 690.06 OFFCURVE",
"278.862 690.06 CURVE",
"279.024 700.06 LINE",
"199.249 700.06 LINE",
"199.249 627.196 LINE"
);
}
);
width = 339;
},
{
anchors = (
{
name = top;
position = "{209, 764}";
}
);
layerId = "29CFC173-9C98-4BE1-970A-002FF3BCF672";
paths = (
{
closed = 1;
nodes = (
"111.961 699.742 LINE",
"111.961 82.923 LINE SMOOTH",
"111.961 -13 OFFCURVE",
"94.459 -187 OFFCURVE",
"-73 -161 CURVE",
"-75 -170 LINE",
"177.744 -311 OFFCURVE",
"317.163 -130 OFFCURVE",
"317.163 80.099 CURVE SMOOTH",
"317.163 700 LINE"
);
},
{
closed = 1;
nodes = (
"114.86 700.06 LINE",
"35.085 700.06 LINE",
"35.247 690.06 LINE",
"35.404 690.06 OFFCURVE",
"47.745 690.08 OFFCURVE",
"47.897 690.08 CURVE SMOOTH",
"82.898 690.08 OFFCURVE",
"111.295 662.03 OFFCURVE",
"111.951 627.196 CURVE",
"114.86 627.196 LINE"
);
},
{
closed = 1;
nodes = (
"317.158 627.196 LINE",
"317.814 662.03 OFFCURVE",
"346.211 690.08 OFFCURVE",
"381.212 690.08 CURVE SMOOTH",
"381.364 690.08 OFFCURVE",
"393.705 690.06 OFFCURVE",
"393.862 690.06 CURVE",
"394.024 700.06 LINE",
"314.249 700.06 LINE",
"314.249 627.196 LINE"
);
}
);
width = 424;
}
);
leftKerningGroup = J;
rightKerningGroup = J;
unicode = 004A;
},
{
glyphname = K;
lastChange = "2012-05-04 12:03:28 +0000";
layers = (
{
anchors = (
{
name = bottom;
position = "{391.306, -64}";
},
{
name = top;
position = "{361.306, 750}";
}
);
layerId = "A24B85EF-CA04-493E-A47C-A7B61068A6D7";
paths = (
{
closed = 1;
nodes = (
"234.077 348.182 LINE",
"565.417 -5 LINE SMOOTH",
"743.015 -194 OFFCURVE",
"892.915 -175 OFFCURVE",
"959.141 -160 CURVE",
"959.141 -150 LINE",
"836.159 -150 OFFCURVE",
"722.016 -74 OFFCURVE",
"642.143 11.619 CURVE SMOOTH",
"288.648 389.286 LINE"
);
},
{
closed = 1;
nodes = (
"509.047 692.968 LINE",
"234.077 348.182 LINE",
"278.81 348.182 LINE",
"577.581 692.968 LINE"
);
},
{
closed = 1;
nodes = (
"643.033 700 LINE",
"436.186 700 LINE",
"436.186 691.157 LINE",
"445.85 691.164 LINE",
"473.477 691.164 OFFCURVE",
"487.087 665.949 OFFCURVE",
"469.644 643.547 CURVE",
"533.086 641.63 LINE",
"558.857 672.062 OFFCURVE",
"598.886 690.881 OFFCURVE",
"643.033 690.98 CURVE SMOOTH",
"647.413 690.98 LINE",
"647.413 700 LINE"
);
},
{
closed = 1;
nodes = (
"136.873 700 LINE",
"136.873 0 LINE",
"201.92 0 LINE",
"201.92 700 LINE"
);
},
{
closed = 1;
nodes = (
"136.865 72.864 LINE",
"136.21 38.029 OFFCURVE",
"107.813 9.979 OFFCURVE",
"72.811 9.979 CURVE SMOOTH",
"72.659 9.979 OFFCURVE",
"60.318 10 OFFCURVE",
"60.161 10 CURVE",
"60 0 LINE",
"139.775 0 LINE",
"139.775 72.864 LINE"
);
},
{
closed = 1;
nodes = (
"139.791 700.06 LINE",
"60.016 700.06 LINE",
"60.178 690.06 LINE",
"60.335 690.06 OFFCURVE",
"72.676 690.08 OFFCURVE",
"72.828 690.08 CURVE SMOOTH",
"107.829 690.08 OFFCURVE",
"136.226 662.03 OFFCURVE",
"136.882 627.196 CURVE",
"139.791 627.196 LINE"
);
},
{
closed = 1;
nodes = (
"199.012 0 LINE",
"278.787 0 LINE",
"278.626 10 LINE",
"278.469 10 OFFCURVE",
"266.128 9.979 OFFCURVE",
"265.976 9.979 CURVE SMOOTH",
"230.974 9.979 OFFCURVE",
"202.577 38.029 OFFCURVE",
"201.922 72.864 CURVE",
"199.012 72.864 LINE"
);
},
{
closed = 1;
nodes = (
"201.905 627.196 LINE",
"202.561 662.03 OFFCURVE",
"230.958 690.08 OFFCURVE",
"265.959 690.08 CURVE SMOOTH",
"266.111 690.08 OFFCURVE",
"278.452 690.06 OFFCURVE",
"278.609 690.06 CURVE",
"278.771 700.06 LINE",
"198.996 700.06 LINE",
"198.996 627.196 LINE"
);
}
);
width = 669;
},
{
anchors = (
{
name = bottom;
position = "{470, 0}";
},
{
name = top;
position = "{465, 700}";
}
);
layerId = "29CFC173-9C98-4BE1-970A-002FF3BCF672";
paths = (
{
closed = 1;
nodes = (
"344.077 318.182 LINE",
"563.89 13.198 LINE SMOOTH",
"720.768 -204 OFFCURVE",
"879.562 -305 OFFCURVE",
"1105.19 -177 CURVE",
"1103.19 -166 LINE",
"966.68 -155 OFFCURVE",
"880.483 -92 OFFCURVE",
"734.054 113.193 CURVE SMOOTH",
"482.636 465.431 LINE"
);
},
{
closed = 1;
nodes = (
"619.047 692.968 LINE",
"344.077 318.182 LINE",
"416.81 328.182 LINE",
"718.581 692.968 LINE"
);
},
{
closed = 1;
nodes = (
"786.055 700 LINE",
"549.336 700 LINE",
"549.336 691.157 LINE",
"559 691.164 LINE",
"586.627 691.164 OFFCURVE",
"599.237 665.949 OFFCURVE",
"582.794 643.547 CURVE",
"676.108 641.63 LINE",
"701.879 671.062 OFFCURVE",
"741.908 690.881 OFFCURVE",
"786.055 690.98 CURVE SMOOTH",
"790.435 690.98 LINE",
"790.435 700 LINE"
);
},
{
closed = 1;
nodes = (
"106.873 700 LINE",
"106.873 0 LINE",
"311.92 0 LINE",
"311.92 700 LINE"
);
},
{
closed = 1;
nodes = (
"106.865 72.864 LINE",
"106.21 38.029 OFFCURVE",
"77.813 9.979 OFFCURVE",
"42.811 9.979 CURVE SMOOTH",
"41 10 OFFCURVE",
"32 10 OFFCURVE",
"30.161 10 CURVE",
"30 0 LINE",
"109.775 0 LINE",
"109.775 72.864 LINE"
);
},
{
closed = 1;
nodes = (
"109.791 700.06 LINE",
"30.016 700.06 LINE",
"30.178 690.06 LINE",
"32 690 OFFCURVE",
"41 690 OFFCURVE",
"43 690 CURVE SMOOTH",
"77.829 690.08 OFFCURVE",
"106.226 662.03 OFFCURVE",
"106.882 627.196 CURVE",
"109.791 627.196 LINE"
);
},
{
closed = 1;
nodes = (
"309.012 0 LINE",
"388.787 0 LINE",
"388.626 10 LINE",
"387 10 OFFCURVE",
"378 10 OFFCURVE",
"376 10 CURVE SMOOTH",
"340.974 9.979 OFFCURVE",
"312.577 38.029 OFFCURVE",
"311.922 72.864 CURVE",
"309.012 72.864 LINE"
);
},
{
closed = 1;
nodes = (
"311.905 627.196 LINE",
"312.561 662.03 OFFCURVE",
"340.958 690.08 OFFCURVE",
"375.959 690.08 CURVE SMOOTH",
"378 690 OFFCURVE",
"387 690 OFFCURVE",
"388.609 690.06 CURVE",
"388.771 700.06 LINE",
"308.996 700.06 LINE",
"308.996 627.196 LINE"
);
}
);
width = 822;
}
);
leftKerningGroup = H;
rightKerningGroup = K;
unicode = 004B;
},
{
glyphname = L;
lastChange = "2012-05-03 22:49:37 +0000";
layers = (
{
anchors = (
{
name = bottom;
position = "{237.331, -110}";
},
{
name = top;
position = "{169.562, 764}";
}
);
layerId = "A24B85EF-CA04-493E-A47C-A7B61068A6D7";
paths = (
{
closed = 1;
nodes = (
"139.775 699.941 LINE",
"60 699.941 LINE",
"60.162 689.941 LINE",
"60.319 689.941 OFFCURVE",
"72.66 689.961 OFFCURVE",
"72.812 689.961 CURVE SMOOTH",
"107.813 689.961 OFFCURVE",
"136.21 661.911 OFFCURVE",
"136.866 627.077 CURVE",
"139.775 627.077 LINE"
);
},
{
closed = 1;
nodes = (
"201.915 627.077 LINE",
"202.571 661.911 OFFCURVE",
"230.968 689.961 OFFCURVE",
"265.969 689.961 CURVE SMOOTH",
"266.121 689.961 OFFCURVE",
"278.462 689.941 OFFCURVE",
"278.619 689.941 CURVE",
"278.781 699.941 LINE",
"199.006 699.941 LINE",
"199.006 627.077 LINE"
);
},
{
closed = 1;
nodes = (
"921.213 -111 LINE",
"756 -174 OFFCURVE",
"658.335 -161 OFFCURVE",
"250 -19 CURVE SMOOTH",
"202.807 -3 OFFCURVE",
"202 22 OFFCURVE",
"201.915 49.663 CURVE SMOOTH",
"201.915 700 LINE",
"136.885 700 LINE",
"136.885 72.864 LINE SMOOTH",
"136 37 OFFCURVE",
"107 10 OFFCURVE",
"73 10 CURVE SMOOTH",
"71 10 OFFCURVE",
"62 10 OFFCURVE",
"60.176 10 CURVE",
"60.015 0 LINE",
"117.318 -1 OFFCURVE",
"175.847 -22 OFFCURVE",
"236.311 -49 CURVE SMOOTH",
"436.484 -138 OFFCURVE",
"657.871 -304 OFFCURVE",
"926.212 -119 CURVE"
);
}
);
width = 401;
},
{
anchors = (
{
name = bottom;
position = "{273.796, -114}";
},
{
name = top;
position = "{210, 764}";
}
);
layerId = "29CFC173-9C98-4BE1-970A-002FF3BCF672";
paths = (
{
closed = 1;
nodes = (
"109.776 700.06 LINE",
"30 700.06 LINE",
"30.163 690.06 LINE",
"32 690 OFFCURVE",
"41 690 OFFCURVE",
"43 690 CURVE SMOOTH",
"77 690 OFFCURVE",
"106 663 OFFCURVE",
"106.867 627.196 CURVE",
"109.776 627.196 LINE"
);
},
{
closed = 1;
nodes = (
"311.937 627.196 LINE",
"313 663 OFFCURVE",
"341 690 OFFCURVE",
"380 690 CURVE SMOOTH",
"382 690 OFFCURVE",
"387 690 OFFCURVE",
"388.641 690.06 CURVE",
"388.803 700.06 LINE",
"309.028 700.06 LINE",
"309.028 627.196 LINE"
);
},
{
closed = 1;
nodes = (
"1087.31 -90 LINE",
"973.485 -191 OFFCURVE",
"610 -94 OFFCURVE",
"350 -14 CURVE SMOOTH",
"327.626 -7 OFFCURVE",
"312 9 OFFCURVE",
"311.901 44.922 CURVE",
"311.901 700 LINE",
"106.869 700 LINE",
"106.869 72.864 LINE SMOOTH",
"106 37 OFFCURVE",
"77 10 OFFCURVE",
"43 10 CURVE SMOOTH",
"41 10 OFFCURVE",
"32 10 OFFCURVE",
"30.161 10 CURVE",
"30 0 LINE",
"155 0 OFFCURVE",
"239.986 -40 OFFCURVE",
"307 -74 CURVE SMOOTH",
"504 -174 OFFCURVE",
"936 -439 OFFCURVE",
"1095.31 -97 CURVE"
);
}
);
width = 445;
}
);
leftKerningGroup = H;
rightKerningGroup = L;
unicode = 004C;
},
{
glyphname = Lcaron;
lastChange = "2012-05-04 12:07:28 +0000";
layers = (
{
anchors = (
{
name = bottom;
position = "{237.331, -110}";
}
);
layerId = "A24B85EF-CA04-493E-A47C-A7B61068A6D7";
paths = (
{
closed = 1;
nodes = (
"361.437 668.085 OFFCURVE",
"378.347 654.081 OFFCURVE",
"388.77 641.607 CURVE SMOOTH",
"402.451 625.177 OFFCURVE",
"410.413 583.855 OFFCURVE",
"361.772 568.152 CURVE",
"363.723 561.541 LINE",
"416.004 563.194 OFFCURVE",
"459.066 618.566 OFFCURVE",
"433.072 680.9 CURVE SMOOTH",
"419.542 713.247 OFFCURVE",
"380.593 711.6 OFFCURVE",
"370.399 688.442 CURVE SMOOTH"
);
},
{
closed = 1;
nodes = (
"139.775 699.941 LINE",
"60 699.941 LINE",
"60.162 689.941 LINE",
"60.319 689.941 OFFCURVE",
"72.66 689.961 OFFCURVE",
"72.812 689.961 CURVE SMOOTH",
"107.813 689.961 OFFCURVE",
"136.21 661.911 OFFCURVE",
"136.866 627.077 CURVE",
"139.775 627.077 LINE"
);
},
{
closed = 1;
nodes = (
"201.915 627.077 LINE",
"202.571 661.911 OFFCURVE",
"230.968 689.961 OFFCURVE",
"265.969 689.961 CURVE SMOOTH",
"266.121 689.961 OFFCURVE",
"278.462 689.941 OFFCURVE",
"278.619 689.941 CURVE",
"278.781 699.941 LINE",
"199.006 699.941 LINE",
"199.006 627.077 LINE"
);
},
{
closed = 1;
nodes = (
"921.213 -111 LINE",
"756 -174 OFFCURVE",
"658.335 -161 OFFCURVE",
"250 -19 CURVE SMOOTH",
"202.807 -3 OFFCURVE",
"202 22 OFFCURVE",
"201.915 49.664 CURVE SMOOTH",
"201.915 700 LINE",
"136.885 700 LINE",
"136.885 72.864 LINE SMOOTH",
"136 37 OFFCURVE",
"107 10 OFFCURVE",
"73 10 CURVE SMOOTH",
"71 10 OFFCURVE",
"62 10 OFFCURVE",
"60.176 10 CURVE",
"60.015 0 LINE",
"117.318 -1 OFFCURVE",
"175.847 -22 OFFCURVE",
"236.311 -49 CURVE SMOOTH",
"436.484 -138 OFFCURVE",
"657.871 -304 OFFCURVE",
"926.212 -119 CURVE"
);
}
);
width = 401;
},
{
anchors = (
{
name = bottom;
position = "{273.796, -114}";
}
);
layerId = "29CFC173-9C98-4BE1-970A-002FF3BCF672";
paths = (
{
closed = 1;
nodes = (
"423.141 677.266 OFFCURVE",
"418.825 628.266 OFFCURVE",
"444.461 599.266 CURVE SMOOTH",
"482.127 557.266 OFFCURVE",
"457.253 520.266 OFFCURVE",
"431.601 509.266 CURVE",
"434.335 500.266 LINE",
"519.793 483.266 OFFCURVE",
"590.151 584.266 OFFCURVE",
"551.774 668.266 CURVE SMOOTH",
"534.007 707.266 OFFCURVE",
"482.838 720.984 OFFCURVE",
"450.857 697.266 CURVE SMOOTH"
);
},
{
closed = 1;
nodes = (
"109.776 700.06 LINE",
"30 700.06 LINE",
"30.163 690.06 LINE",
"32 690 OFFCURVE",
"41 690 OFFCURVE",
"42.813 690.08 CURVE SMOOTH",
"77 690 OFFCURVE",
"106 663 OFFCURVE",
"106.867 627.196 CURVE",
"109.776 627.196 LINE"
);
},
{
closed = 1;
nodes = (
"311.937 627.196 LINE",
"313 663 OFFCURVE",
"341 690 OFFCURVE",
"375.991 690.08 CURVE SMOOTH",
"378 690 OFFCURVE",
"387 690 OFFCURVE",
"388.641 690.06 CURVE",
"388.803 700.06 LINE",
"309.028 700.06 LINE",
"309.028 627.196 LINE"
);
},
{
closed = 1;
nodes = (
"1087.31 -90 LINE",
"871.717 -172 OFFCURVE",
"804.482 -165 OFFCURVE",
"350 -14 CURVE SMOOTH",
"320.415 -4 OFFCURVE",
"311.901 12.964 OFFCURVE",
"311.901 54.922 CURVE",
"311.901 700 LINE",
"106.869 700 LINE",
"106.869 72.864 LINE SMOOTH",
"106.21 38.029 OFFCURVE",
"77.813 9.979 OFFCURVE",
"42.811 9.979 CURVE SMOOTH",
"41 10 OFFCURVE",
"32 10 OFFCURVE",
"30.161 10 CURVE",
"30 0 LINE",
"154.194 0 OFFCURVE",
"241.694 -22 OFFCURVE",
"324.289 -60 CURVE SMOOTH",
"574.748 -173 OFFCURVE",
"921.847 -401 OFFCURVE",
"1095.31 -97 CURVE"
);
}
);
width = 545;
}
);
leftKerningGroup = H;
leftMetricsKey = L;
rightKerningGroup = L;
unicode = 013D;
},
{
glyphname = Ldot;
lastChange = "2012-05-04 12:06:54 +0000";
layers = (
{
anchors = (
{
name = bottom;
position = "{237.331, -110}";
}
);
layerId = "A24B85EF-CA04-493E-A47C-A7B61068A6D7";
paths = (
{
closed = 1;
nodes = (
"359.276 403 OFFCURVE",
"379.423 423.147 OFFCURVE",
"379.423 448 CURVE SMOOTH",
"379.423 472.853 OFFCURVE",
"359.276 493 OFFCURVE",
"334.423 493 CURVE SMOOTH",
"309.57 493 OFFCURVE",
"289.423 472.853 OFFCURVE",
"289.423 448 CURVE SMOOTH",
"289.423 423.147 OFFCURVE",
"309.57 403 OFFCURVE",
"334.423 403 CURVE SMOOTH"
);
},
{
closed = 1;
nodes = (
"139.775 699.941 LINE",
"60 699.941 LINE",
"60.162 689.941 LINE",
"60.319 689.941 OFFCURVE",
"72.66 689.961 OFFCURVE",
"72.812 689.961 CURVE SMOOTH",
"107.813 689.961 OFFCURVE",
"136.21 661.911 OFFCURVE",
"136.866 627.077 CURVE",
"139.775 627.077 LINE"
);
},
{
closed = 1;
nodes = (
"201.915 627.077 LINE",
"202.571 661.911 OFFCURVE",
"230.968 689.961 OFFCURVE",
"265.969 689.961 CURVE SMOOTH",
"266.121 689.961 OFFCURVE",
"278.462 689.941 OFFCURVE",
"278.619 689.941 CURVE",
"278.781 699.941 LINE",
"199.006 699.941 LINE",
"199.006 627.077 LINE"
);
},
{
closed = 1;
nodes = (
"921.213 -111 LINE",
"756 -174 OFFCURVE",
"658.335 -161 OFFCURVE",
"250 -19 CURVE SMOOTH",
"202.807 -3 OFFCURVE",
"202 22 OFFCURVE",
"201.915 49.664 CURVE SMOOTH",
"201.915 700 LINE",
"136.885 700 LINE",
"136.885 72.864 LINE SMOOTH",
"136 37 OFFCURVE",
"107 10 OFFCURVE",
"73 10 CURVE SMOOTH",
"71 10 OFFCURVE",
"62 10 OFFCURVE",
"60.176 10 CURVE",
"60.015 0 LINE",
"117.318 -1 OFFCURVE",
"175.847 -22 OFFCURVE",
"236.311 -49 CURVE SMOOTH",
"436.484 -138 OFFCURVE",
"657.871 -304 OFFCURVE",
"926.212 -119 CURVE"
);
}
);
width = 476;
},
{
anchors = (
{
name = bottom;
position = "{273.796, -114}";
}
);
layerId = "29CFC173-9C98-4BE1-970A-002FF3BCF672";
paths = (
{
closed = 1;
nodes = (
"509.46 327.511 OFFCURVE",
"542.449 360.499 OFFCURVE",
"542.449 401.198 CURVE SMOOTH",
"542.449 441.896 OFFCURVE",
"509.46 474.887 OFFCURVE",
"468.762 474.887 CURVE SMOOTH",
"428.063 474.887 OFFCURVE",
"395.075 441.896 OFFCURVE",
"395.075 401.198 CURVE SMOOTH",
"395.075 360.499 OFFCURVE",
"428.063 327.511 OFFCURVE",
"468.762 327.511 CURVE SMOOTH"
);
},
{
closed = 1;
nodes = (
"109.776 700.06 LINE",
"30 700.06 LINE",
"30.163 690.06 LINE",
"32 690 OFFCURVE",
"41 690 OFFCURVE",
"42.813 690.08 CURVE SMOOTH",
"77 690 OFFCURVE",
"106 663 OFFCURVE",
"106.867 627.196 CURVE",
"109.776 627.196 LINE"
);
},
{
closed = 1;
nodes = (
"311.937 627.196 LINE",
"313 663 OFFCURVE",
"341 690 OFFCURVE",
"375.991 690.08 CURVE SMOOTH",
"378 690 OFFCURVE",
"387 690 OFFCURVE",
"388.641 690.06 CURVE",
"388.803 700.06 LINE",
"309.028 700.06 LINE",
"309.028 627.196 LINE"
);
},
{
closed = 1;
nodes = (
"1087.31 -90 LINE",
"871.717 -172 OFFCURVE",
"804.482 -165 OFFCURVE",
"350 -14 CURVE SMOOTH",
"320.415 -4 OFFCURVE",
"311.901 12.964 OFFCURVE",
"311.901 54.922 CURVE",
"311.901 700 LINE",
"106.869 700 LINE",
"106.869 72.864 LINE SMOOTH",
"106.21 38.029 OFFCURVE",
"77.813 9.979 OFFCURVE",
"42.811 9.979 CURVE SMOOTH",
"41 10 OFFCURVE",
"32 10 OFFCURVE",
"30.161 10 CURVE",
"30 0 LINE",
"154.194 0 OFFCURVE",
"241.694 -22 OFFCURVE",
"324.289 -60 CURVE SMOOTH",
"574.748 -173 OFFCURVE",
"921.847 -401 OFFCURVE",
"1095.31 -97 CURVE"
);
}
);
width = 595;
}
);
leftKerningGroup = H;
leftMetricsKey = L;
rightKerningGroup = L;
unicode = 013F;
},
{
glyphname = Lslash;
lastChange = "2012-05-04 12:07:47 +0000";
layers = (
{
anchors = (
{
name = bottom;
position = "{237.331, -110}";
}
);
layerId = "A24B85EF-CA04-493E-A47C-A7B61068A6D7";
paths = (
{
closed = 1;
nodes = (
"75.021 247.779 LINE",
"383.547 426.252 LINE",
"368.526 452.221 LINE",
"60 273.748 LINE"
);
},
{
closed = 1;
nodes = (
"139.775 699.941 LINE",
"60 699.941 LINE",
"60.162 689.941 LINE",
"60.319 689.941 OFFCURVE",
"72.66 689.961 OFFCURVE",
"72.812 689.961 CURVE SMOOTH",
"107.813 689.961 OFFCURVE",
"136.21 661.911 OFFCURVE",
"136.866 627.077 CURVE",
"139.775 627.077 LINE"
);
},
{
closed = 1;
nodes = (
"201.915 627.077 LINE",
"202.571 661.911 OFFCURVE",
"230.968 689.961 OFFCURVE",
"265.969 689.961 CURVE SMOOTH",
"266.121 689.961 OFFCURVE",
"278.462 689.941 OFFCURVE",
"278.619 689.941 CURVE",
"278.781 699.941 LINE",
"199.006 699.941 LINE",
"199.006 627.077 LINE"
);
},
{
closed = 1;
nodes = (
"921.213 -111 LINE",
"756 -174 OFFCURVE",
"658.335 -161 OFFCURVE",
"250 -19 CURVE SMOOTH",
"202.807 -3 OFFCURVE",
"202 22 OFFCURVE",
"201.915 49.664 CURVE SMOOTH",
"201.915 700 LINE",
"136.885 700 LINE",
"136.885 72.864 LINE SMOOTH",
"136 37 OFFCURVE",
"107 10 OFFCURVE",
"73 10 CURVE SMOOTH",
"71 10 OFFCURVE",
"62 10 OFFCURVE",
"60.176 10 CURVE",
"60.015 0 LINE",
"117.318 -1 OFFCURVE",
"175.847 -22 OFFCURVE",
"236.311 -49 CURVE SMOOTH",
"436.484 -138 OFFCURVE",
"657.871 -304 OFFCURVE",
"926.212 -119 CURVE"
);
}
);
width = 443;
},
{
anchors = (
{
name = bottom;
position = "{286.058, -114}";
}
);
layerId = "29CFC173-9C98-4BE1-970A-002FF3BCF672";
paths = (
{
closed = 1;
nodes = (
"56.021 227.779 LINE",
"427.693 442.78 LINE",
"401.672 488.749 LINE",
"30 273.748 LINE"
);
},
{
closed = 1;
nodes = (
"122.038 700.06 LINE",
"42.262 700.06 LINE",
"42.425 690.06 LINE",
"44.262 690 OFFCURVE",
"53.262 690 OFFCURVE",
"55.075 690.08 CURVE SMOOTH",
"89.262 690 OFFCURVE",
"118.262 663 OFFCURVE",
"119.129 627.196 CURVE",
"122.038 627.196 LINE"
);
},
{
closed = 1;
nodes = (
"324.199 627.196 LINE",
"325.262 663 OFFCURVE",
"353.262 690 OFFCURVE",
"388.253 690.08 CURVE SMOOTH",
"390.262 690 OFFCURVE",
"399.262 690 OFFCURVE",
"400.903 690.06 CURVE",
"401.065 700.06 LINE",
"321.29 700.06 LINE",
"321.29 627.196 LINE"
);
},
{
closed = 1;
nodes = (
"1099.57 -90 LINE",
"883.979 -172 OFFCURVE",
"816.744 -165 OFFCURVE",
"362.262 -14 CURVE SMOOTH",
"332.677 -4 OFFCURVE",
"324.163 12.964 OFFCURVE",
"324.163 54.922 CURVE",
"324.163 700 LINE",
"119.131 700 LINE",
"119.131 72.864 LINE SMOOTH",
"118.472 38.029 OFFCURVE",
"90.075 9.979 OFFCURVE",
"55.073 9.979 CURVE SMOOTH",
"53.262 10 OFFCURVE",
"44.262 10 OFFCURVE",
"42.423 10 CURVE",
"42.262 0 LINE",
"166.456 0 OFFCURVE",
"253.956 -22 OFFCURVE",
"336.551 -60 CURVE SMOOTH",
"587.01 -173 OFFCURVE",
"934.109 -401 OFFCURVE",
"1107.57 -97 CURVE"
);
}
);
width = 477;
}
);
leftKerningGroup = H;
leftMetricsKey = L;
rightKerningGroup = L;
unicode = 0141;
},
{
glyphname = M;
lastChange = "2012-05-05 22:23:04 +0000";
layers = (
{
layerId = "A24B85EF-CA04-493E-A47C-A7B61068A6D7";
paths = (
{
closed = 1;
nodes = (
"443.898 48.95 LINE",
"458.15 -14 LINE",
"467.569 -14 LINE",
"474.023 27.387 OFFCURVE",
"501.886 88.11 OFFCURVE",
"501.886 88.11 CURVE",
"749.227 646.912 LINE",
"740.602 713.697 LINE"
);
},
{
closed = 1;
nodes = (
"104.211 72.645 LINE",
"99 33 OFFCURVE",
"67 10 OFFCURVE",
"31.328 9.991 CURVE SMOOTH",
"29 10 OFFCURVE",
"17 10 OFFCURVE",
"15.414 10 CURVE",
"15.414 0 LINE",
"125.623 0 LINE",
"125.623 72.645 LINE"
);
},
{
closed = 1;
nodes = (
"147.697 56.525 LINE",
"147.697 0 LINE",
"209.081 0 LINE",
"209.081 9.445 LINE",
"193.5 9.445 LINE SMOOTH",
"175 9 OFFCURVE",
"155 28 OFFCURVE",
"154.511 52.144 CURVE SMOOTH",
"155 56 OFFCURVE",
"154 53 OFFCURVE",
"154.771 56.525 CURVE"
);
},
{
closed = 1;
nodes = (
"95.698 0 LINE",
"149.672 0 LINE",
"208.663 654.713 LINE",
"172.222 658.096 LINE"
);
},
{
closed = 1;
nodes = (
"-67 787.904 LINE",
"75.508 806.116 OFFCURVE",
"148.695 658.117 OFFCURVE",
"187.163 574.567 CURVE SMOOTH",
"458.153 -14 LINE",
"481.016 90.642 LINE",
"230.569 632.819 LINE SMOOTH",
"198.993 701.177 OFFCURVE",
"103.69 836.386 OFFCURVE",
"-67 797.904 CURVE"
);
},
{
closed = 1;
nodes = (
"740.602 713.697 LINE",
"703.487 605.769 LINE",
"770.967 112.518 LINE SMOOTH",
"794.239 -58 OFFCURVE",
"907.512 -202 OFFCURVE",
"1111.82 -172 CURVE",
"1111.82 -162 LINE",
"972.612 -168 OFFCURVE",
"871.872 -65 OFFCURVE",
"842.665 121.574 CURVE SMOOTH",
"749.744 713.697 LINE"
);
}
);
width = 931;
},
{
guideLines = (
{
position = "{958.63, 352.798}";
}
);
layerId = "29CFC173-9C98-4BE1-970A-002FF3BCF672";
paths = (
{
closed = 1;
nodes = (
"394.594 78.95 LINE",
"450.846 -24 LINE",
"460.265 -24 LINE",
"458.323 29.387 OFFCURVE",
"501.582 92.11 OFFCURVE",
"501.582 92.11 CURVE",
"828.923 577.912 LINE",
"821.298 713.697 LINE"
);
},
{
closed = 1;
nodes = (
"82.15 72.645 LINE",
"76.02 33.113 OFFCURVE",
"45.017 9.991 OFFCURVE",
"9 9.991 CURVE SMOOTH",
"9 9.991 OFFCURVE",
"-6 10 OFFCURVE",
"-7 10 CURVE",
"-7 0 LINE",
"103.561 0 LINE",
"103.561 72.645 LINE"
);
},
{
closed = 1;
nodes = (
"150.701 56.525 LINE",
"150.701 0 LINE",
"212.085 0 LINE",
"212.085 9.445 LINE",
"196.504 9.445 LINE SMOOTH",
"174.96 9.49 OFFCURVE",
"157.515 30.59 OFFCURVE",
"157.515 52.145 CURVE SMOOTH",
"157.515 53.626 OFFCURVE",
"157.613 55.086 OFFCURVE",
"157.775 56.525 CURVE"
);
},
{
closed = 1;
nodes = (
"70.394 0 LINE",
"149.368 0 LINE",
"232.359 556.713 LINE",
"165.372 587.267 LINE"
);
},
{
closed = 1;
nodes = (
"-112 735.983 LINE",
"47.766 747.532 OFFCURVE",
"195.308 413.686 OFFCURVE",
"203.55 399.569 CURVE SMOOTH",
"450.849 -24 LINE",
"533.994 253.533 LINE",
"345.13 562.181 LINE SMOOTH",
"242.325 730.19 OFFCURVE",
"75.574 848.32 OFFCURVE",
"-115 745.983 CURVE"
);
},
{
closed = 1;
nodes = (
"821.298 713.697 LINE",
"668.875 364.946 LINE",
"718.583 134.654 LINE SMOOTH",
"787.692 -186 OFFCURVE",
"1017.99 -260 OFFCURVE",
"1193.52 -186 CURVE",
"1193.52 -176 LINE",
"1030.12 -186 OFFCURVE",
"974.142 -35 OFFCURVE",
"942.72 128.998 CURVE SMOOTH",
"830.44 713.697 LINE"
);
}
);
width = 993;
},
{
associatedMasterId = "A24B85EF-CA04-493E-A47C-A7B61068A6D7";
layerId = "51884456-EC0E-4DC2-A69E-F82E627ADB70";
name = "Regular Apr 17 12, 18:25";
paths = (
{
closed = 1;
nodes = (
"829.999 808.383 OFFCURVE",
"757.244 750.487 OFFCURVE",
"707.065 639.56 CURVE SMOOTH",
"439.898 48.95 LINE",
"454.15 -14 LINE",
"463.569 -14 LINE",
"470.023 27.387 OFFCURVE",
"497.886 88.109 OFFCURVE",
"497.886 88.109 CURVE",
"729.453 602.95 LINE SMOOTH",
"773.544 700.975 OFFCURVE",
"819.919 783.184 OFFCURVE",
"922.504 795.361 CURVE",
"922.504 805.361 LINE"
);
},
{
closed = 1;
nodes = (
"105.448 113.137 LINE SMOOTH",
"89.944 -13 OFFCURVE",
"53.172 -122 OFFCURVE",
"-74 -110 CURVE",
"-74 -120 LINE",
"94.559 -165 OFFCURVE",
"150.868 -33 OFFCURVE",
"163.44 116.216 CURVE SMOOTH",
"208.663 654.713 LINE",
"188.71 714 LINE",
"179.433 714 LINE"
);
},
{
closed = 1;
nodes = (
"170.355 601.692 LINE",
"454.153 -14 LINE",
"477.016 90.642 LINE",
"188.71 714 LINE"
);
},
{
closed = 1;
nodes = (
"722.139 652.439 LINE",
"703.487 605.769 LINE",
"758.232 0 LINE",
"836.177 0 LINE",
"755.162 668.959 LINE"
);
},
{
closed = 1;
nodes = (
"805.971 0 LINE",
"916.18 0 LINE",
"916.18 10 LINE",
"914 10 OFFCURVE",
"902 10 OFFCURVE",
"900 10 CURVE SMOOTH",
"864.516 9.991 OFFCURVE",
"832.512 33.113 OFFCURVE",
"827.383 72.645 CURVE",
"805.971 72.645 LINE"
);
},
{
closed = 1;
nodes = (
"753 54 OFFCURVE",
"753 56 OFFCURVE",
"753.372 52.145 CURVE SMOOTH",
"753 28 OFFCURVE",
"733 9 OFFCURVE",
"714.384 9.445 CURVE SMOOTH",
"698.802 9.445 LINE",
"698.802 0 LINE",
"760.187 0 LINE",
"760.187 56.525 LINE",
"753.112 56.525 LINE"
);
}
);
width = 931;
}
);
leftKerningGroup = M;
rightKerningGroup = M;
unicode = 004D;
},
{
glyphname = N;
lastChange = "2012-05-04 15:14:48 +0000";
layers = (
{
anchors = (
{
name = bottom;
position = "{514.779, -64}";
},
{
name = top;
position = "{401.804, 764}";
}
);
layerId = "29CFC173-9C98-4BE1-970A-002FF3BCF672";
paths = (
{
closed = 1;
nodes = (
"-226 790.595 LINE",
"-70 851.246 OFFCURVE",
"100.329 634.697 OFFCURVE",
"152.947 580.361 CURVE SMOOTH",
"744.972 -31 LINE SMOOTH",
"838.199 -127 OFFCURVE",
"985.411 -230 OFFCURVE",
"1141.27 -135 CURVE",
"1136.59 -125 LINE",
"978.345 -170 OFFCURVE",
"856.614 -20 OFFCURVE",
"798.562 40.438 CURVE SMOOTH",
"164.515 696 LINE SMOOTH",
"76.745 786.748 OFFCURVE",
"-88 901.184 OFFCURVE",
"-231 800.277 CURVE"
);
},
{
closed = 1;
nodes = (
"100.346 70.59 LINE",
"99.715 37.017 OFFCURVE",
"72.347 9.981 OFFCURVE",
"38.613 9.981 CURVE",
"20.155 10 LINE",
"20 0 LINE",
"103.152 0 LINE",
"103.152 70.59 LINE"
);
},
{
closed = 1;
nodes = (
"302.835 70.59 LINE",
"302.835 0 LINE",
"385.987 0 LINE",
"385.833 10 LINE",
"367.372 9.981 LINE",
"333.64 9.981 OFFCURVE",
"306.273 37.017 OFFCURVE",
"305.637 70.59 CURVE"
);
},
{
closed = 1;
nodes = (
"100.345 687.891 LINE",
"100.345 0 LINE",
"305.732 0 LINE",
"305.02 498.772 LINE"
);
},
{
closed = 1;
nodes = (
"575.596 700.019 LINE",
"575.641 151.331 LINE",
"780.983 -47 LINE",
"780.983 700.019 LINE"
);
},
{
closed = 1;
nodes = (
"495.233 700.019 LINE",
"495.387 690.019 LINE",
"513.841 690.038 LINE",
"547.579 690.042 OFFCURVE",
"574.944 663.005 OFFCURVE",
"575.575 629.431 CURVE",
"578.385 629.431 LINE",
"578.379 700.019 LINE"
);
},
{
closed = 1;
nodes = (
"778.158 700.019 LINE",
"778.154 629.432 LINE",
"780.962 629.432 LINE",
"781.593 663.007 OFFCURVE",
"808.96 690.039 OFFCURVE",
"842.696 690.039 CURVE",
"861.152 690.02 LINE",
"861.306 700.019 LINE"
);
}
);
width = 881;
},
{
anchors = (
{
name = bottom;
position = "{425.897, -64}";
},
{
name = top;
position = "{425.897, 764}";
}
);
layerId = "A24B85EF-CA04-493E-A47C-A7B61068A6D7";
paths = (
{
closed = 1;
nodes = (
"-184 803.977 LINE",
"-23 850.774 OFFCURVE",
"81.727 667.682 OFFCURVE",
"137.716 605.781 CURVE SMOOTH",
"698.082 -14 LINE SMOOTH",
"788.058 -113 OFFCURVE",
"892.904 -203 OFFCURVE",
"1053.82 -152 CURVE",
"1050 -142 LINE",
"888.436 -173 OFFCURVE",
"783.502 -10 OFFCURVE",
"727.69 52.447 CURVE SMOOTH",
"167.217 675.668 LINE SMOOTH",
"77.392 775.549 OFFCURVE",
"-28 881.263 OFFCURVE",
"-188 814.045 CURVE"
);
},
{
closed = 1;
nodes = (
"125.346 70.59 LINE",
"124.715 37.017 OFFCURVE",
"97.347 9.981 OFFCURVE",
"63.613 9.981 CURVE",
"45.155 10 LINE",
"45 0 LINE",
"128.152 0 LINE",
"128.152 70.59 LINE"
);
},
{
closed = 1;
nodes = (
"167.835 70.59 LINE",
"167.835 0 LINE",
"250.987 0 LINE",
"250.833 10 LINE",
"232.372 9.981 LINE",
"198.64 9.981 OFFCURVE",
"171.273 37.017 OFFCURVE",
"170.637 70.59 CURVE"
);
},
{
closed = 1;
nodes = (
"125.345 700.069 LINE",
"125.345 0 LINE",
"170.732 0 LINE",
"170.02 658.772 LINE"
);
},
{
closed = 1;
nodes = (
"670.596 700.019 LINE",
"670.641 39.152 LINE",
"715.983 -11 LINE",
"715.983 700.019 LINE"
);
},
{
closed = 1;
nodes = (
"590.233 700.019 LINE",
"590.387 690.019 LINE",
"608.841 690.038 LINE",
"642.579 690.042 OFFCURVE",
"669.944 663.005 OFFCURVE",
"670.575 629.431 CURVE",
"673.385 629.431 LINE",
"673.379 700.019 LINE"
);
},
{
closed = 1;
nodes = (
"713.158 700.019 LINE",
"713.154 629.432 LINE",
"715.962 629.432 LINE",
"716.593 663.007 OFFCURVE",
"743.96 690.043 OFFCURVE",
"777.696 690.039 CURVE",
"796.152 690.02 LINE",
"796.306 700.019 LINE"
);
}
);
width = 841;
}
);
leftKerningGroup = H;
rightKerningGroup = N;
unicode = 004E;
},
{
glyphname = Eng;
lastChange = "2012-05-04 12:14:27 +0000";
layers = (
{
layerId = "A24B85EF-CA04-493E-A47C-A7B61068A6D7";
paths = (
{
closed = 1;
nodes = (
"114.264 64.957 LINE",
"113.72 36.015 OFFCURVE",
"90.127 12.7 OFFCURVE",
"61.045 12.7 CURVE SMOOTH",
"60.914 12.7 OFFCURVE",
"45.263 12.716 OFFCURVE",
"45.133 12.724 CURVE",
"45 0 LINE",
"116.683 0 LINE",
"116.683 64.957 LINE"
);
},
{
closed = 1;
nodes = (
"114.257 0 LINE",
"159.644 0 LINE",
"158.932 658.772 LINE",
"113.048 674.991 LINE"
);
},
{
closed = 1;
nodes = (
"157.167 64.957 LINE",
"157.167 0 LINE",
"228.85 0 LINE",
"228.717 12.724 LINE",
"228.585 12.716 OFFCURVE",
"212.933 12.7 OFFCURVE",
"212.803 12.7 CURVE SMOOTH",
"183.723 12.7 OFFCURVE",
"160.13 36.015 OFFCURVE",
"159.583 64.957 CURVE"
);
},
{
closed = 1;
nodes = (
"702.934 -13 LINE",
"695.785 95.808 LINE",
"197.217 627.668 LINE",
"106.828 727.039 OFFCURVE",
"2.06 833.263 OFFCURVE",
"-158 766.045 CURVE",
"-154 755.977 LINE",
"6.568 802.774 OFFCURVE",
"111.579 619.548 OFFCURVE",
"167.716 557.781 CURVE"
);
},
{
closed = 1;
nodes = (
"704.895 700.019 LINE",
"659.508 700.019 LINE",
"659.549 -30 LINE",
"659.549 -127 OFFCURVE",
"613.856 -174 OFFCURVE",
"571.936 -193 CURVE",
"577.244 -201 LINE",
"644.008 -187 OFFCURVE",
"704.929 -140 OFFCURVE",
"704.929 -32 CURVE"
);
},
{
closed = 1;
nodes = (
"590.359 687.088 LINE",
"590.488 687.096 OFFCURVE",
"606.14 687.116 OFFCURVE",
"606.268 687.113 CURVE SMOOTH",
"635.352 687.116 OFFCURVE",
"658.943 663.8 OFFCURVE",
"659.487 634.857 CURVE",
"661.909 634.857 LINE",
"661.904 700 LINE",
"590.226 700 LINE"
);
},
{
closed = 1;
nodes = (
"702.477 700 LINE",
"702.473 634.858 LINE",
"704.893 634.858 LINE",
"705.438 663.802 OFFCURVE",
"729.029 687.117 OFFCURVE",
"758.113 687.114 CURVE SMOOTH",
"758.242 687.117 OFFCURVE",
"773.894 687.098 OFFCURVE",
"774.023 687.089 CURVE",
"774.156 700 LINE"
);
}
);
width = 819;
},
{
layerId = "29CFC173-9C98-4BE1-970A-002FF3BCF672";
paths = (
{
closed = 1;
nodes = (
"100.346 70.59 LINE",
"99.715 37.017 OFFCURVE",
"72.347 9.981 OFFCURVE",
"38.613 9.981 CURVE SMOOTH",
"38.46 9.981 OFFCURVE",
"20.305 9.994 OFFCURVE",
"20.155 10 CURVE",
"20 0 LINE",
"103.152 0 LINE",
"103.152 70.59 LINE"
);
},
{
closed = 1;
nodes = (
"100.345 0 LINE",
"295.732 0 LINE",
"295.02 498.772 LINE",
"96.9 684.952 LINE"
);
},
{
closed = 1;
nodes = (
"292.835 70.59 LINE",
"292.835 0 LINE",
"375.987 0 LINE",
"375.833 10 LINE",
"375.68 9.994 OFFCURVE",
"357.523 9.981 OFFCURVE",
"357.372 9.981 CURVE SMOOTH",
"323.64 9.981 OFFCURVE",
"296.273 37.017 OFFCURVE",
"295.637 70.59 CURVE"
);
},
{
closed = 1;
nodes = (
"778.022 -8 LINE",
"771.873 114.808 LINE",
"96.9 724.952 LINE",
"9.13 815.7 OFFCURVE",
"-156 930.136 OFFCURVE",
"-299 829.229 CURVE",
"-294 819.547 LINE",
"-138 880.198 OFFCURVE",
"57.67 649.173 OFFCURVE",
"110.288 594.837 CURVE"
);
},
{
closed = 1;
nodes = (
"780.983 700.019 LINE",
"585.596 700.019 LINE",
"585.655 42 LINE",
"585.655 -114 OFFCURVE",
"563.025 -138 OFFCURVE",
"498.042 -191 CURVE",
"503.35 -199 LINE",
"650.886 -235 OFFCURVE",
"785.022 -152 OFFCURVE",
"785.022 -4 CURVE"
);
},
{
closed = 1;
nodes = (
"505.387 690.019 LINE",
"505.536 690.025 OFFCURVE",
"523.693 690.041 OFFCURVE",
"523.841 690.038 CURVE SMOOTH",
"557.579 690.042 OFFCURVE",
"584.944 663.005 OFFCURVE",
"585.575 629.431 CURVE",
"588.385 629.431 LINE",
"588.379 700.019 LINE",
"505.233 700.019 LINE"
);
},
{
closed = 1;
nodes = (
"778.158 700.019 LINE",
"778.154 629.432 LINE",
"780.962 629.432 LINE",
"781.593 663.007 OFFCURVE",
"808.96 690.043 OFFCURVE",
"842.696 690.039 CURVE SMOOTH",
"842.846 690.042 OFFCURVE",
"861.002 690.027 OFFCURVE",
"861.152 690.02 CURVE",
"861.306 700.019 LINE"
);
}
);
width = 891;
}
);
leftKerningGroup = N;
rightKerningGroup = N;
unicode = 014A;
},
{
glyphname = O;
lastChange = "2012-05-05 22:30:27 +0000";
layers = (
{
anchors = (
{
name = top;
position = "{469, 764}";
}
);
layerId = "A24B85EF-CA04-493E-A47C-A7B61068A6D7";
paths = (
{
closed = 1;
nodes = (
"286.834 469.041 LINE",
"272 560 OFFCURVE",
"349 684 OFFCURVE",
"515 684 CURVE SMOOTH",
"700 684 OFFCURVE",
"792 531 OFFCURVE",
"792 363 CURVE SMOOTH",
"792 154 OFFCURVE",
"656 16 OFFCURVE",
"464 16 CURVE SMOOTH",
"280 16 OFFCURVE",
"137 143 OFFCURVE",
"137 375 CURVE SMOOTH",
"137 479 OFFCURVE",
"165 609 OFFCURVE",
"258.903 670.769 CURVE",
"252.903 679.769 LINE",
"129 617 OFFCURVE",
"60 502 OFFCURVE",
"60 360 CURVE SMOOTH",
"60 136 OFFCURVE",
"236 -14 OFFCURVE",
"466 -14 CURVE SMOOTH",
"698 -14 OFFCURVE",
"869 138 OFFCURVE",
"869 361 CURVE SMOOTH",
"869 558 OFFCURVE",
"731 714 OFFCURVE",
"523 714 CURVE SMOOTH",
"314 714 OFFCURVE",
"259 558 OFFCURVE",
"276.834 467.041 CURVE"
);
}
);
width = 929;
},
{
anchors = (
{
name = top;
position = "{465.432, 778}";
}
);
layerId = "29CFC173-9C98-4BE1-970A-002FF3BCF672";
paths = (
{
closed = 1;
nodes = (
"378.926 433.461 LINE",
"346 542 OFFCURVE",
"382 651 OFFCURVE",
"488 664 CURVE SMOOTH",
"617 680 OFFCURVE",
"700 539 OFFCURVE",
"700 355 CURVE SMOOTH",
"700 160 OFFCURVE",
"606 36 OFFCURVE",
"468 36 CURVE SMOOTH",
"322 36 OFFCURVE",
"231 176 OFFCURVE",
"231 387 CURVE SMOOTH",
"231 518 OFFCURVE",
"266 639 OFFCURVE",
"321.434 696.836 CURVE",
"315.434 706.836 LINE",
"135 676 OFFCURVE",
"10 536 OFFCURVE",
"10 353 CURVE SMOOTH",
"10 133 OFFCURVE",
"193 -14 OFFCURVE",
"467 -14 CURVE SMOOTH",
"739 -14 OFFCURVE",
"921 130 OFFCURVE",
"921 355 CURVE SMOOTH",
"921 632 OFFCURVE",
"647 746 OFFCURVE",
"485 714 CURVE SMOOTH",
"338 685 OFFCURVE",
"302 542 OFFCURVE",
"366.926 433.461 CURVE"
);
}
);
width = 931;
}
);
leftKerningGroup = O;
rightKerningGroup = O;
unicode = 004F;
},
{
glyphname = Oslash;
lastChange = "2012-05-03 17:54:15 +0000";
layers = (
{
anchors = (
{
name = top;
position = "{469, 764}";
}
);
layerId = "A24B85EF-CA04-493E-A47C-A7B61068A6D7";
paths = (
{
closed = 1;
nodes = (
"157.844 -1 LINE",
"182.854 -23 LINE",
"784.701 699.577 LINE",
"759.389 722.336 LINE"
);
},
{
closed = 1;
nodes = (
"286.834 469.041 LINE",
"272 560 OFFCURVE",
"349 684 OFFCURVE",
"515 684 CURVE SMOOTH",
"700 684 OFFCURVE",
"792 531 OFFCURVE",
"792 363 CURVE SMOOTH",
"792 154 OFFCURVE",
"651 16 OFFCURVE",
"459 16 CURVE SMOOTH",
"275 16 OFFCURVE",
"137 143 OFFCURVE",
"137 375 CURVE SMOOTH",
"137 479 OFFCURVE",
"165 609 OFFCURVE",
"258.903 670.769 CURVE",
"252.903 679.769 LINE",
"129 617 OFFCURVE",
"60 502 OFFCURVE",
"60 360 CURVE SMOOTH",
"60 136 OFFCURVE",
"231 -14 OFFCURVE",
"461 -14 CURVE SMOOTH",
"693 -14 OFFCURVE",
"869 138 OFFCURVE",
"869 361 CURVE SMOOTH",
"869 558 OFFCURVE",
"731 714 OFFCURVE",
"523 714 CURVE SMOOTH",
"314 714 OFFCURVE",
"259 558 OFFCURVE",
"276.834 467.041 CURVE"
);
}
);
width = 929;
},
{
anchors = (
{
name = top;
position = "{450.432, 778}";
}
);
layerId = "29CFC173-9C98-4BE1-970A-002FF3BCF672";
paths = (
{
closed = 1;
nodes = (
"108.844 13 LINE",
"152.854 -23 LINE",
"765.701 691.577 LINE",
"722.389 726.336 LINE"
);
},
{
closed = 1;
nodes = (
"363.926 433.461 LINE",
"331 542 OFFCURVE",
"367 651 OFFCURVE",
"473 664 CURVE SMOOTH",
"602 680 OFFCURVE",
"685 539 OFFCURVE",
"685 355 CURVE SMOOTH",
"685 160 OFFCURVE",
"591 36 OFFCURVE",
"453 36 CURVE SMOOTH",
"307 36 OFFCURVE",
"216 176 OFFCURVE",
"216 387 CURVE SMOOTH",
"216 518 OFFCURVE",
"251 639 OFFCURVE",
"306.434 696.836 CURVE",
"300.434 706.836 LINE",
"120 676 OFFCURVE",
"-5 536 OFFCURVE",
"-5 353 CURVE SMOOTH",
"-5 133 OFFCURVE",
"178 -14 OFFCURVE",
"452 -14 CURVE SMOOTH",
"724 -14 OFFCURVE",
"906 130 OFFCURVE",
"906 355 CURVE SMOOTH",
"906 632 OFFCURVE",
"632 746 OFFCURVE",
"470 714 CURVE SMOOTH",
"323 685 OFFCURVE",
"287 542 OFFCURVE",
"351.926 433.461 CURVE"
);
}
);
width = 905;
}
);
leftKerningGroup = O;
leftMetricsKey = O;
rightKerningGroup = O;
rightMetricsKey = O;
unicode = 00D8;
},
{
glyphname = OE;
lastChange = "2012-05-04 12:06:31 +0000";
layers = (
{
anchors = (
{
name = top;
position = "{570, 700}";
}
);
layerId = "A24B85EF-CA04-493E-A47C-A7B61068A6D7";
paths = (
{
closed = 1;
nodes = (
"201.773 714 OFFCURVE",
"60 568.397 OFFCURVE",
"60 349.992 CURVE SMOOTH",
"60 131.597 OFFCURVE",
"201.773 -14 OFFCURVE",
"414.432 -14 CURVE SMOOTH",
"450.675 -14 OFFCURVE",
"520.846 -3 OFFCURVE",
"542.005 -2 CURVE SMOOTH",
"570.295 0 OFFCURVE",
"582.541 0 OFFCURVE",
"595.634 0 CURVE",
"595.005 700 LINE",
"563.903 700 OFFCURVE",
"546.584 702.473 OFFCURVE",
"526.586 705.341 CURVE SMOOTH",
"492.25 710.264 OFFCURVE",
"443.758 714 OFFCURVE",
"414.432 714 CURVE SMOOTH"
);
},
{
closed = 1;
nodes = (
"244.773 15.925 OFFCURVE",
"131.667 149.552 OFFCURVE",
"131.667 349.992 CURVE SMOOTH",
"131.667 550.442 OFFCURVE",
"244.773 684.075 OFFCURVE",
"414.432 684.075 CURVE SMOOTH",
"467.021 684.075 OFFCURVE",
"536.402 672.707 OFFCURVE",
"536.402 635.545 CURVE",
"536.402 64.203 LINE",
"536.402 31.499 OFFCURVE",
"467.214 15.925 OFFCURVE",
"414.432 15.925 CURVE SMOOTH"
);
},
{
closed = 1;
nodes = (
"536.421 699.656 LINE",
"536.421 4.998 LINE",
"597.423 0 LINE",
"597.423 699.656 LINE SMOOTH"
);
},
{
closed = 1;
nodes = (
"588.634 30.59 LINE",
"595.634 0 LINE",
"931.409 0 LINE",
"931.409 30.59 LINE"
);
},
{
closed = 1;
nodes = (
"593.634 360.218 LINE",
"593.634 330.218 LINE",
"844.577 330.218 LINE",
"844.577 360.218 LINE"
);
},
{
closed = 1;
nodes = (
"592.634 700 LINE",
"592.634 669.409 LINE SMOOTH",
"775.409 669.409 LINE",
"775.409 700 LINE"
);
},
{
closed = 1;
nodes = (
"982.39 161.543 LINE",
"951.521 85.405 OFFCURVE",
"910.828 30.592 OFFCURVE",
"804.865 30.592 CURVE",
"768.561 0 LINE",
"934.102 0 LINE",
"992.39 161.543 LINE"
);
},
{
closed = 1;
nodes = (
"786.449 332.487 LINE",
"786.449 330.249 LINE",
"813.243 329.745 OFFCURVE",
"834.82 307.901 OFFCURVE",
"834.82 280.977 CURVE SMOOTH",
"834.804 266.243 LINE",
"844.577 266.119 LINE",
"844.577 332.487 LINE"
);
},
{
closed = 1;
nodes = (
"834.804 424.25 LINE",
"834.821 409.516 LINE SMOOTH",
"834.821 382.593 OFFCURVE",
"813.243 360.753 OFFCURVE",
"786.449 360.248 CURVE",
"786.449 358.012 LINE",
"844.577 358.012 LINE",
"844.577 424.375 LINE"
);
},
{
closed = 1;
nodes = (
"704.781 672.218 LINE",
"704.781 669.51 LINE",
"737.205 668.9 OFFCURVE",
"763.31 642.468 OFFCURVE",
"763.31 609.891 CURVE SMOOTH",
"763.291 592.067 LINE",
"775.391 591.917 LINE",
"775.391 672.218 LINE"
);
},
{
closed = 1;
nodes = (
"756.407 710.201 OFFCURVE",
"696.785 699.987 OFFCURVE",
"653.425 699.987 CURVE",
"775.356 688.909 LINE",
"775.356 718.187 LINE"
);
}
);
width = 997;
},
{
anchors = (
{
name = top;
position = "{340, 700}";
}
);
layerId = "29CFC173-9C98-4BE1-970A-002FF3BCF672";
paths = (
{
closed = 1;
nodes = (
"153 714 OFFCURVE",
"-5 579 OFFCURVE",
"-5 352 CURVE SMOOTH",
"-5 121 OFFCURVE",
"158 -14 OFFCURVE",
"407 -14 CURVE SMOOTH",
"468 -14 OFFCURVE",
"497 -6 OFFCURVE",
"547 -2 CURVE SMOOTH",
"574 0 OFFCURVE",
"590 0 OFFCURVE",
"600.634 0 CURVE",
"600.005 700 LINE",
"577 700 OFFCURVE",
"554 702 OFFCURVE",
"532 705 CURVE SMOOTH",
"495 710 OFFCURVE",
"465 714 OFFCURVE",
"419 714 CURVE SMOOTH"
);
},
{
closed = 1;
nodes = (
"293 36 OFFCURVE",
"206 152 OFFCURVE",
"207 350 CURVE SMOOTH",
"208 557 OFFCURVE",
"300 664 OFFCURVE",
"422 664 CURVE SMOOTH",
"498 664 OFFCURVE",
"541 623 OFFCURVE",
"541.402 595.545 CURVE",
"541.402 104.203 LINE",
"541 75 OFFCURVE",
"496 36 OFFCURVE",
"421 36 CURVE SMOOTH"
);
},
{
closed = 1;
nodes = (
"541.869 700 LINE",
"541.869 0 LINE",
"746.901 0 LINE",
"746.901 700 LINE"
);
},
{
closed = 1;
nodes = (
"744.082 50.59 LINE",
"744.082 0 LINE",
"1046.86 0 LINE",
"1006.86 50.59 LINE"
);
},
{
closed = 1;
nodes = (
"744.082 370.218 LINE",
"744.082 320.218 LINE",
"974.03 320.218 LINE",
"974.03 370.218 LINE"
);
},
{
closed = 1;
nodes = (
"744.082 700 LINE",
"744.082 649.409 LINE SMOOTH",
"1026.8 649.409 LINE",
"1026.8 700 LINE"
);
},
{
closed = 1;
nodes = (
"1077.84 231.543 LINE",
"1046.75 117.359 OFFCURVE",
"966.28 50.592 OFFCURVE",
"870.32 50.592 CURVE",
"834.016 0 LINE",
"1049.56 0 LINE",
"1087.84 231.543 LINE"
);
},
{
closed = 1;
nodes = (
"855.904 322.487 LINE",
"855.904 320.249 LINE",
"919.378 319.055 OFFCURVE",
"964.49 273.785 OFFCURVE",
"964.28 210.977 CURVE SMOOTH",
"964.26 206.243 LINE",
"974.03 206.119 LINE",
"974.03 322.487 LINE"
);
},
{
closed = 1;
nodes = (
"964.26 484.25 LINE",
"964.28 479.516 LINE SMOOTH",
"964.5 416.714 OFFCURVE",
"919.451 371.446 OFFCURVE",
"855.904 370.248 CURVE",
"855.904 368.012 LINE",
"974.03 368.012 LINE",
"974.03 484.375 LINE"
);
},
{
closed = 1;
nodes = (
"888.236 652.218 LINE",
"888.236 649.51 LINE",
"969.22 647.987 OFFCURVE",
"1016.96 599.769 OFFCURVE",
"1016.77 519.891 CURVE SMOOTH",
"1016.75 512.067 LINE",
"1026.85 511.917 LINE",
"1026.85 652.218 LINE"
);
},
{
closed = 1;
nodes = (
"1007.86 710.201 OFFCURVE",
"948.24 699.987 OFFCURVE",
"904.88 699.987 CURVE",
"1026.81 688.909 LINE",
"1026.81 718.187 LINE"
);
}
);
width = 1087;
}
);
leftKerningGroup = O;
leftMetricsKey = O;
rightKerningGroup = E;
rightMetricsKey = E;
unicode = 0152;
},
{
glyphname = P;
lastChange = "2012-05-04 12:23:11 +0000";
layers = (
{
layerId = "A24B85EF-CA04-493E-A47C-A7B61068A6D7";
paths = (
{
closed = 1;
nodes = (
"137.013 677 LINE",
"137.013 0 LINE",
"202.029 0 LINE",
"202.029 687 LINE"
);
},
{
closed = 1;
nodes = (
"137.013 72.864 LINE",
"136 36 OFFCURVE",
"106 10 OFFCURVE",
"73 10 CURVE",
"60.161 10 LINE",
"60 0 LINE",
"139.775 0 LINE",
"139.775 72.864 LINE"
);
},
{
closed = 1;
nodes = (
"199.122 0 LINE",
"278.897 0 LINE",
"278.736 10 LINE",
"266 10 LINE",
"233 10 OFFCURVE",
"203 36 OFFCURVE",
"202.032 72.864 CURVE",
"199.122 72.864 LINE"
);
},
{
closed = 1;
nodes = (
"252 707 OFFCURVE",
"149 686 OFFCURVE",
"59.489 676.542 CURVE",
"60.868 666.636 LINE",
"63 667 OFFCURVE",
"68 668 OFFCURVE",
"73 668 CURVE SMOOTH",
"116 671 OFFCURVE",
"137 647 OFFCURVE",
"137.014 613.943 CURVE",
"147.549 613.943 LINE",
"142.242 657.167 LINE",
"198 663 OFFCURVE",
"255 677 OFFCURVE",
"297 682 CURVE SMOOTH",
"415 695 OFFCURVE",
"495.319 639.012 OFFCURVE",
"500 510 CURVE SMOOTH",
"503.412 415.975 OFFCURVE",
"464 338 OFFCURVE",
"388 324 CURVE SMOOTH",
"338 315 OFFCURVE",
"271 332 OFFCURVE",
"255.049 393.941 CURVE",
"246.049 390.941 LINE",
"256 310 OFFCURVE",
"327 283 OFFCURVE",
"395 287 CURVE SMOOTH",
"509 294 OFFCURVE",
"578.96 385.999 OFFCURVE",
"575 510 CURVE SMOOTH",
"570.242 659.008 OFFCURVE",
"461 733 OFFCURVE",
"301 713 CURVE SMOOTH"
);
}
);
width = 620;
},
{
layerId = "29CFC173-9C98-4BE1-970A-002FF3BCF672";
paths = (
{
closed = 1;
nodes = (
"111.905 662 LINE",
"111.905 0 LINE",
"317.029 0 LINE",
"317.029 680 LINE"
);
},
{
closed = 1;
nodes = (
"111.865 72.864 LINE",
"111.21 38.029 OFFCURVE",
"82.813 9.979 OFFCURVE",
"47.811 9.979 CURVE SMOOTH",
"35.161 10 LINE",
"35 0 LINE",
"114.775 0 LINE",
"114.775 72.864 LINE"
);
},
{
closed = 1;
nodes = (
"314.122 0 LINE",
"393.897 0 LINE",
"393.736 10 LINE",
"381 10 LINE SMOOTH",
"346.084 9.979 OFFCURVE",
"317.687 38.029 OFFCURVE",
"317.032 72.864 CURVE",
"314.122 72.864 LINE"
);
},
{
closed = 1;
nodes = (
"284 703 OFFCURVE",
"176 675 OFFCURVE",
"34.393 666.542 CURVE",
"35.772 656.636 LINE",
"39.269 657 OFFCURVE",
"46 658 OFFCURVE",
"54 658 CURVE SMOOTH",
"94.726 658 OFFCURVE",
"112 633 OFFCURVE",
"111.918 597.943 CURVE",
"122.453 597.943 LINE",
"121.146 627.167 LINE",
"198 636 OFFCURVE",
"225 641 OFFCURVE",
"366 662 CURVE SMOOTH",
"452.181 674.836 OFFCURVE",
"512 622 OFFCURVE",
"515 517 CURVE SMOOTH",
"518 415 OFFCURVE",
"467 370 OFFCURVE",
"434 357 CURVE SMOOTH",
"405 346 OFFCURVE",
"373 352 OFFCURVE",
"358.896 371.343 CURVE",
"349.063 365.528 LINE",
"360 329 OFFCURVE",
"385 302 OFFCURVE",
"425 287 CURVE SMOOTH",
"543 243 OFFCURVE",
"736 318 OFFCURVE",
"730 510 CURVE SMOOTH",
"724 691 OFFCURVE",
"546 736 OFFCURVE",
"366 713 CURVE SMOOTH"
);
}
);
width = 760;
},
{
associatedMasterId = "A24B85EF-CA04-493E-A47C-A7B61068A6D7";
layerId = "D41FB4AB-20E6-4555-AE1A-3BFC7B42BA0D";
name = "Regular Apr 26 12, 11:40";
paths = (
{
closed = 1;
nodes = (
"-33 744.003 LINE",
"-10 599 OFFCURVE",
"195 671 OFFCURVE",
"297 682 CURVE SMOOTH",
"413.973 694.597 OFFCURVE",
"485.658 634.054 OFFCURVE",
"490 519 CURVE SMOOTH",
"493 425 OFFCURVE",
"452 353 OFFCURVE",
"378 339 CURVE SMOOTH",
"328 330 OFFCURVE",
"261 347 OFFCURVE",
"245.049 408.941 CURVE",
"236.049 405.941 LINE",
"246 326 OFFCURVE",
"315 298 OFFCURVE",
"385 302 CURVE SMOOTH",
"499 309 OFFCURVE",
"568 399 OFFCURVE",
"565 519 CURVE SMOOTH",
"560.904 657.223 OFFCURVE",
"462.847 729.281 OFFCURVE",
"301 713 CURVE SMOOTH",
"172 700 OFFCURVE",
"-2 631 OFFCURVE",
"-21 748.003 CURVE"
);
},
{
closed = 1;
nodes = (
"136.905 677 LINE",
"136.905 0 LINE",
"202.029 0 LINE",
"202.029 687 LINE"
);
},
{
closed = 1;
nodes = (
"136.865 72.864 LINE",
"136.21 38.029 OFFCURVE",
"107.813 9.979 OFFCURVE",
"72.811 9.979 CURVE SMOOTH",
"72.659 9.979 OFFCURVE",
"60.318 10 OFFCURVE",
"60.161 10 CURVE",
"60 0 LINE",
"139.775 0 LINE",
"139.775 72.864 LINE"
);
},
{
closed = 1;
nodes = (
"199.122 0 LINE",
"278.897 0 LINE",
"278.736 10 LINE",
"278.579 10 OFFCURVE",
"266.238 9.979 OFFCURVE",
"266.086 9.979 CURVE SMOOTH",
"231.084 9.979 OFFCURVE",
"202.687 38.029 OFFCURVE",
"202.032 72.864 CURVE",
"199.122 72.864 LINE"
);
}
);
width = 622;
}
);
leftKerningGroup = H;
rightKerningGroup = P;
unicode = 0050;
},
{
glyphname = Thorn;
lastChange = "2012-04-12 16:58:10 +0000";
layers = (
{
layerId = "A24B85EF-CA04-493E-A47C-A7B61068A6D7";
paths = (
{
closed = 1;
nodes = (
"119.567 700 LINE",
"119.567 0 LINE",
"184.614 0 LINE",
"184.614 700 LINE"
);
},
{
closed = 1;
nodes = (
"119.559 72.864 LINE",
"118.904 38.029 OFFCURVE",
"90.507 9.979 OFFCURVE",
"55.505 9.979 CURVE SMOOTH",
"55.353 9.979 OFFCURVE",
"43.012 10 OFFCURVE",
"42.855 10 CURVE",
"42.694 0 LINE",
"122.469 0 LINE",
"122.469 72.864 LINE"
);
},
{
closed = 1;
nodes = (
"122.485 700.06 LINE",
"42.71 700.06 LINE",
"42.872 690.06 LINE",
"43.029 690.06 OFFCURVE",
"55.37 690.08 OFFCURVE",
"55.522 690.08 CURVE SMOOTH",
"90.523 690.08 OFFCURVE",
"118.92 662.03 OFFCURVE",
"119.576 627.196 CURVE",
"122.485 627.196 LINE"
);
},
{
closed = 1;
nodes = (
"181.706 0 LINE",
"261.481 0 LINE",
"261.32 10 LINE",
"261.163 10 OFFCURVE",
"248.822 9.979 OFFCURVE",
"248.67 9.979 CURVE SMOOTH",
"213.668 9.979 OFFCURVE",
"185.271 38.029 OFFCURVE",
"184.616 72.864 CURVE",
"181.706 72.864 LINE"
);
},
{
closed = 1;
nodes = (
"184.599 627.196 LINE",
"185.255 662.03 OFFCURVE",
"213.652 690.08 OFFCURVE",
"248.653 690.08 CURVE SMOOTH",
"248.805 690.08 OFFCURVE",
"261.146 690.06 OFFCURVE",
"261.303 690.06 CURVE",
"261.465 700.06 LINE",
"181.69 700.06 LINE",
"181.69 627.196 LINE"
);
},
{
closed = 1;
nodes = (
"172.144 547.899 OFFCURVE",
"182.197 517.899 OFFCURVE",
"182.197 517.899 CURVE",
"300.044 517.899 LINE",
"385.104 517.899 OFFCURVE",
"432.366 456.668 OFFCURVE",
"434.867 364.822 CURVE SMOOTH",
"435.469 342.712 OFFCURVE",
"432.913 318.585 OFFCURVE",
"428.476 304.504 CURVE SMOOTH",
"383.349 161.278 OFFCURVE",
"218.836 196.765 OFFCURVE",
"218.836 196.765 CURVE",
"218.956 187.315 LINE",
"344.424 121.182 OFFCURVE",
"504.867 202.346 OFFCURVE",
"504.867 354.767 CURVE SMOOTH",
"504.867 473.046 OFFCURVE",
"435.586 547.899 OFFCURVE",
"303.666 547.899 CURVE SMOOTH",
"172.144 547.899 LINE SMOOTH"
);
}
);
width = 554;
},
{
layerId = "29CFC173-9C98-4BE1-970A-002FF3BCF672";
paths = (
{
closed = 1;
nodes = (
"119.567 700 LINE",
"119.567 0 LINE",
"324.614 0 LINE",
"324.614 700 LINE"
);
},
{
closed = 1;
nodes = (
"119.559 72.864 LINE",
"118.904 38.029 OFFCURVE",
"90.507 9.979 OFFCURVE",
"55.505 9.979 CURVE SMOOTH",
"55.353 9.979 OFFCURVE",
"43.012 10 OFFCURVE",
"42.855 10 CURVE",
"42.694 0 LINE",
"122.469 0 LINE",
"122.469 72.864 LINE"
);
},
{
closed = 1;
nodes = (
"122.485 700.06 LINE",
"42.71 700.06 LINE",
"42.872 690.06 LINE",
"43.029 690.06 OFFCURVE",
"55.37 690.08 OFFCURVE",
"55.522 690.08 CURVE SMOOTH",
"90.523 690.08 OFFCURVE",
"118.92 662.03 OFFCURVE",
"119.576 627.196 CURVE",
"122.485 627.196 LINE"
);
},
{
closed = 1;
nodes = (
"321.706 0 LINE",
"401.481 0 LINE",
"401.32 10 LINE",
"401.163 10 OFFCURVE",
"388.822 9.979 OFFCURVE",
"388.67 9.979 CURVE SMOOTH",
"353.668 9.979 OFFCURVE",
"325.271 38.029 OFFCURVE",
"324.616 72.864 CURVE",
"321.706 72.864 LINE"
);
},
{
closed = 1;
nodes = (
"324.599 627.196 LINE",
"325.255 662.03 OFFCURVE",
"353.652 690.08 OFFCURVE",
"388.653 690.08 CURVE SMOOTH",
"388.805 690.08 OFFCURVE",
"401.146 690.06 OFFCURVE",
"401.303 690.06 CURVE",
"401.465 700.06 LINE",
"321.69 700.06 LINE",
"321.69 627.196 LINE"
);
},
{
closed = 1;
nodes = (
"304.409 558.034 OFFCURVE",
"314.462 508.034 OFFCURVE",
"314.462 508.034 CURVE",
"352.309 508.034 LINE",
"429.068 508.034 OFFCURVE",
"474.068 456.034 OFFCURVE",
"477.068 375.034 CURVE SMOOTH",
"478.068 358.034 OFFCURVE",
"476.068 335.034 OFFCURVE",
"471.068 315.034 CURVE SMOOTH",
"443.068 200.034 OFFCURVE",
"350.068 198.034 OFFCURVE",
"351.101 196.9 CURVE",
"351.221 187.45 LINE",
"505 76.034 OFFCURVE",
"702.371 182.034 OFFCURVE",
"692.132 367.44 CURVE SMOOTH",
"686.475 469.878 OFFCURVE",
"615 558.034 OFFCURVE",
"415.931 558.034 CURVE SMOOTH",
"304.409 558.034 LINE SMOOTH"
);
}
);
width = 707;
}
);
leftKerningGroup = H;
rightKerningGroup = Thorn;
unicode = 00DE;
},
{
glyphname = Q;
lastChange = "2012-05-05 22:11:16 +0000";
layers = (
{
layerId = "A24B85EF-CA04-493E-A47C-A7B61068A6D7";
paths = (
{
closed = 1;
nodes = (
"582 -38 OFFCURVE",
"828 -152 OFFCURVE",
"955 -194 CURVE SMOOTH",
"1255.32 -293 OFFCURVE",
"1504.77 -170 OFFCURVE",
"1554.75 -89 CURVE",
"1550.93 -84 LINE",
"1434.78 -198 OFFCURVE",
"1155.51 -186 OFFCURVE",
"963 -133 CURVE SMOOTH",
"835 -98 OFFCURVE",
"566 -4 OFFCURVE",
"445.017 -4 CURVE",
"445.017 -14 LINE"
);
},
{
closed = 1;
nodes = (
"518.152 189.933 LINE",
"489 98 OFFCURVE",
"388 64 OFFCURVE",
"307 82 CURVE SMOOTH",
"203 105 OFFCURVE",
"127 214 OFFCURVE",
"127 351 CURVE SMOOTH",
"127 549.195 OFFCURVE",
"271 694.053 OFFCURVE",
"463 689 CURVE SMOOTH",
"648.752 684.918 OFFCURVE",
"785.466 529.775 OFFCURVE",
"782 327 CURVE SMOOTH",
"778 93 OFFCURVE",
"618 -9 OFFCURVE",
"445.017 -4 CURVE",
"445.017 -14 LINE",
"596 -44 OFFCURVE",
"856 66 OFFCURVE",
"859 342 CURVE SMOOTH",
"861.831 552.466 OFFCURVE",
"691.26 714.037 OFFCURVE",
"461 719 CURVE SMOOTH",
"226.143 724.173 OFFCURVE",
"50 565.602 OFFCURVE",
"50 349 CURVE SMOOTH",
"50 202 OFFCURVE",
"137 73 OFFCURVE",
"299 50 CURVE SMOOTH",
"427 32 OFFCURVE",
"503 97 OFFCURVE",
"527.166 186.933 CURVE"
);
}
);
width = 919;
},
{
layerId = "29CFC173-9C98-4BE1-970A-002FF3BCF672";
paths = (
{
closed = 1;
nodes = (
"476 -55 OFFCURVE",
"699.571 -163 OFFCURVE",
"826 -215 CURVE SMOOTH",
"1152 -349 OFFCURVE",
"1510 -344 OFFCURVE",
"1579.75 -87 CURVE",
"1572.93 -84 LINE",
"1453 -186 OFFCURVE",
"1190 -124 OFFCURVE",
"935 -76 CURVE SMOOTH",
"733 -38 OFFCURVE",
"517 -6 OFFCURVE",
"389.017 -4 CURVE",
"389.017 -14 LINE"
);
},
{
closed = 1;
nodes = (
"520.152 215.933 LINE",
"510 107 OFFCURVE",
"431 86 OFFCURVE",
"374 91 CURVE SMOOTH",
"264 101 OFFCURVE",
"220 213 OFFCURVE",
"220 351 CURVE SMOOTH",
"220 573 OFFCURVE",
"333 678 OFFCURVE",
"467 669 CURVE SMOOTH",
"631 658 OFFCURVE",
"707 483 OFFCURVE",
"697 314 CURVE SMOOTH",
"683 89 OFFCURVE",
"526 -4 OFFCURVE",
"389.017 -4 CURVE",
"389.017 -14 LINE",
"621 -68 OFFCURVE",
"912 87 OFFCURVE",
"912 357 CURVE SMOOTH",
"912 570 OFFCURVE",
"732 716 OFFCURVE",
"465 719 CURVE SMOOTH",
"176 722 OFFCURVE",
"5 561 OFFCURVE",
"5 366 CURVE SMOOTH",
"5 193 OFFCURVE",
"140 80 OFFCURVE",
"303 50 CURVE SMOOTH",
"402 32 OFFCURVE",
"545 38 OFFCURVE",
"531.166 216.933 CURVE"
);
}
);
width = 929;
}
);
leftKerningGroup = O;
rightKerningGroup = O;
unicode = 0051;
},
{
glyphname = R;
lastChange = "2018-07-30 13:22:33 +0000";
layers = (
{
anchors = (
{
name = bottom;
position = "{377.58, -50}";
},
{
name = top;
position = "{323.58, 764}";
}
);
layerId = "A24B85EF-CA04-493E-A47C-A7B61068A6D7";
paths = (
{
closed = 1;
nodes = (
"136.906 72.864 LINE",
"136 36 OFFCURVE",
"106 10 OFFCURVE",
"73 10 CURVE",
"60.202 10 LINE",
"60.041 0 LINE",
"139.816 0 LINE",
"139.816 72.864 LINE"
);
},
{
closed = 1;
nodes = (
"136.895 690 LINE",
"136.895 0 LINE",
"201.612 0 LINE",
"201.612 690 LINE"
);
},
{
closed = 1;
nodes = (
"198.723 0 LINE",
"278.498 0 LINE",
"278.337 10 LINE",
"266 10 LINE",
"229 10 OFFCURVE",
"202 40 OFFCURVE",
"201.633 72.864 CURVE",
"198.723 72.864 LINE"
);
},
{
closed = 1;
nodes = (
"139.775 700.245 LINE",
"60 700.245 LINE",
"60.162 690.06 LINE",
"72.812 690.08 LINE",
"107.813 690.08 OFFCURVE",
"136.21 662.03 OFFCURVE",
"136.866 627.196 CURVE",
"139.775 627.196 LINE"
);
},
{
closed = 1;
nodes = (
"139.279 700.245 LINE",
"139.283 668.898 LINE",
"326 668 LINE",
"408 668 OFFCURVE",
"447 601 OFFCURVE",
"450 516 CURVE SMOOTH",
"451 486 OFFCURVE",
"447 467 OFFCURVE",
"444 456 CURVE SMOOTH",
"419 364 OFFCURVE",
"330.91 355.42 OFFCURVE",
"288 352 CURVE SMOOTH",
"262.903 350 OFFCURVE",
"239.95 351.594 OFFCURVE",
"234.9 351.594 CURVE",
"234.9 342.34 LINE",
"252 340 OFFCURVE",
"270.533 321.484 OFFCURVE",
"295 294 CURVE SMOOTH",
"360.362 220.58 OFFCURVE",
"515.956 49.779 OFFCURVE",
"564 -5 CURVE SMOOTH",
"671 -127 OFFCURVE",
"786 -213 OFFCURVE",
"947.817 -170 CURVE",
"947.817 -160 LINE",
"821 -176 OFFCURVE",
"720 -73 OFFCURVE",
"617 36 CURVE SMOOTH",
"504 155 OFFCURVE",
"441 230 OFFCURVE",
"355.306 321.392 CURVE",
"452 321 OFFCURVE",
"525 412 OFFCURVE",
"525 519 CURVE SMOOTH",
"525 628 OFFCURVE",
"448 700.245 OFFCURVE",
"330 700.245 CURVE"
);
}
);
width = 652;
},
{
anchors = (
{
name = bottom;
position = "{480, -64}";
},
{
name = top;
position = "{391, 764}";
}
);
layerId = "29CFC173-9C98-4BE1-970A-002FF3BCF672";
paths = (
{
closed = 1;
nodes = (
"111.906 72.864 LINE",
"111.251 38.029 OFFCURVE",
"82.854 9.979 OFFCURVE",
"47.852 9.979 CURVE",
"35.121 10 LINE",
"35.121 0 LINE",
"114.816 0 LINE",
"114.816 72.864 LINE"
);
},
{
closed = 1;
nodes = (
"111.895 700.03 LINE",
"111.895 0 LINE",
"317.612 0 LINE",
"317.612 700.03 LINE"
);
},
{
closed = 1;
nodes = (
"314.723 0 LINE",
"394.498 0 LINE",
"394.337 10 LINE",
"382 10 LINE",
"346.685 9.979 OFFCURVE",
"318.288 38.029 OFFCURVE",
"317.633 72.864 CURVE",
"314.723 72.864 LINE"
);
},
{
closed = 1;
nodes = (
"114.775 700.03 LINE",
"35.956 700.03 LINE",
"35.956 690.06 LINE",
"48 690 LINE",
"82.813 689.812 OFFCURVE",
"111.21 662.03 OFFCURVE",
"111.866 627.196 CURVE",
"114.775 627.196 LINE"
);
},
{
closed = 1;
nodes = (
"113.944 700.03 LINE",
"113.934 648 LINE",
"362 648 LINE",
"428 648 OFFCURVE",
"502 609 OFFCURVE",
"506 516 CURVE SMOOTH",
"507 497 OFFCURVE",
"505 484 OFFCURVE",
"504 475 CURVE SMOOTH",
"491 383 OFFCURVE",
"418 352 OFFCURVE",
"367 352 CURVE SMOOTH",
"363 352 OFFCURVE",
"354 352 OFFCURVE",
"350.9 351.797 CURVE",
"350.9 342.34 LINE",
"370 336 OFFCURVE",
"387 308 OFFCURVE",
"403 275 CURVE SMOOTH",
"425 231 OFFCURVE",
"473 114 OFFCURVE",
"527 26 CURVE SMOOTH",
"742 -325 OFFCURVE",
"1065 -247 OFFCURVE",
"1173.82 -170 CURVE",
"1173.82 -160 LINE",
"960 -147 OFFCURVE",
"839 -55 OFFCURVE",
"725 108 CURVE SMOOTH",
"654 210 OFFCURVE",
"608 303 OFFCURVE",
"513.88 323.391 CURVE",
"621 312 OFFCURVE",
"721 386 OFFCURVE",
"721 510 CURVE SMOOTH",
"721 674 OFFCURVE",
"546 700 OFFCURVE",
"425.724 700.03 CURVE"
);
}
);
width = 783;
}
);
leftKerningGroup = H;
rightKerningGroup = R;
unicode = 0052;
},
{
glyphname = S;
lastChange = "2012-05-05 22:28:38 +0000";
layers = (
{
anchors = (
{
name = bottom;
position = "{333.418, -102}";
},
{
name = top;
position = "{339.652, 764}";
}
);
layerId = "29CFC173-9C98-4BE1-970A-002FF3BCF672";
paths = (
{
closed = 1;
nodes = (
"412.176 703.741 LINE SMOOTH",
"412.176 683.478 LINE",
"557.566 683.478 LINE",
"560.259 703.741 LINE"
);
},
{
closed = 1;
nodes = (
"322.355 486.53 LINE SMOOTH",
"275.616 513 OFFCURVE",
"229.616 532 OFFCURVE",
"233.616 580 CURVE SMOOTH",
"237.616 629 OFFCURVE",
"287.616 664 OFFCURVE",
"369.616 664 CURVE SMOOTH",
"468.616 664 OFFCURVE",
"528.616 614 OFFCURVE",
"529.052 541.034 CURVE",
"538.681 541.034 LINE",
"558.681 691.869 LINE",
"535.616 702 OFFCURVE",
"372.616 714 OFFCURVE",
"313.616 714 CURVE SMOOTH",
"175.616 714 OFFCURVE",
"93.615 647 OFFCURVE",
"80.615 535 CURVE SMOOTH",
"69.615 441 OFFCURVE",
"112.616 373 OFFCURVE",
"203.209 319.61 CURVE SMOOTH",
"366.26 224.285 LINE SMOOTH",
"534.616 129 OFFCURVE",
"474.616 -48 OFFCURVE",
"291.616 -48 CURVE SMOOTH",
"112.616 -48 OFFCURVE",
"-20 120 OFFCURVE",
"77.233 295.56 CURVE",
"68.233 302.56 LINE",
"-58 125 OFFCURVE",
"47.615 -104 OFFCURVE",
"314.616 -104 CURVE SMOOTH",
"637.616 -104 OFFCURVE",
"768.616 233 OFFCURVE",
"509.255 380.221 CURVE SMOOTH"
);
}
);
width = 671;
},
{
anchors = (
{
name = bottom;
position = "{275, -51.432}";
},
{
name = top;
position = "{282.427, 764}";
}
);
associatedMasterId = "A24B85EF-CA04-493E-A47C-A7B61068A6D7";
layerId = "F1AE8F3A-E9F0-4571-9555-74E057BBE490";
name = "Regular Apr 26 12, 11:05";
paths = (
{
closed = 1;
nodes = (
"329.112 703.741 LINE",
"329.466 683.478 LINE",
"405.96 683.478 LINE",
"405.606 703.741 LINE"
);
},
{
closed = 1;
nodes = (
"204.703 476.809 LINE SMOOTH",
"174.77 499.702 OFFCURVE",
"163 537 OFFCURVE",
"163 569 CURVE SMOOTH",
"163 632 OFFCURVE",
"210 684 OFFCURVE",
"283 684 CURVE SMOOTH",
"343 684 OFFCURVE",
"397 648 OFFCURVE",
"398.13 581.034 CURVE",
"407.759 581.034 LINE",
"405.825 691.869 LINE",
"379 704 OFFCURVE",
"317 714 OFFCURVE",
"279 714 CURVE SMOOTH",
"167 714 OFFCURVE",
"106 630 OFFCURVE",
"107 545 CURVE SMOOTH",
"108 501 OFFCURVE",
"124.799 450.739 OFFCURVE",
"163.615 421.085 CURVE SMOOTH",
"361.129 270.191 LINE SMOOTH",
"502.994 161.811 OFFCURVE",
"431 -19 OFFCURVE",
"277 -24 CURVE SMOOTH",
"176.758 -27 OFFCURVE",
"100.901 39.246 OFFCURVE",
"100 131 CURVE SMOOTH",
"99.235 208.843 OFFCURVE",
"147.781 270 OFFCURVE",
"212.764 286.7 CURVE",
"210.06 296.7 LINE",
"104.283 292.366 OFFCURVE",
"35 219.257 OFFCURVE",
"35 128 CURVE SMOOTH",
"35 24 OFFCURVE",
"135.286 -54 OFFCURVE",
"269 -54 CURVE SMOOTH",
"505 -54 OFFCURVE",
"585.558 185.53 OFFCURVE",
"407.24 321.908 CURVE SMOOTH"
);
}
);
width = 534;
},
{
anchors = (
{
name = bottom;
position = "{275, -93.432}";
},
{
name = top;
position = "{282.427, 764}";
}
);
layerId = "A24B85EF-CA04-493E-A47C-A7B61068A6D7";
paths = (
{
closed = 1;
nodes = (
"342.111 703.801 LINE",
"342.465 683.538 LINE",
"418.959 683.538 LINE",
"418.605 703.801 LINE"
);
},
{
closed = 1;
nodes = (
"217.702 476.869 LINE SMOOTH",
"185 503 OFFCURVE",
"174 536 OFFCURVE",
"174 567 CURVE SMOOTH",
"174 633 OFFCURVE",
"223 684 OFFCURVE",
"295 684 CURVE SMOOTH",
"356 684 OFFCURVE",
"410 648 OFFCURVE",
"411.129 581.094 CURVE",
"420.758 581.094 LINE",
"418.824 691.929 LINE",
"392 704 OFFCURVE",
"331 714 OFFCURVE",
"292 714 CURVE SMOOTH",
"179 714 OFFCURVE",
"118 629 OFFCURVE",
"118 547 CURVE SMOOTH",
"118 511 OFFCURVE",
"130 458 OFFCURVE",
"176.614 421.145 CURVE SMOOTH",
"357.128 279.251 LINE SMOOTH",
"515 154 OFFCURVE",
"442 -58 OFFCURVE",
"255.003 -58 CURVE SMOOTH",
"82 -58 OFFCURVE",
"9 122 OFFCURVE",
"118.999 265.56 CURVE",
"109.999 272.56 LINE",
"-27 126 OFFCURVE",
"52 -94 OFFCURVE",
"272.409 -94 CURVE SMOOTH",
"516 -94 OFFCURVE",
"603 173 OFFCURVE",
"403.239 330.968 CURVE SMOOTH"
);
}
);
width = 549;
}
);
leftKerningGroup = S;
rightKerningGroup = S;
unicode = 0053;
},
{
glyphname = T;
lastChange = "2012-05-05 22:28:35 +0000";
layers = (
{
anchors = (
{
name = bottom;
position = "{309, 0}";
},
{
name = center;
position = "{309, 350}";
},
{
name = top;
position = "{309, 700}";
}
);
layerId = "A24B85EF-CA04-493E-A47C-A7B61068A6D7";
paths = (
{
closed = 1;
nodes = (
"276.731 696.716 LINE",
"276.731 0 LINE",
"341.99 0 LINE",
"341.99 696.716 LINE"
);
},
{
closed = 1;
nodes = (
"68.033 701 LINE",
"-65 701 OFFCURVE",
"-134 592.429 OFFCURVE",
"-59 501 CURVE",
"-51 506 LINE",
"-96 590.981 OFFCURVE",
"-39 671.02 OFFCURVE",
"68.033 671.02 CURVE",
"598.605 671.02 LINE",
"598.605 701 LINE"
);
},
{
closed = 1;
nodes = (
"530.03 673.775 LINE",
"530.03 671.067 LINE",
"562.454 670.457 OFFCURVE",
"588.559 644.025 OFFCURVE",
"588.559 611.448 CURVE SMOOTH",
"588.54 593.624 LINE",
"598.605 593.474 LINE",
"598.605 673.775 LINE"
);
},
{
closed = 1;
nodes = (
"579.656 711.21 OFFCURVE",
"520.034 700.996 OFFCURVE",
"476.674 700.996 CURVE",
"598.605 689.918 LINE",
"598.605 719.196 LINE"
);
},
{
closed = 1;
nodes = (
"276.782 72.864 LINE",
"276.127 38.029 OFFCURVE",
"247.73 9.979 OFFCURVE",
"212.728 9.979 CURVE SMOOTH",
"212.576 9.979 OFFCURVE",
"200.235 10 OFFCURVE",
"200.078 10 CURVE",
"199.917 0 LINE",
"279.692 0 LINE",
"279.692 72.864 LINE"
);
},
{
closed = 1;
nodes = (
"339.06 0 LINE",
"418.835 0 LINE",
"418.674 10 LINE",
"418.517 10 OFFCURVE",
"406.176 9.979 OFFCURVE",
"406.024 9.979 CURVE SMOOTH",
"371.022 9.979 OFFCURVE",
"342.625 38.029 OFFCURVE",
"341.97 72.864 CURVE",
"339.06 72.864 LINE"
);
}
);
width = 618;
},
{
anchors = (
{
name = bottom;
position = "{402.083, 0}";
},
{
name = center;
position = "{392.083, 350}";
},
{
name = top;
position = "{402.083, 764}";
}
);
layerId = "29CFC173-9C98-4BE1-970A-002FF3BCF672";
paths = (
{
closed = 1;
nodes = (
"298.814 696.716 LINE",
"298.814 0 LINE",
"504.073 0 LINE",
"504.073 696.716 LINE"
);
},
{
closed = 1;
nodes = (
"112.083 701 LINE",
"-51 701 OFFCURVE",
"-127 551.767 OFFCURVE",
"-4 444.197 CURVE",
"6.708 449.197 LINE",
"-67 565.109 OFFCURVE",
"1.732 651.02 OFFCURVE",
"112.083 651.02 CURVE",
"740.688 651.02 LINE",
"740.688 701 LINE"
);
},
{
closed = 1;
nodes = (
"602.078 653.733 LINE",
"602.078 651.025 LINE",
"683.062 649.502 OFFCURVE",
"730.801 601.284 OFFCURVE",
"730.607 521.406 CURVE SMOOTH",
"730.588 513.582 LINE",
"740.688 513.432 LINE",
"740.688 653.733 LINE"
);
},
{
closed = 1;
nodes = (
"721.739 711.182 OFFCURVE",
"662.117 700.968 OFFCURVE",
"618.757 700.968 CURVE",
"740.688 689.89 LINE",
"740.688 719.168 LINE"
);
},
{
closed = 1;
nodes = (
"298.865 72.864 LINE",
"298.083 38 OFFCURVE",
"270.083 10 OFFCURVE",
"234.811 9.979 CURVE SMOOTH",
"233.083 10 OFFCURVE",
"224.083 10 OFFCURVE",
"222.161 10 CURVE",
"222 0 LINE",
"301.775 0 LINE",
"301.775 72.864 LINE"
);
},
{
closed = 1;
nodes = (
"501.143 0 LINE",
"580.918 0 LINE",
"580.757 10 LINE",
"579.083 10 OFFCURVE",
"570.083 10 OFFCURVE",
"568.083 10 CURVE SMOOTH",
"533.105 9.979 OFFCURVE",
"504.708 38.029 OFFCURVE",
"504.053 72.864 CURVE",
"501.143 72.864 LINE"
);
}
);
width = 750;
},
{
anchors = (
{
name = bottom;
position = "{309.056, 0}";
},
{
name = center;
position = "{309.056, 350}";
},
{
name = top;
position = "{309.056, 764}";
}
);
associatedMasterId = "A24B85EF-CA04-493E-A47C-A7B61068A6D7";
layerId = "950A78F5-984E-4DE9-9B67-A124CD57678B";
name = "Regular Apr 26 12, 11:48";
paths = (
{
closed = 1;
nodes = (
"276.731 706.716 LINE",
"276.731 0 LINE",
"341.99 0 LINE",
"341.99 706.716 LINE"
);
},
{
closed = 1;
nodes = (
"656.792 959.667 OFFCURVE",
"692.184 940.722 OFFCURVE",
"706.44 907.07 CURVE SMOOTH",
"721.682 871.088 OFFCURVE",
"709.291 820.518 OFFCURVE",
"640.919 796.291 CURVE SMOOTH",
"510.277 750 OFFCURVE",
"355.471 731.659 OFFCURVE",
"130.78 715.759 CURVE SMOOTH",
"59.538 710.718 OFFCURVE",
"-7 689.259 OFFCURVE",
"-13 627.986 CURVE SMOOTH",
"-18 579.727 OFFCURVE",
"17.87 536.725 OFFCURVE",
"88.186 527.433 CURVE",
"92.515 535.563 LINE",
"60.312 547.711 OFFCURVE",
"34.991 578.046 OFFCURVE",
"40.408 618.396 CURVE SMOOTH",
"47.281 669.602 OFFCURVE",
"85.018 683.351 OFFCURVE",
"142.401 687.401 CURVE SMOOTH",
"372.828 703.663 OFFCURVE",
"548.306 724.244 OFFCURVE",
"684.909 769.294 CURVE SMOOTH",
"771.645 797.898 OFFCURVE",
"784.935 870.871 OFFCURVE",
"761.966 922.557 CURVE SMOOTH",
"738.016 976.451 OFFCURVE",
"658.105 1000.38 OFFCURVE",
"608.692 944.045 CURVE",
"614.35 936.261 LINE"
);
},
{
closed = 1;
nodes = (
"276.782 72.864 LINE",
"276.127 38.029 OFFCURVE",
"247.73 9.979 OFFCURVE",
"212.728 9.979 CURVE SMOOTH",
"212.576 9.979 OFFCURVE",
"200.235 10 OFFCURVE",
"200.078 10 CURVE",
"199.917 0 LINE",
"279.692 0 LINE",
"279.692 72.864 LINE"
);
},
{
closed = 1;
nodes = (
"339.06 0 LINE",
"418.835 0 LINE",
"418.674 10 LINE",
"418.517 10 OFFCURVE",
"406.176 9.979 OFFCURVE",
"406.024 9.979 CURVE SMOOTH",
"371.022 9.979 OFFCURVE",
"342.625 38.029 OFFCURVE",
"341.97 72.864 CURVE",
"339.06 72.864 LINE"
);
}
);
width = 596;
}
);
leftKerningGroup = T;
rightKerningGroup = t;
unicode = 0054;
},
{
glyphname = Tbar;
lastChange = "2012-05-10 16:11:43 +0000";
layers = (
{
layerId = "A24B85EF-CA04-493E-A47C-A7B61068A6D7";
paths = (
{
closed = 1;
nodes = (
"116.268 381.058 LINE",
"116.268 351.058 LINE",
"504.012 351.058 LINE",
"504.012 381.058 LINE"
);
},
{
closed = 1;
nodes = (
"276.731 696.716 LINE",
"276.731 0 LINE",
"341.99 0 LINE",
"341.99 696.716 LINE"
);
},
{
closed = 1;
nodes = (
"68.033 701 LINE",
"-65 701 OFFCURVE",
"-134 592.429 OFFCURVE",
"-59 501 CURVE",
"-51 506 LINE",
"-96 590.981 OFFCURVE",
"-39 671.02 OFFCURVE",
"68.033 671.02 CURVE",
"598.605 671.02 LINE",
"598.605 701 LINE"
);
},
{
closed = 1;
nodes = (
"530.03 673.775 LINE",
"530.03 671.067 LINE",
"562.454 670.457 OFFCURVE",
"588.559 644.025 OFFCURVE",
"588.559 611.448 CURVE SMOOTH",
"588.54 593.624 LINE",
"598.605 593.474 LINE",
"598.605 673.775 LINE"
);
},
{
closed = 1;
nodes = (
"579.656 711.21 OFFCURVE",
"520.034 700.996 OFFCURVE",
"476.674 700.996 CURVE",
"598.605 689.918 LINE",
"598.605 719.196 LINE"
);
},
{
closed = 1;
nodes = (
"276.782 72.864 LINE",
"276.127 38.029 OFFCURVE",
"247.73 9.979 OFFCURVE",
"212.728 9.979 CURVE SMOOTH",
"212.576 9.979 OFFCURVE",
"200.235 10 OFFCURVE",
"200.078 10 CURVE",
"199.917 0 LINE",
"279.692 0 LINE",
"279.692 72.864 LINE"
);
},
{
closed = 1;
nodes = (
"339.06 0 LINE",
"418.835 0 LINE",
"418.674 10 LINE",
"418.517 10 OFFCURVE",
"406.176 9.979 OFFCURVE",
"406.024 9.979 CURVE SMOOTH",
"371.022 9.979 OFFCURVE",
"342.625 38.029 OFFCURVE",
"341.97 72.864 CURVE",
"339.06 72.864 LINE"
);
}
);
width = 618;
},
{
layerId = "29CFC173-9C98-4BE1-970A-002FF3BCF672";
paths = (
{
closed = 1;
nodes = (
"148.35 403.358 LINE",
"148.35 353.358 LINE",
"654.094 353.358 LINE",
"654.094 403.358 LINE"
);
},
{
closed = 1;
nodes = (
"298.813 696.716 LINE",
"298.813 0 LINE",
"504.072 0 LINE",
"504.072 696.716 LINE"
);
},
{
closed = 1;
nodes = (
"112.082 701 LINE",
"-52 701 OFFCURVE",
"-127 551.767 OFFCURVE",
"-4 444.197 CURVE",
"7.082 449.197 LINE",
"-67 565.109 OFFCURVE",
"2.082 651.02 OFFCURVE",
"112.082 651.02 CURVE",
"740.687 651.02 LINE",
"740.687 701 LINE"
);
},
{
closed = 1;
nodes = (
"602.077 653.733 LINE",
"602.077 651.025 LINE",
"683.061 649.502 OFFCURVE",
"730.8 601.284 OFFCURVE",
"730.606 521.406 CURVE SMOOTH",
"730.587 513.582 LINE",
"740.687 513.432 LINE",
"740.687 653.733 LINE"
);
},
{
closed = 1;
nodes = (
"721.738 711.182 OFFCURVE",
"662.116 700.968 OFFCURVE",
"618.756 700.968 CURVE",
"740.687 689.89 LINE",
"740.687 719.168 LINE"
);
},
{
closed = 1;
nodes = (
"298.864 72.864 LINE",
"298.082 38 OFFCURVE",
"270.082 10 OFFCURVE",
"234.81 9.979 CURVE SMOOTH",
"233.082 10 OFFCURVE",
"224.082 10 OFFCURVE",
"222.16 10 CURVE",
"221.999 0 LINE",
"301.774 0 LINE",
"301.774 72.864 LINE"
);
},
{
closed = 1;
nodes = (
"501.142 0 LINE",
"580.917 0 LINE",
"580.756 10 LINE",
"579.082 10 OFFCURVE",
"570.082 10 OFFCURVE",
"568.082 10 CURVE SMOOTH",
"533.104 9.979 OFFCURVE",
"504.707 38.029 OFFCURVE",
"504.052 72.864 CURVE",
"501.142 72.864 LINE"
);
}
);
width = 750;
}
);
leftKerningGroup = T;
leftMetricsKey = T;
rightKerningGroup = T;
rightMetricsKey = T;
unicode = 0166;
},
{
glyphname = U;
lastChange = "2012-05-05 22:12:54 +0000";
layers = (
{
anchors = (
{
name = ogonek;
position = "{396.423, -7}";
},
{
name = top;
position = "{421.641, 764}";
}
);
layerId = "A24B85EF-CA04-493E-A47C-A7B61068A6D7";
paths = (
{
closed = 1;
nodes = (
"119.191 700 LINE",
"119.097 245.596 LINE SMOOTH",
"119.097 89.838 OFFCURVE",
"230.028 -14 OFFCURVE",
"396.423 -14 CURVE SMOOTH",
"558.153 -14 OFFCURVE",
"665.959 90.536 OFFCURVE",
"665.973 247.34 CURVE SMOOTH",
"666.002 580.014 LINE SMOOTH",
"666.018 766.989 OFFCURVE",
"761.205 861.639 OFFCURVE",
"903.969 861.639 CURVE",
"903.969 871.639 LINE",
"733.243 878.613 OFFCURVE",
"619.377 779.438 OFFCURVE",
"619.31 578.702 CURVE SMOOTH",
"619.198 247.399 LINE SMOOTH",
"619.152 109.457 OFFCURVE",
"530.011 17.495 OFFCURVE",
"396.423 17.495 CURVE SMOOTH",
"269.022 17.495 OFFCURVE",
"184.088 114.614 OFFCURVE",
"184.088 260.292 CURVE",
"183.985 700 LINE SMOOTH"
);
},
{
closed = 1;
nodes = (
"50 700 LINE",
"50 690 LINE",
"50.129 690 OFFCURVE",
"66.167 690.017 OFFCURVE",
"66.294 690.017 CURVE SMOOTH",
"95.183 690.017 OFFCURVE",
"118.619 669.255 OFFCURVE",
"119.161 640.499 CURVE",
"121.564 640.499 LINE",
"121.564 700 LINE"
);
},
{
closed = 1;
nodes = (
"181.547 700 LINE",
"181.547 640.499 LINE",
"183.949 640.499 LINE",
"184.491 669.255 OFFCURVE",
"207.928 690.017 OFFCURVE",
"236.814 690.017 CURVE SMOOTH",
"236.943 690.017 OFFCURVE",
"252.982 690 OFFCURVE",
"253.11 690 CURVE",
"253.11 700 LINE"
);
}
);
width = 783;
},
{
anchors = (
{
name = ogonek;
position = "{453.423, -8}";
},
{
name = top;
position = "{499.994, 764}";
}
);
layerId = "29CFC173-9C98-4BE1-970A-002FF3BCF672";
paths = (
{
closed = 1;
nodes = (
"99.191 700 LINE",
"99.097 255.596 LINE SMOOTH",
"96 92 OFFCURVE",
"228 -14 OFFCURVE",
"451 -14 CURVE SMOOTH",
"663 -14 OFFCURVE",
"773 82 OFFCURVE",
"775.973 257.34 CURVE SMOOTH",
"776.008 629.976 LINE",
"776.008 790 OFFCURVE",
"835.811 895.235 OFFCURVE",
"957.929 911.398 CURVE",
"957.929 921.398 LINE",
"792.71 940.132 OFFCURVE",
"689.334 790 OFFCURVE",
"689.334 629.976 CURVE",
"689.069 247.399 LINE SMOOTH",
"689 110 OFFCURVE",
"605 37 OFFCURVE",
"497.571 37.495 CURVE SMOOTH",
"382 37 OFFCURVE",
"304 120 OFFCURVE",
"304.088 260.292 CURVE",
"303.985 700 LINE SMOOTH"
);
},
{
closed = 1;
nodes = (
"30 700 LINE",
"30 690 LINE",
"32 690 OFFCURVE",
"44 690 OFFCURVE",
"46 690 CURVE SMOOTH",
"75.183 690.017 OFFCURVE",
"98.619 669.255 OFFCURVE",
"99.161 640.499 CURVE",
"101.564 640.499 LINE",
"101.564 700 LINE"
);
},
{
closed = 1;
nodes = (
"301.547 700 LINE",
"301.547 640.499 LINE",
"303.949 640.499 LINE",
"304 666 OFFCURVE",
"325 690 OFFCURVE",
"356.814 690.017 CURVE SMOOTH",
"359 690 OFFCURVE",
"371 690 OFFCURVE",
"373.11 690 CURVE",
"373.11 700 LINE"
);
}
);
width = 852;
},
{
anchors = (
{
name = ogonek;
position = "{396.423, -7}";
},
{
name = top;
position = "{401.641, 764}";
}
);
associatedMasterId = "A24B85EF-CA04-493E-A47C-A7B61068A6D7";
layerId = "6BAAD0AC-3EFF-4BA3-93F4-D85ED6942EA6";
name = "Regular Apr 18 12, 15:11";
paths = (
{
closed = 1;
nodes = (
"119.191 700 LINE",
"119.097 245.596 LINE SMOOTH",
"119.097 89.838 OFFCURVE",
"230.028 -14 OFFCURVE",
"396.423 -14 CURVE SMOOTH",
"558.153 -14 OFFCURVE",
"665.973 90.536 OFFCURVE",
"665.973 247.34 CURVE SMOOTH",
"666.008 699.976 LINE",
"619.334 699.976 LINE",
"619.198 247.399 LINE SMOOTH",
"619.198 109.457 OFFCURVE",
"530.011 17.495 OFFCURVE",
"396.423 17.495 CURVE SMOOTH",
"269.022 17.495 OFFCURVE",
"184.088 114.614 OFFCURVE",
"184.088 260.292 CURVE",
"183.985 700 LINE SMOOTH"
);
},
{
closed = 1;
nodes = (
"50 700 LINE",
"50 690 LINE",
"50.129 690 OFFCURVE",
"66.167 690.017 OFFCURVE",
"66.294 690.017 CURVE SMOOTH",
"95.183 690.017 OFFCURVE",
"118.619 669.255 OFFCURVE",
"119.161 640.499 CURVE",
"121.564 640.499 LINE",
"121.564 700 LINE"
);
},
{
closed = 1;
nodes = (
"181.547 700 LINE",
"181.547 640.499 LINE",
"183.949 640.499 LINE",
"184.491 669.255 OFFCURVE",
"207.928 690.017 OFFCURVE",
"236.814 690.017 CURVE SMOOTH",
"236.943 690.017 OFFCURVE",
"252.982 690 OFFCURVE",
"253.11 690 CURVE",
"253.11 700 LINE"
);
},
{
closed = 1;
nodes = (
"550.182 700 LINE",
"550.182 690 LINE",
"550.312 690 OFFCURVE",
"566.35 690.017 OFFCURVE",
"566.477 690.017 CURVE SMOOTH",
"595.366 690.017 OFFCURVE",
"618.802 669.255 OFFCURVE",
"619.344 640.499 CURVE",
"621.746 640.499 LINE",
"621.746 700 LINE"
);
},
{
closed = 1;
nodes = (
"663.509 700 LINE",
"663.509 640.499 LINE",
"665.911 640.499 LINE",
"666.453 669.255 OFFCURVE",
"689.891 690.017 OFFCURVE",
"718.777 690.017 CURVE SMOOTH",
"718.906 690.017 OFFCURVE",
"734.944 690 OFFCURVE",
"735.073 690 CURVE",
"735.073 700 LINE"
);
},
{
closed = 1;
nodes = (
"619.198 247.399 LINE SMOOTH",
"619.198 -48 OFFCURVE",
"931.362 -254 OFFCURVE",
"1105.73 -99 CURVE",
"1101.73 -90 LINE",
"896.461 -195 OFFCURVE",
"665.973 16.656 OFFCURVE",
"665.973 247.34 CURVE SMOOTH",
"665.973 288.9 LINE",
"619.198 288.9 LINE"
);
}
);
width = 785;
},
{
anchors = (
{
name = ogonek;
position = "{396.423, -7}";
},
{
name = top;
position = "{401.641, 764}";
}
);
associatedMasterId = "A24B85EF-CA04-493E-A47C-A7B61068A6D7";
layerId = "2D6F9CD3-4094-474D-88D6-BF88FE5AFE22";
name = "Regular Apr 18 12, 15:14";
paths = (
{
closed = 1;
nodes = (
"119.191 700 LINE",
"119.097 245.596 LINE SMOOTH",
"119.097 89.838 OFFCURVE",
"230.028 -14 OFFCURVE",
"396.423 -14 CURVE SMOOTH",
"558.153 -14 OFFCURVE",
"665.956 90.536 OFFCURVE",
"665.973 247.34 CURVE SMOOTH",
"666.002 520.014 LINE SMOOTH",
"666.023 721.325 OFFCURVE",
"806 899.5 OFFCURVE",
"1023.97 861.639 CURVE",
"1023.97 871.639 LINE",
"760.456 909.332 OFFCURVE",
"619.392 720.45 OFFCURVE",
"619.31 518.702 CURVE SMOOTH",
"619.198 247.399 LINE SMOOTH",
"619.142 109.457 OFFCURVE",
"530.011 17.495 OFFCURVE",
"396.423 17.495 CURVE SMOOTH",
"269.022 17.495 OFFCURVE",
"184.088 114.614 OFFCURVE",
"184.088 260.292 CURVE",
"183.985 700 LINE SMOOTH"
);
},
{
closed = 1;
nodes = (
"50 700 LINE",
"50 690 LINE",
"50.129 690 OFFCURVE",
"66.167 690.017 OFFCURVE",
"66.294 690.017 CURVE SMOOTH",
"95.183 690.017 OFFCURVE",
"118.619 669.255 OFFCURVE",
"119.161 640.499 CURVE",
"121.564 640.499 LINE",
"121.564 700 LINE"
);
},
{
closed = 1;
nodes = (
"181.547 700 LINE",
"181.547 640.499 LINE",
"183.949 640.499 LINE",
"184.491 669.255 OFFCURVE",
"207.928 690.017 OFFCURVE",
"236.814 690.017 CURVE SMOOTH",
"236.943 690.017 OFFCURVE",
"252.982 690 OFFCURVE",
"253.11 690 CURVE",
"253.11 700 LINE"
);
}
);
width = 785;
}
);
leftKerningGroup = u;
rightKerningGroup = U;
unicode = 0055;
},
{
glyphname = V;
lastChange = "2012-05-04 15:16:35 +0000";
layers = (
{
layerId = "A24B85EF-CA04-493E-A47C-A7B61068A6D7";
paths = (
{
closed = 1;
nodes = (
"387.28 81 LINE",
"142.107 694 LINE",
"57.047 694 LINE",
"367.266 -14 LINE"
);
},
{
closed = 1;
nodes = (
"376.272 -14 LINE",
"376.272 7.987 OFFCURVE",
"413.298 89 OFFCURVE",
"413.298 89 CURVE",
"691.49 697 LINE SMOOTH",
"738.372 799.463 OFFCURVE",
"802.302 927.797 OFFCURVE",
"968.299 934.573 CURVE",
"968.299 944.573 LINE",
"763.304 952.352 OFFCURVE",
"676.22 815.964 OFFCURVE",
"626.447 697 CURVE SMOOTH",
"358.26 56 LINE",
"367.266 -14 LINE"
);
},
{
closed = 1;
nodes = (
"154.026 667.7 OFFCURVE",
"180.572 690.154 OFFCURVE",
"206.388 690.154 CURVE SMOOTH",
"215.18 690.154 LINE",
"215.18 700.154 LINE",
"-10 700.059 LINE",
"-10 690.059 LINE",
"-10 690.059 OFFCURVE",
"-2 690.059 OFFCURVE",
"-2 690.059 CURVE SMOOTH",
"29.01 690.059 OFFCURVE",
"66.02 671.9 OFFCURVE",
"86.232 627.351 CURVE",
"168.628 627.683 LINE"
);
}
);
width = 718;
},
{
layerId = "29CFC173-9C98-4BE1-970A-002FF3BCF672";
paths = (
{
closed = 1;
nodes = (
"456.869 232 LINE",
"263.806 693.905 LINE",
"23.746 693.905 LINE",
"368.965 -24 LINE SMOOTH"
);
},
{
closed = 1;
nodes = (
"377.971 -24 LINE",
"381.971 9.717 OFFCURVE",
"423.267 100.078 OFFCURVE",
"435.018 125.133 CURVE",
"696.189 696.905 LINE SMOOTH",
"725.61 761.316 OFFCURVE",
"802.194 925.464 OFFCURVE",
"965.515 937.494 CURVE",
"965.515 947.494 LINE",
"752.557 975.494 OFFCURVE",
"648.14 772.831 OFFCURVE",
"615.146 696.905 CURVE SMOOTH",
"369.079 132.457 LINE",
"368.965 -24 LINE"
);
},
{
closed = 1;
nodes = (
"277.634 667.336 OFFCURVE",
"304.564 690.089 OFFCURVE",
"330.38 690.089 CURVE SMOOTH",
"339.172 690.089 LINE",
"339.172 700 LINE",
"-40 700 LINE",
"-40 690 LINE",
"-40 690 OFFCURVE",
"-32 690 OFFCURVE",
"-32 690 CURVE SMOOTH",
"-1 690 OFFCURVE",
"34.135 671.536 OFFCURVE",
"56.347 626.987 CURVE",
"292.236 627.319 LINE"
);
}
);
width = 720;
}
);
leftKerningGroup = v;
rightKerningGroup = V;
unicode = 0056;
},
{
glyphname = W;
lastChange = "2012-05-04 15:01:37 +0000";
layers = (
{
anchors = (
{
name = top;
position = "{506.871, 764}";
}
);
layerId = "A24B85EF-CA04-493E-A47C-A7B61068A6D7";
paths = (
{
closed = 1;
nodes = (
"152.138 667.528 OFFCURVE",
"177.626 690.086 OFFCURVE",
"203.442 690.086 CURVE SMOOTH",
"212.234 690.086 LINE",
"212.234 700 LINE",
"-10 700 LINE",
"-10 690 LINE",
"-10 690 OFFCURVE",
"-2 690 OFFCURVE",
"-2 690 CURVE SMOOTH",
"28.994 690 OFFCURVE",
"70.004 672.059 OFFCURVE",
"86.216 627.51 CURVE",
"164.74 627.51 LINE"
);
},
{
closed = 1;
nodes = (
"298.828 26.888 LINE",
"329.644 96.962 LINE",
"144.099 693.934 LINE",
"62.662 693.96 LINE"
);
},
{
closed = 1;
nodes = (
"519.16 634.818 LINE",
"510.991 715.642 LINE",
"501.869 715.642 LINE",
"294.518 76.784 LINE SMOOTH",
"253.453 -50 OFFCURVE",
"154.735 -175 OFFCURVE",
"37.209 -152 CURVE",
"35.209 -162 LINE",
"180.233 -194 OFFCURVE",
"288.599 -86 OFFCURVE",
"333.691 55.236 CURVE SMOOTH"
);
},
{
closed = 1;
nodes = (
"477.49 607.38 LINE",
"698.988 -12 LINE",
"721.446 125.554 LINE",
"511.182 715.321 LINE"
);
},
{
closed = 1;
nodes = (
"686.885 86.933 LINE",
"698.988 -12 LINE",
"708.424 -12 LINE",
"709.955 35.624 OFFCURVE",
"730.285 99.156 OFFCURVE",
"730.285 99.156 CURVE",
"922.407 656.45 LINE SMOOTH",
"959.038 762.707 OFFCURVE",
"1038.22 927.247 OFFCURVE",
"1204.22 934.023 CURVE",
"1204.22 944.023 LINE",
"999.221 951.802 OFFCURVE",
"894.378 780.102 OFFCURVE",
"857.364 656.45 CURVE SMOOTH"
);
}
);
width = 954;
},
{
anchors = (
{
name = top;
position = "{550.309, 764}";
}
);
guideLines = (
{
position = "{487.595, 369.67}";
}
);
layerId = "29CFC173-9C98-4BE1-970A-002FF3BCF672";
paths = (
{
closed = 1;
nodes = (
"248.277 667.528 OFFCURVE",
"274.501 690.086 OFFCURVE",
"300.317 690.086 CURVE SMOOTH",
"309.109 690.086 LINE",
"309.109 700 LINE",
"-50 700 LINE",
"-50 690 LINE",
"-50 690 OFFCURVE",
"-42 690 OFFCURVE",
"-42 690 CURVE SMOOTH",
"-11 690 OFFCURVE",
"28.004 672.059 OFFCURVE",
"46.216 627.51 CURVE",
"262.879 627.51 LINE"
);
},
{
closed = 1;
nodes = (
"264.581 47.352 LINE",
"379.851 336.447 LINE",
"236.231 693.934 LINE",
"20.794 693.96 LINE"
);
},
{
closed = 1;
nodes = (
"579.292 604.818 LINE",
"554.123 715.642 LINE",
"545 715.642 LINE",
"254.879 112.099 LINE SMOOTH",
"231.793 64.073 OFFCURVE",
"150.965 -144 OFFCURVE",
"0.886 -170 CURVE",
"0.886 -180 LINE",
"154.248 -220 OFFCURVE",
"266.333 -38 OFFCURVE",
"300.511 32.456 CURVE SMOOTH"
);
},
{
closed = 1;
nodes = (
"462.242 456.429 LINE",
"716.12 -22 LINE",
"781.118 295.908 LINE",
"554.314 715.321 LINE"
);
},
{
closed = 1;
nodes = (
"677.017 76.933 LINE",
"716.12 -22 LINE",
"725.556 -22 LINE",
"720.087 27.624 OFFCURVE",
"740.417 89.156 OFFCURVE",
"740.417 89.156 CURVE",
"925.722 694.217 LINE SMOOTH",
"960.718 808.487 OFFCURVE",
"1034.73 922.776 OFFCURVE",
"1198.05 934.806 CURVE",
"1198.05 944.806 LINE",
"985.09 972.806 OFFCURVE",
"882.838 821.387 OFFCURVE",
"847.679 694.217 CURVE SMOOTH"
);
}
);
width = 964;
}
);
leftKerningGroup = w;
rightKerningGroup = W;
unicode = 0057;
},
{
glyphname = X;
lastChange = "2012-05-05 22:26:29 +0000";
layers = (
{
layerId = "A24B85EF-CA04-493E-A47C-A7B61068A6D7";
paths = (
{
closed = 1;
nodes = (
"6.808 700 LINE",
"6.808 690.034 LINE",
"20.808 690.034 LINE SMOOTH",
"62.805 690.034 OFFCURVE",
"100.325 662.076 OFFCURVE",
"121.602 631.204 CURVE",
"201.829 627.952 LINE",
"185.098 656.338 OFFCURVE",
"209.554 690.034 OFFCURVE",
"236.828 690.034 CURVE SMOOTH",
"236.828 690.034 OFFCURVE",
"249.426 690.034 OFFCURVE",
"249.426 690.034 CURVE",
"249.426 700 LINE"
);
},
{
closed = 1;
nodes = (
"78.058 699.976 LINE",
"521.034 1 LINE",
"601.029 1 LINE",
"156.053 699.976 LINE"
);
},
{
closed = 1;
nodes = (
"303.599 377.411 LINE",
"79.53 61.795 LINE SMOOTH",
"19.786 -22 OFFCURVE",
"-58 -134 OFFCURVE",
"-172 -139 CURVE",
"-172 -149 LINE",
"-48 -165 OFFCURVE",
"40.831 -99 OFFCURVE",
"129.538 30.847 CURVE SMOOTH",
"335.369 333.002 LINE"
);
},
{
closed = 1;
nodes = (
"493.073 43.192 OFFCURVE",
"468.616 10 OFFCURVE",
"441.343 10 CURVE SMOOTH",
"441.343 10 OFFCURVE",
"428.744 10 OFFCURVE",
"428.744 10 CURVE",
"428.744 0 LINE",
"672.581 0 LINE",
"672.581 10 LINE",
"658.949 10 LINE SMOOTH",
"616.951 10 OFFCURVE",
"579.432 37.454 OFFCURVE",
"558.154 68.326 CURVE",
"476.341 71.578 LINE"
);
},
{
closed = 1;
nodes = (
"349.061 348.676 LINE",
"581.408 666.723 LINE SMOOTH",
"633.14 735.745 OFFCURVE",
"698.857 844.075 OFFCURVE",
"806.896 845.6 CURVE",
"806.896 855.6 LINE",
"689.406 865.6 OFFCURVE",
"612.085 809.218 OFFCURVE",
"528.247 690.147 CURVE SMOOTH",
"320.073 393.884 LINE"
);
}
);
width = 662;
},
{
layerId = "29CFC173-9C98-4BE1-970A-002FF3BCF672";
paths = (
{
closed = 1;
nodes = (
"-27 700 LINE",
"-27 690.034 LINE",
"-13 690.034 LINE SMOOTH",
"28.662 690.034 OFFCURVE",
"67.475 662.076 OFFCURVE",
"88.291 631.204 CURVE",
"328.592 627.952 LINE",
"311.366 656.338 OFFCURVE",
"335.234 690.034 OFFCURVE",
"362.508 690.034 CURVE SMOOTH",
"362.508 690.034 OFFCURVE",
"375.106 690.034 OFFCURVE",
"375.106 690.034 CURVE",
"374.932 700 LINE"
);
},
{
closed = 1;
nodes = (
"43.498 699.976 LINE",
"498.674 1 LINE",
"738.669 1 LINE",
"281.492 699.976 LINE"
);
},
{
closed = 1;
nodes = (
"290.935 355.406 LINE",
"30.657 0.036 LINE SMOOTH",
"-27 -79 OFFCURVE",
"-67 -127 OFFCURVE",
"-174 -140 CURVE",
"-174 -150 LINE",
"-73 -170 OFFCURVE",
"30.161 -136 OFFCURVE",
"128.147 0.036 CURVE SMOOTH",
"357.526 319.407 LINE"
);
},
{
closed = 1;
nodes = (
"469.932 43.192 OFFCURVE",
"446.055 10 OFFCURVE",
"418.782 10 CURVE SMOOTH",
"418.782 10 OFFCURVE",
"406.183 10 OFFCURVE",
"406.183 10 CURVE",
"406.357 0 LINE",
"810.259 0 LINE",
"810.085 10 LINE",
"796.453 10 LINE SMOOTH",
"754.455 10 OFFCURVE",
"715.456 37.454 OFFCURVE",
"694.64 68.326 CURVE",
"452.705 71.578 LINE"
);
},
{
closed = 1;
nodes = (
"455.292 332.693 LINE",
"701.469 699.981 LINE SMOOTH",
"746.375 766.98 OFFCURVE",
"806.153 854.077 OFFCURVE",
"888.495 856.125 CURVE",
"888.495 866.125 LINE",
"762.821 880.744 OFFCURVE",
"660.014 783.809 OFFCURVE",
"604.473 699.981 CURVE SMOOTH",
"406.177 400.692 LINE"
);
}
);
width = 773;
}
);
leftKerningGroup = X;
rightKerningGroup = X;
unicode = 0058;
},
{
glyphname = Y;
lastChange = "2012-05-05 22:13:07 +0000";
layers = (
{
anchors = (
{
name = top;
position = "{331.112, 764}";
}
);
layerId = "A24B85EF-CA04-493E-A47C-A7B61068A6D7";
paths = (
{
closed = 1;
nodes = (
"284.586 72.864 LINE",
"284 38 OFFCURVE",
"255 10 OFFCURVE",
"221 10 CURVE SMOOTH",
"219 10 OFFCURVE",
"210 10 OFFCURVE",
"207.882 10 CURVE",
"207.721 0 LINE",
"287.496 0 LINE",
"287.496 72.864 LINE"
);
},
{
closed = 1;
nodes = (
"346.693 0 LINE",
"426.468 0 LINE",
"426.307 10 LINE",
"424 10 OFFCURVE",
"416 10 OFFCURVE",
"414 10 CURVE SMOOTH",
"377 10 OFFCURVE",
"350 40 OFFCURVE",
"349.603 72.864 CURVE",
"346.693 72.864 LINE"
);
},
{
closed = 1;
nodes = (
"-40 747.139 LINE",
"125.856 747.139 OFFCURVE",
"284.572 397.808 OFFCURVE",
"284.572 221.296 CURVE",
"284.572 0 LINE",
"349.59 0 LINE",
"349.59 220.367 LINE",
"349.59 385.23 OFFCURVE",
"500.423 747.139 OFFCURVE",
"658.831 747.139 CURVE",
"658.831 757.139 LINE",
"461.831 757.139 OFFCURVE",
"387.058 532.384 OFFCURVE",
"328.037 375.779 CURVE",
"278.265 511.504 OFFCURVE",
"204.888 767.139 OFFCURVE",
"-40 757.139 CURVE"
);
}
);
width = 618;
},
{
anchors = (
{
name = top;
position = "{364.859, 764}";
}
);
layerId = "29CFC173-9C98-4BE1-970A-002FF3BCF672";
paths = (
{
closed = 1;
nodes = (
"245.723 72.864 LINE",
"245.131 38 OFFCURVE",
"216.131 10 OFFCURVE",
"182.131 10 CURVE SMOOTH",
"180.131 10 OFFCURVE",
"171.131 10 OFFCURVE",
"169.019 10 CURVE",
"168.858 0 LINE",
"248.633 0 LINE",
"248.633 72.864 LINE"
);
},
{
closed = 1;
nodes = (
"447.83 0 LINE",
"527.605 0 LINE",
"527.444 10 LINE",
"525.131 10 OFFCURVE",
"517.131 10 OFFCURVE",
"515.131 10 CURVE SMOOTH",
"478.131 10 OFFCURVE",
"451.131 40 OFFCURVE",
"450.74 72.864 CURVE",
"447.83 72.864 LINE"
);
},
{
closed = 1;
nodes = (
"-85 749 LINE",
"101.854 733.427 OFFCURVE",
"215.757 467.855 OFFCURVE",
"245.757 322.282 CURVE",
"245.709 0 LINE",
"450.727 0 LINE",
"450.727 321.754 LINE",
"470.727 467.502 OFFCURVE",
"610.221 743.251 OFFCURVE",
"739.968 749 CURVE",
"739.968 759 LINE",
"599.39 769.586 OFFCURVE",
"468.813 610.171 OFFCURVE",
"418.235 460.757 CURVE",
"345.823 660.171 OFFCURVE",
"159.412 779.586 OFFCURVE",
"-85 759 CURVE"
);
}
);
width = 699;
}
);
leftKerningGroup = Y;
rightKerningGroup = Y;
unicode = 0059;
},
{
glyphname = Z;
lastChange = "2012-05-05 15:04:46 +0000";
layers = (
{
anchors = (
{
name = top;
position = "{324, 764}";
}
);
layerId = "A24B85EF-CA04-493E-A47C-A7B61068A6D7";
paths = (
{
closed = 1;
nodes = (
"74.301 673.565 LINE",
"74.301 593.264 LINE",
"84.366 593.414 LINE",
"84.347 611.238 LINE SMOOTH",
"84.347 643.815 OFFCURVE",
"110.452 670.247 OFFCURVE",
"142.876 670.857 CURVE",
"142.876 673.565 LINE"
);
},
{
closed = 1;
nodes = (
"74.301 689.918 LINE",
"196.232 700.996 LINE",
"152.872 700.996 OFFCURVE",
"93.25 711.21 OFFCURVE",
"74.301 719.196 CURVE"
);
},
{
closed = 1;
nodes = (
"567.791 707.817 OFFCURVE",
"513.843 701.098 OFFCURVE",
"473.627 701.098 CURVE",
"74.348 700.737 LINE",
"74.348 670.856 LINE",
"480.247 670.855 LINE",
"60.184 9.322 LINE",
"60 0 LINE",
"133.584 0 LINE",
"579.594 705.328 LINE",
"579.594 705.33 OFFCURVE",
"579.594 714 OFFCURVE",
"579.594 714 CURVE"
);
},
{
closed = 1;
nodes = (
"60.015 0 LINE",
"197.025 11 OFFCURVE",
"745.156 -381 OFFCURVE",
"996.212 -89 CURVE",
"991.213 -81 LINE",
"811 -158 OFFCURVE",
"660.776 -154 OFFCURVE",
"250 -19 CURVE SMOOTH",
"190.059 0.667 OFFCURVE",
"147.44 17.706 OFFCURVE",
"87.498 27.373 CURVE"
);
}
);
width = 636;
},
{
anchors = (
{
name = top;
position = "{335, 764}";
}
);
layerId = "29CFC173-9C98-4BE1-970A-002FF3BCF672";
paths = (
{
closed = 1;
nodes = (
"49.342 653.572 LINE",
"49.342 513.271 LINE",
"59.442 513.421 LINE",
"59.423 521.245 LINE SMOOTH",
"59.229 601.123 OFFCURVE",
"106.968 650.341 OFFCURVE",
"187.952 650.864 CURVE",
"187.952 653.572 LINE"
);
},
{
closed = 1;
nodes = (
"49.342 689.751 LINE",
"171.273 700.829 LINE",
"127.913 700.829 OFFCURVE",
"68.291 711.043 OFFCURVE",
"49.342 719.03 CURVE"
);
},
{
closed = 1;
nodes = (
"608.791 707.817 OFFCURVE",
"554.843 701.098 OFFCURVE",
"514.627 701.098 CURVE",
"49.348 700.737 LINE",
"49.348 650.856 LINE",
"367.247 650.855 LINE",
"35.184 9.322 LINE",
"35 0 LINE",
"259.012 0 LINE",
"620.594 705.328 LINE",
"620.594 705.33 OFFCURVE",
"620.594 714 OFFCURVE",
"620.594 714 CURVE"
);
},
{
closed = 1;
nodes = (
"34.955 0 LINE",
"352.43 0 OFFCURVE",
"811.383 -471 OFFCURVE",
"1094.85 -127 CURVE",
"1086.85 -120 LINE",
"902.411 -190 OFFCURVE",
"590.756 -62 OFFCURVE",
"240.845 13.486 CURVE SMOOTH",
"181.734 26.232 OFFCURVE",
"121.532 37.474 OFFCURVE",
"60.666 46 CURVE"
);
}
);
width = 659;
}
);
leftKerningGroup = z;
rightKerningGroup = Z;
unicode = 005A;
},
{
glyphname = a;
lastChange = "2012-05-05 14:18:26 +0000";
layers = (
{
anchors = (
{
name = ogonek;
position = "{460.38, 10.333}";
},
{
name = top;
position = "{355.899, 764}";
}
);
hints = (
{
horizontal = 1;
place = "{600, 14}";
type = Stem;
}
);
layerId = "A24B85EF-CA04-493E-A47C-A7B61068A6D7";
paths = (
{
closed = 1;
nodes = (
"339.4 619 LINE",
"569.573 6.095 LINE",
"654.633 6.095 LINE",
"359.414 714 LINE"
);
},
{
closed = 1;
nodes = (
"86.66 73.013 LINE",
"66.448 28.464 OFFCURVE",
"29.438 10 OFFCURVE",
"-1 10 CURVE SMOOTH",
"-1 10 OFFCURVE",
"-10 10 OFFCURVE",
"-10 10 CURVE",
"-10 0 LINE",
"191.278 0 LINE",
"191.278 9.908 LINE",
"182.486 9.908 LINE SMOOTH",
"156.669 9.908 OFFCURVE",
"129.884 32.664 OFFCURVE",
"144.486 72.681 CURVE"
);
},
{
closed = 1;
nodes = (
"350.408 714 LINE",
"350.408 692.013 OFFCURVE",
"313.382 611 OFFCURVE",
"313.382 611 CURVE",
"57.19 3.095 LINE",
"117.233 3.095 LINE",
"368.42 644 LINE",
"359.414 714 LINE"
);
},
{
closed = 1;
nodes = (
"187.293 273 LINE",
"187.293 243 LINE",
"499.513 243 LINE",
"499.513 273 LINE"
);
},
{
closed = 1;
nodes = (
"559.169 32.664 OFFCURVE",
"532.384 9.911 OFFCURVE",
"506.568 9.911 CURVE SMOOTH",
"497.776 9.911 LINE",
"497.776 0 LINE",
"722.956 0 LINE",
"722.956 10 LINE",
"722.956 10 OFFCURVE",
"714.593 10 OFFCURVE",
"714.593 10 CURVE SMOOTH",
"683.946 10 OFFCURVE",
"646.936 28.464 OFFCURVE",
"626.724 73.013 CURVE",
"544.567 72.681 LINE"
);
}
);
width = 712;
},
{
anchors = (
{
name = ogonek;
position = "{578.344, 9.972}";
},
{
name = top;
position = "{350.281, 764}";
}
);
guideLines = (
{
position = "{146.325, 600}";
},
{
position = "{26.211, 614}";
}
);
layerId = "29CFC173-9C98-4BE1-970A-002FF3BCF672";
paths = (
{
closed = 1;
nodes = (
"263.51 468 LINE",
"456.573 6.095 LINE",
"696.633 6.095 LINE",
"351.414 724 LINE SMOOTH"
);
},
{
closed = 1;
nodes = (
"56.7 73.013 LINE",
"35.488 28.464 OFFCURVE",
"-1 10 OFFCURVE",
"-31 10 CURVE SMOOTH",
"-31 10 OFFCURVE",
"-40 10 OFFCURVE",
"-40 10 CURVE",
"-40 0 LINE",
"183.279 0 LINE",
"183.279 9.908 LINE",
"174.487 9.908 LINE SMOOTH",
"148.67 9.908 OFFCURVE",
"118.49 32.664 OFFCURVE",
"136.092 72.681 CURVE"
);
},
{
closed = 1;
nodes = (
"342.408 724 LINE",
"338.408 690.283 OFFCURVE",
"297.112 599.922 OFFCURVE",
"285.361 574.867 CURVE",
"24.19 3.095 LINE",
"105.233 3.095 LINE",
"351.3 567.543 LINE",
"351.414 724 LINE"
);
},
{
closed = 1;
nodes = (
"150.293 216 LINE",
"150.293 166 LINE",
"432.513 166 LINE",
"432.513 216 LINE"
);
},
{
closed = 1;
nodes = (
"444.745 32.664 OFFCURVE",
"415.815 9.911 OFFCURVE",
"389.999 9.911 CURVE SMOOTH",
"381.207 9.911 LINE",
"381.207 0 LINE",
"760.264 0 LINE",
"760.264 10 LINE",
"760.264 10 OFFCURVE",
"751.901 10 OFFCURVE",
"751.901 10 CURVE SMOOTH",
"721.254 10 OFFCURVE",
"686.244 28.464 OFFCURVE",
"664.032 73.013 CURVE",
"428.143 72.681 LINE"
);
}
);
width = 720;
}
);
leftKerningGroup = a;
rightKerningGroup = a;
unicode = 0061;
},
{
glyphname = aogonek;
lastChange = "2012-04-24 13:58:41 +0000";
layers = (
{
layerId = "A24B85EF-CA04-493E-A47C-A7B61068A6D7";
paths = (
{
closed = 1;
nodes = (
"352.736 619 LINE",
"597.909 2 LINE",
"682.969 6 LINE",
"372.75 714 LINE"
);
},
{
closed = 1;
nodes = (
"363.744 714 LINE",
"363.744 692.013 OFFCURVE",
"326.718 611 OFFCURVE",
"326.718 611 CURVE",
"55.526 3 LINE",
"115.569 3 LINE",
"381.756 644 LINE",
"372.75 714 LINE"
);
},
{
closed = 1;
nodes = (
"200.629 273 LINE",
"200.629 243 LINE",
"512.849 243 LINE",
"512.849 273 LINE"
);
},
{
closed = 1;
nodes = (
"86.627 72.918 LINE",
"66.415 28.369 OFFCURVE",
"29.405 10.21 OFFCURVE",
"-1 10.21 CURVE SMOOTH",
"-1 10.21 OFFCURVE",
"-10 10.21 OFFCURVE",
"-10 10.21 CURVE",
"-10 0.21 LINE",
"191.245 0.115 LINE",
"191.245 10.115 LINE",
"182.453 10.115 LINE SMOOTH",
"156.636 10.115 OFFCURVE",
"129.851 32.569 OFFCURVE",
"144.453 72.586 CURVE"
);
},
{
closed = 1;
nodes = (
"655.046 7.331 OFFCURVE",
"664.685 0.1 OFFCURVE",
"748.035 0.1 CURVE",
"748.035 9.191 LINE",
"748.035 9.191 OFFCURVE",
"739.235 9.191 OFFCURVE",
"739.235 9.191 CURVE SMOOTH",
"709.453 9.191 OFFCURVE",
"674.184 27.199 OFFCURVE",
"655.81 68.016 CURVE",
"570.184 71.824 LINE",
"586.095 29.734 OFFCURVE",
"580.601 7.709 OFFCURVE",
"551.821 -8 CURVE SMOOTH",
"527.053 -22 OFFCURVE",
"502.106 -49 OFFCURVE",
"502.508 -84 CURVE SMOOTH",
"503.832 -200 OFFCURVE",
"649.298 -201 OFFCURVE",
"679.521 -119 CURVE",
"673.521 -113 LINE",
"624.393 -164 OFFCURVE",
"549.55 -128 OFFCURVE",
"549.55 -71 CURVE SMOOTH",
"549.55 -40 OFFCURVE",
"569.969 -7 OFFCURVE",
"612.321 0 CURVE SMOOTH"
);
}
);
width = 737;
},
{
layerId = "29CFC173-9C98-4BE1-970A-002FF3BCF672";
paths = (
{
closed = 1;
nodes = (
"263.51 458 LINE",
"448.812 24.262 LINE",
"681.781 36.551 LINE",
"351.414 714 LINE SMOOTH"
);
},
{
closed = 1;
nodes = (
"342.408 714 LINE",
"338.408 680.283 OFFCURVE",
"297.112 589.922 OFFCURVE",
"285.361 564.867 CURVE",
"24.19 3.095 LINE",
"105.233 3.095 LINE",
"351.3 557.543 LINE",
"351.414 714 LINE"
);
},
{
closed = 1;
nodes = (
"150.293 216 LINE",
"150.293 166 LINE",
"432.513 166 LINE",
"432.513 216 LINE"
);
},
{
closed = 1;
nodes = (
"56.7 73.013 LINE",
"35.488 28.464 OFFCURVE",
"-1 10 OFFCURVE",
"-31 10 CURVE SMOOTH",
"-31 10 OFFCURVE",
"-40 10 OFFCURVE",
"-40 10 CURVE",
"-40 0 LINE",
"183.279 0 LINE",
"183.279 9.908 LINE",
"174.487 9.908 LINE SMOOTH",
"148.67 9.908 OFFCURVE",
"118.49 32.664 OFFCURVE",
"136.092 72.681 CURVE"
);
},
{
closed = 1;
nodes = (
"574 17 OFFCURVE",
"734 1 OFFCURVE",
"760.264 0 CURVE",
"760.264 10.38 LINE",
"760.264 10.38 OFFCURVE",
"751.901 12 OFFCURVE",
"751.901 12 CURVE SMOOTH",
"721.254 18 OFFCURVE",
"686.244 28.464 OFFCURVE",
"664.032 73.013 CURVE",
"428.143 73.013 LINE",
"444 33 OFFCURVE",
"442 14 OFFCURVE",
"421 0 CURVE SMOOTH",
"388 -22 OFFCURVE",
"359 -37 OFFCURVE",
"351 -84 CURVE SMOOTH",
"328 -220 OFFCURVE",
"548 -257 OFFCURVE",
"555.404 -121 CURVE",
"549.404 -115 LINE",
"501 -155 OFFCURVE",
"442 -133 OFFCURVE",
"437 -73 CURVE SMOOTH",
"434 -42 OFFCURVE",
"448 -12 OFFCURVE",
"501 0 CURVE SMOOTH"
);
}
);
width = 720;
}
);
leftKerningGroup = a;
leftMetricsKey = a;
rightKerningGroup = a;
rightMetricsKey = a;
unicode = 0105;
},
{
glyphname = ae;
lastChange = "2012-05-04 12:06:31 +0000";
layers = (
{
anchors = (
{
name = top;
position = "{624.715, 500}";
}
);
guideLines = (
{
position = "{330.93, 600}";
}
);
layerId = "A24B85EF-CA04-493E-A47C-A7B61068A6D7";
paths = (
{
closed = 1;
nodes = (
"89.205 71.347 LINE",
"69.468 39.672 OFFCURVE",
"30.182 10 OFFCURVE",
"-3 10 CURVE SMOOTH",
"-3 10 OFFCURVE",
"-10 10 OFFCURVE",
"-10 10 CURVE",
"-10 0 LINE",
"188.523 0 LINE",
"188.523 10 LINE",
"179.077 10 LINE SMOOTH",
"149.011 8.202 OFFCURVE",
"135.686 38.665 OFFCURVE",
"152.534 67.329 CURVE"
);
},
{
closed = 1;
nodes = (
"465.555 653.94 LINE",
"465.555 0 LINE",
"530.588 0 LINE",
"530.588 700 LINE"
);
},
{
closed = 1;
nodes = (
"465.55 58.357 LINE",
"465.046 31.561 OFFCURVE",
"443.202 9.984 OFFCURVE",
"416.278 9.984 CURVE SMOOTH",
"416.161 9.984 OFFCURVE",
"406.668 10 OFFCURVE",
"406.547 10 CURVE",
"406.423 0 LINE",
"467.788 0 LINE",
"467.788 58.357 LINE"
);
},
{
closed = 1;
nodes = (
"527.769 30.59 LINE",
"527.769 0 LINE",
"800.544 0 LINE",
"800.544 30.59 LINE"
);
},
{
closed = 1;
nodes = (
"297.949 350.218 LINE",
"292.949 320.218 LINE",
"757.946 320.218 LINE",
"757.946 350.218 LINE"
);
},
{
closed = 1;
nodes = (
"437.553 700 LINE",
"437.553 690 LINE",
"441.553 690 LINE",
"460.307 690 OFFCURVE",
"471.17 672.717 OFFCURVE",
"463.278 655.434 CURVE",
"45.526 3 LINE",
"114.569 3 LINE",
"487.757 635.308 LINE SMOOTH",
"490.757 669.409 LINE",
"800.498 669.409 LINE",
"800.498 700 LINE"
);
},
{
closed = 1;
nodes = (
"847.685 138.8 LINE",
"821.347 75.876 OFFCURVE",
"772.841 30.576 OFFCURVE",
"692.706 30.576 CURVE",
"662.703 0 LINE",
"801.993 0 LINE",
"857.685 138.8 LINE"
);
},
{
closed = 1;
nodes = (
"699.59 322.487 LINE",
"699.59 320.249 LINE",
"726.385 319.745 OFFCURVE",
"747.961 297.901 OFFCURVE",
"747.961 270.977 CURVE SMOOTH",
"747.946 256.243 LINE",
"757.946 256.119 LINE",
"757.946 322.487 LINE"
);
},
{
closed = 1;
nodes = (
"747.946 414.25 LINE",
"747.963 399.516 LINE SMOOTH",
"747.963 372.593 OFFCURVE",
"726.385 350.753 OFFCURVE",
"699.59 350.248 CURVE",
"699.59 348.012 LINE",
"757.946 348.012 LINE",
"757.946 414.375 LINE"
);
},
{
closed = 1;
nodes = (
"742.143 671.625 LINE",
"742.143 669.387 LINE",
"768.94 668.883 OFFCURVE",
"790.514 647.038 OFFCURVE",
"790.514 620.115 CURVE SMOOTH",
"790.498 605.384 LINE",
"800.498 605.26 LINE",
"800.498 671.625 LINE"
);
},
{
closed = 1;
nodes = (
"781.549 710.201 OFFCURVE",
"721.926 699.987 OFFCURVE",
"678.567 699.987 CURVE",
"800.498 688.909 LINE",
"800.498 718.187 LINE"
);
}
);
width = 901;
},
{
anchors = (
{
name = top;
position = "{300, 498.381}";
}
);
layerId = "29CFC173-9C98-4BE1-970A-002FF3BCF672";
paths = (
{
closed = 1;
nodes = (
"63.613 73.013 LINE",
"32.401 28.464 OFFCURVE",
"5.913 10 OFFCURVE",
"-24 10 CURVE SMOOTH",
"-24 10 OFFCURVE",
"-33 10 OFFCURVE",
"-33 10 CURVE",
"-33 0 LINE",
"204.972 0 LINE",
"204.972 9.908 LINE",
"196.18 9.908 LINE SMOOTH",
"170.363 9.908 OFFCURVE",
"133.183 32.664 OFFCURVE",
"157.785 72.681 CURVE"
);
},
{
closed = 1;
nodes = (
"465.555 653.94 LINE",
"465.555 0 LINE",
"670.588 0 LINE",
"670.588 700 LINE"
);
},
{
closed = 1;
nodes = (
"465.55 58.357 LINE",
"465.046 31.561 OFFCURVE",
"443.202 9.984 OFFCURVE",
"416.278 9.984 CURVE SMOOTH",
"416.161 9.984 OFFCURVE",
"406.668 10 OFFCURVE",
"406.547 10 CURVE",
"406.423 0 LINE",
"467.788 0 LINE",
"467.788 58.357 LINE"
);
},
{
closed = 1;
nodes = (
"667.769 50.59 LINE",
"667.769 0 LINE",
"940.544 0 LINE",
"940.544 50.59 LINE"
);
},
{
closed = 1;
nodes = (
"297.949 367.218 LINE",
"292.949 317.218 LINE",
"887.604 317.218 LINE",
"887.604 367.218 LINE"
);
},
{
closed = 1;
nodes = (
"426.553 700 LINE",
"426.553 690 LINE",
"431.553 690 LINE",
"456.779 690 OFFCURVE",
"471.068 667.91 OFFCURVE",
"453.227 640.789 CURVE",
"15.526 3 LINE",
"114.569 3 LINE",
"487.757 605.308 LINE SMOOTH",
"550.757 649.409 LINE",
"940.498 649.409 LINE",
"940.498 700 LINE"
);
},
{
closed = 1;
nodes = (
"991.417 231.543 LINE",
"960.325 117.359 OFFCURVE",
"879.855 50.592 OFFCURVE",
"783.892 50.592 CURVE",
"747.588 0 LINE",
"963.129 0 LINE",
"1001.42 231.543 LINE"
);
},
{
closed = 1;
nodes = (
"769.476 319.644 LINE",
"769.476 317.406 LINE",
"832.95 316.212 OFFCURVE",
"878.059 270.942 OFFCURVE",
"877.847 208.134 CURVE SMOOTH",
"877.831 203.4 LINE",
"887.604 203.276 LINE",
"887.604 319.644 LINE"
);
},
{
closed = 1;
nodes = (
"877.831 481.11 LINE",
"877.848 476.376 LINE SMOOTH",
"878.073 413.574 OFFCURVE",
"833.023 368.306 OFFCURVE",
"769.476 367.108 CURVE",
"769.476 364.872 LINE",
"887.604 364.872 LINE",
"887.604 481.235 LINE"
);
},
{
closed = 1;
nodes = (
"801.808 652.218 LINE",
"801.808 649.51 LINE",
"882.792 647.987 OFFCURVE",
"930.531 599.769 OFFCURVE",
"930.337 519.891 CURVE SMOOTH",
"930.318 512.067 LINE",
"940.418 511.917 LINE",
"940.418 652.218 LINE"
);
},
{
closed = 1;
nodes = (
"921.434 710.201 OFFCURVE",
"861.812 699.987 OFFCURVE",
"818.452 699.987 CURVE",
"940.383 688.909 LINE",
"940.383 718.187 LINE"
);
}
);
width = 1014;
}
);
leftKerningGroup = a;
rightKerningGroup = e;
rightMetricsKey = e;
unicode = 00E6;
},
{
glyphname = b;
lastChange = "2012-05-10 12:18:14 +0000";
layers = (
{
layerId = "A24B85EF-CA04-493E-A47C-A7B61068A6D7";
paths = (
{
closed = 1;
nodes = (
"152.611 700 OFFCURVE",
"162.663 669.483 OFFCURVE",
"162.663 667.949 CURVE",
"255.176 667.818 LINE",
"350 668 OFFCURVE",
"401 616 OFFCURVE",
"401.384 525.604 CURVE SMOOTH",
"401 397 OFFCURVE",
"297 379 OFFCURVE",
"236.016 379.222 CURVE",
"236.244 369.81 LINE",
"333 370 OFFCURVE",
"462 345 OFFCURVE",
"461.907 195.122 CURVE SMOOTH",
"462 94 OFFCURVE",
"403 36 OFFCURVE",
"300.375 36.47 CURVE",
"193.994 36.47 LINE",
"193.994 36.47 OFFCURVE",
"193.136 0 OFFCURVE",
"193.136 0 CURVE",
"303.994 0 LINE SMOOTH",
"453 0 OFFCURVE",
"537 75 OFFCURVE",
"536.907 187.941 CURVE SMOOTH",
"537 287 OFFCURVE",
"472 365 OFFCURVE",
"365.549 380.853 CURVE",
"422 397 OFFCURVE",
"476 448 OFFCURVE",
"476.384 532.796 CURVE SMOOTH",
"476 633 OFFCURVE",
"399 700 OFFCURVE",
"258.795 700 CURVE SMOOTH",
"152.611 700 LINE SMOOTH"
);
},
{
closed = 1;
nodes = (
"137.197 700 LINE",
"137.197 0 LINE",
"202.314 0 LINE",
"202.314 700 LINE"
);
},
{
closed = 1;
nodes = (
"137.213 72.864 LINE",
"136.558 38.029 OFFCURVE",
"108.161 9.979 OFFCURVE",
"73.16 9.979 CURVE SMOOTH",
"71 10 OFFCURVE",
"63 10 OFFCURVE",
"60.51 10 CURVE",
"60.348 0 LINE",
"140.123 0 LINE",
"140.123 72.864 LINE"
);
},
{
closed = 1;
nodes = (
"140.126 700.06 LINE",
"60.351 700.06 LINE",
"60.513 690.06 LINE",
"63 690 OFFCURVE",
"71 690 OFFCURVE",
"73 690 CURVE SMOOTH",
"108.164 690.08 OFFCURVE",
"136.561 662.03 OFFCURVE",
"137.217 627.195 CURVE",
"140.126 627.195 LINE"
);
}
);
width = 586;
},
{
layerId = "29CFC173-9C98-4BE1-970A-002FF3BCF672";
paths = (
{
closed = 1;
nodes = (
"162.263 700 OFFCURVE",
"172.315 651.483 OFFCURVE",
"172.315 649.949 CURVE",
"324.828 649.818 LINE",
"390 650 OFFCURVE",
"441 617 OFFCURVE",
"441.036 510.072 CURVE SMOOTH",
"441 427 OFFCURVE",
"410 379 OFFCURVE",
"345.668 379.222 CURVE",
"345.896 369.81 LINE",
"430 370 OFFCURVE",
"472 311 OFFCURVE",
"471.559 215.389 CURVE SMOOTH",
"472 94 OFFCURVE",
"405 51 OFFCURVE",
"324.828 51.47 CURVE",
"303.646 51.47 LINE",
"303.646 51.47 OFFCURVE",
"302.788 0 OFFCURVE",
"302.788 0 CURVE",
"393.646 0 LINE SMOOTH",
"576 0 OFFCURVE",
"707 61 OFFCURVE",
"706.559 199.868 CURVE SMOOTH",
"707 311 OFFCURVE",
"623 376 OFFCURVE",
"525.201 380.853 CURVE",
"592 383 OFFCURVE",
"656 430 OFFCURVE",
"656.036 526.101 CURVE SMOOTH",
"656 663 OFFCURVE",
"527 700 OFFCURVE",
"378.447 700 CURVE SMOOTH",
"162.263 700 LINE SMOOTH"
);
},
{
closed = 1;
nodes = (
"106.849 700 LINE",
"106.849 0 LINE",
"311.966 0 LINE",
"311.966 700 LINE"
);
},
{
closed = 1;
nodes = (
"106.865 72.864 LINE",
"106.21 38.029 OFFCURVE",
"77.813 9.979 OFFCURVE",
"42.812 9.979 CURVE SMOOTH",
"41 10 OFFCURVE",
"32 10 OFFCURVE",
"30.162 10 CURVE",
"30 0 LINE",
"109.775 0 LINE",
"109.775 72.864 LINE"
);
},
{
closed = 1;
nodes = (
"109.778 700.06 LINE",
"30.003 700.06 LINE",
"30.165 690.06 LINE",
"32 690 OFFCURVE",
"41 690 OFFCURVE",
"43 690 CURVE SMOOTH",
"77.816 690.08 OFFCURVE",
"106.213 662.03 OFFCURVE",
"106.869 627.195 CURVE",
"109.778 627.195 LINE"
);
}
);
width = 730;
}
);
leftKerningGroup = h;
rightKerningGroup = b;
unicode = 0062;
},
{
glyphname = c;
lastChange = "2012-05-05 22:18:43 +0000";
layers = (
{
anchors = (
{
name = bottom;
position = "{418.128, -13}";
},
{
name = top;
position = "{424.128, 764}";
}
);
layerId = "A24B85EF-CA04-493E-A47C-A7B61068A6D7";
paths = (
{
closed = 1;
nodes = (
"702.006 291.85 LINE",
"679.263 87.058 OFFCURVE",
"559.123 16.354 OFFCURVE",
"417.129 15.929 CURVE",
"249 20 OFFCURVE",
"135 151 OFFCURVE",
"135 352 CURVE SMOOTH",
"135 551 OFFCURVE",
"247 684 OFFCURVE",
"422.814 684.074 CURVE SMOOTH",
"543 684 OFFCURVE",
"641 622 OFFCURVE",
"671.378 505.264 CURVE",
"679.701 505.232 LINE",
"659.525 646.468 LINE",
"601 685 OFFCURVE",
"521 714 OFFCURVE",
"423 714 CURVE SMOOTH",
"203 714 OFFCURVE",
"60 568 OFFCURVE",
"60 351 CURVE SMOOTH",
"60 130 OFFCURVE",
"208 -13 OFFCURVE",
"417.128 -14 CURVE",
"555.992 -14 OFFCURVE",
"645.441 48.8 OFFCURVE",
"698.139 134.938 CURVE",
"710.328 291.886 LINE"
);
}
);
width = 760;
},
{
anchors = (
{
name = bottom;
position = "{445.32, -9.388}";
},
{
name = top;
position = "{436, 764}";
}
);
layerId = "29CFC173-9C98-4BE1-970A-002FF3BCF672";
paths = (
{
closed = 1;
nodes = (
"721.006 291.85 LINE",
"684.435 100.51 OFFCURVE",
"633.678 35.929 OFFCURVE",
"472.128 35.929 CURVE",
"335.648 39.866 OFFCURVE",
"255 158.007 OFFCURVE",
"255 354 CURVE SMOOTH",
"255 548.837 OFFCURVE",
"342.161 664.008 OFFCURVE",
"489.665 664.074 CURVE SMOOTH",
"593 664 OFFCURVE",
"671 618 OFFCURVE",
"711.378 477.264 CURVE",
"719.701 477.232 LINE",
"729.525 668.468 LINE",
"674 692 OFFCURVE",
"585 714 OFFCURVE",
"473 714 CURVE SMOOTH",
"197 714 OFFCURVE",
"35 579 OFFCURVE",
"35 351 CURVE SMOOTH",
"35 118 OFFCURVE",
"203 -13 OFFCURVE",
"472.128 -14 CURVE",
"630.992 -14 OFFCURVE",
"713.441 43.8 OFFCURVE",
"753.139 109.938 CURVE",
"729.328 291.886 LINE"
);
}
);
width = 793;
}
);
leftKerningGroup = o;
rightKerningGroup = c;
unicode = 0063;
},
{
glyphname = d;
lastChange = "2012-05-10 12:20:26 +0000";
layers = (
{
anchors = (
{
name = center;
position = "{405.388, 250}";
},
{
name = top;
position = "{401.536, 764}";
}
);
layerId = "A24B85EF-CA04-493E-A47C-A7B61068A6D7";
paths = (
{
closed = 1;
nodes = (
"174.125 699.975 LINE",
"174.125 669.931 LINE",
"174.531 669.931 OFFCURVE",
"398.536 669.944 OFFCURVE",
"398.536 669.944 CURVE SMOOTH",
"568.94 669.944 OFFCURVE",
"682.678 541.85 OFFCURVE",
"682.678 349.709 CURVE SMOOTH",
"682.678 158.148 OFFCURVE",
"569.94 30.44 OFFCURVE",
"398.536 30.44 CURVE SMOOTH",
"398.536 30.44 OFFCURVE",
"184.369 30.452 OFFCURVE",
"183.963 30.452 CURVE",
"185.499 0.057 LINE",
"398.536 0.057 LINE",
"612.129 0.057 OFFCURVE",
"757.678 139.952 OFFCURVE",
"757.678 349.709 CURVE SMOOTH",
"757.678 559.884 OFFCURVE",
"612.129 699.975 OFFCURVE",
"398.536 699.975 CURVE"
);
},
{
closed = 1;
nodes = (
"136.862 699.975 LINE",
"136.862 0.057 LINE",
"201.983 0.057 LINE",
"201.983 699.975 LINE"
);
},
{
closed = 1;
nodes = (
"136.865 72.864 LINE",
"136.21 38.029 OFFCURVE",
"107.813 9.979 OFFCURVE",
"72.811 9.979 CURVE SMOOTH",
"72.659 9.979 OFFCURVE",
"60.318 10 OFFCURVE",
"60.161 10 CURVE",
"60 0 LINE",
"139.775 0 LINE",
"139.775 72.864 LINE"
);
},
{
closed = 1;
nodes = (
"140.126 700.06 LINE",
"60.351 700.06 LINE",
"60.513 690.06 LINE",
"60.67 690.06 OFFCURVE",
"73.011 690.08 OFFCURVE",
"73.163 690.08 CURVE SMOOTH",
"108.164 690.08 OFFCURVE",
"136.561 662.03 OFFCURVE",
"137.217 627.196 CURVE",
"140.126 627.196 LINE"
);
}
);
width = 807;
},
{
anchors = (
{
name = center;
position = "{312.5, 325.733}";
},
{
name = top;
position = "{421.238, 764}";
}
);
layerId = "29CFC173-9C98-4BE1-970A-002FF3BCF672";
paths = (
{
closed = 1;
nodes = (
"144.125 699.975 LINE",
"144.125 649.931 LINE",
"310.326 649.931 OFFCURVE",
"388.528 649.944 OFFCURVE",
"388.536 649.944 CURVE SMOOTH",
"513.711 649.944 OFFCURVE",
"587.678 538.428 OFFCURVE",
"587.678 349.709 CURVE SMOOTH",
"587.678 161.597 OFFCURVE",
"513.711 50.44 OFFCURVE",
"388.536 50.44 CURVE SMOOTH",
"388.528 50.44 OFFCURVE",
"313.98 50.452 OFFCURVE",
"153.963 50.452 CURVE",
"155.499 0.057 LINE",
"408.536 0.057 LINE",
"659.425 0.057 OFFCURVE",
"807.678 129.928 OFFCURVE",
"807.678 349.709 CURVE SMOOTH",
"807.678 569.876 OFFCURVE",
"659.425 699.975 OFFCURVE",
"408.536 699.975 CURVE"
);
},
{
closed = 1;
nodes = (
"106.862 699.975 LINE",
"106.862 0.057 LINE",
"311.983 0.057 LINE",
"311.983 699.975 LINE"
);
},
{
closed = 1;
nodes = (
"106.865 72.864 LINE",
"106.21 38.029 OFFCURVE",
"77.813 9.979 OFFCURVE",
"42.811 9.979 CURVE SMOOTH",
"42.659 9.979 OFFCURVE",
"30.318 10 OFFCURVE",
"30.161 10 CURVE",
"30 0 LINE",
"109.775 0 LINE",
"109.775 72.864 LINE"
);
},
{
closed = 1;
nodes = (
"110.126 700.06 LINE",
"30.351 700.06 LINE",
"30.513 690.06 LINE",
"30.67 690.06 OFFCURVE",
"43.011 690.08 OFFCURVE",
"43.163 690.08 CURVE SMOOTH",
"78.164 690.08 OFFCURVE",
"106.561 662.03 OFFCURVE",
"107.217 627.196 CURVE",
"110.126 627.196 LINE"
);
}
);
width = 842;
}
);
leftKerningGroup = h;
rightKerningGroup = o;
unicode = 0064;
},
{
glyphname = eth;
lastChange = "2012-04-12 17:48:40 +0000";
layers = (
{
layerId = "A24B85EF-CA04-493E-A47C-A7B61068A6D7";
paths = (
{
closed = 1;
nodes = (
"60 335.016 LINE",
"370 335.016 LINE",
"370 365.016 LINE",
"60 365.016 LINE"
);
},
{
closed = 1;
nodes = (
"179.031 699.975 LINE",
"179.031 669.931 LINE",
"179.437 669.931 OFFCURVE",
"403.442 669.944 OFFCURVE",
"403.442 669.944 CURVE SMOOTH",
"573.846 669.944 OFFCURVE",
"687.584 541.85 OFFCURVE",
"687.584 349.709 CURVE SMOOTH",
"687.584 158.148 OFFCURVE",
"573.846 30.44 OFFCURVE",
"403.442 30.44 CURVE SMOOTH",
"403.442 30.44 OFFCURVE",
"189.275 30.452 OFFCURVE",
"188.869 30.452 CURVE",
"190.405 0.057 LINE",
"403.442 0.057 LINE",
"617.035 0.057 OFFCURVE",
"757.584 139.952 OFFCURVE",
"757.584 349.709 CURVE SMOOTH",
"757.584 559.884 OFFCURVE",
"617.035 699.975 OFFCURVE",
"403.442 699.975 CURVE"
);
},
{
closed = 1;
nodes = (
"141.768 699.975 LINE",
"141.768 0.057 LINE",
"206.889 0.057 LINE",
"206.889 699.975 LINE"
);
},
{
closed = 1;
nodes = (
"141.771 72.864 LINE",
"141.116 38.029 OFFCURVE",
"112.719 9.979 OFFCURVE",
"77.717 9.979 CURVE SMOOTH",
"77.565 9.979 OFFCURVE",
"65.224 10 OFFCURVE",
"65.067 10 CURVE",
"64.906 0 LINE",
"144.681 0 LINE",
"144.681 72.864 LINE"
);
},
{
closed = 1;
nodes = (
"145.032 700.06 LINE",
"65.257 700.06 LINE",
"65.419 690.06 LINE",
"65.576 690.06 OFFCURVE",
"77.917 690.08 OFFCURVE",
"78.069 690.08 CURVE SMOOTH",
"113.07 690.08 OFFCURVE",
"141.467 662.03 OFFCURVE",
"142.123 627.196 CURVE",
"145.032 627.196 LINE"
);
}
);
width = 817;
},
{
layerId = "29CFC173-9C98-4BE1-970A-002FF3BCF672";
paths = (
{
closed = 1;
nodes = (
"30 325.016 LINE",
"420 325.016 LINE",
"420 375.016 LINE",
"30 375.016 LINE"
);
},
{
closed = 1;
nodes = (
"144.125 699.975 LINE",
"144.125 649.931 LINE",
"310.326 649.931 OFFCURVE",
"388.528 649.944 OFFCURVE",
"388.536 649.944 CURVE SMOOTH",
"514.282 649.944 OFFCURVE",
"592.678 538.428 OFFCURVE",
"592.678 349.709 CURVE SMOOTH",
"592.678 161.597 OFFCURVE",
"514.282 50.44 OFFCURVE",
"388.536 50.44 CURVE SMOOTH",
"388.528 50.44 OFFCURVE",
"313.98 50.452 OFFCURVE",
"153.963 50.452 CURVE",
"155.499 0.057 LINE",
"408.536 0.057 LINE",
"659.425 0.057 OFFCURVE",
"807.678 129.928 OFFCURVE",
"807.678 349.709 CURVE SMOOTH",
"807.678 569.876 OFFCURVE",
"659.425 699.975 OFFCURVE",
"408.536 699.975 CURVE"
);
},
{
closed = 1;
nodes = (
"106.862 699.975 LINE",
"106.862 0.057 LINE",
"311.983 0.057 LINE",
"311.983 699.975 LINE"
);
},
{
closed = 1;
nodes = (
"106.865 72.864 LINE",
"106.21 38.029 OFFCURVE",
"77.813 9.979 OFFCURVE",
"42.811 9.979 CURVE SMOOTH",
"42.659 9.979 OFFCURVE",
"30.318 10 OFFCURVE",
"30.161 10 CURVE",
"30 0 LINE",
"109.775 0 LINE",
"109.775 72.864 LINE"
);
},
{
closed = 1;
nodes = (
"110.126 700.06 LINE",
"30.351 700.06 LINE",
"30.513 690.06 LINE",
"30.67 690.06 OFFCURVE",
"43.011 690.08 OFFCURVE",
"43.163 690.08 CURVE SMOOTH",
"78.164 690.08 OFFCURVE",
"106.561 662.03 OFFCURVE",
"107.217 627.196 CURVE",
"110.126 627.196 LINE"
);
}
);
width = 842;
}
);
leftMetricsKey = d;
rightKerningGroup = o;
rightMetricsKey = d;
unicode = 00F0;
},
{
glyphname = e;
lastChange = "2012-05-10 12:18:47 +0000";
layers = (
{
anchors = (
{
name = bottom;
position = "{316.982, 0}";
},
{
name = ogonek;
position = "{424.386, 3.008}";
},
{
name = top;
position = "{296.982, 764}";
}
);
layerId = "A24B85EF-CA04-493E-A47C-A7B61068A6D7";
paths = (
{
closed = 1;
nodes = (
"136.869 700 LINE",
"136.869 0 LINE",
"201.901 0 LINE",
"201.901 700 LINE"
);
},
{
closed = 1;
nodes = (
"199.082 30.59 LINE",
"199.082 0 LINE",
"471.857 0 LINE",
"471.857 30.59 LINE"
);
},
{
closed = 1;
nodes = (
"199.082 360.218 LINE",
"199.082 330.218 LINE",
"429.032 330.218 LINE",
"429.032 360.218 LINE"
);
},
{
closed = 1;
nodes = (
"199.082 700 LINE",
"199.082 669.409 LINE SMOOTH",
"471.797 669.409 LINE",
"471.797 700 LINE"
);
},
{
closed = 1;
nodes = (
"522.845 161.543 LINE",
"491.976 85.405 OFFCURVE",
"451.283 30.592 OFFCURVE",
"345.32 30.592 CURVE",
"309.016 0 LINE",
"474.557 0 LINE",
"532.845 161.543 LINE"
);
},
{
closed = 1;
nodes = (
"370.904 332.487 LINE",
"370.904 330.249 LINE",
"397.698 329.745 OFFCURVE",
"419.275 307.901 OFFCURVE",
"419.275 280.977 CURVE SMOOTH",
"419.259 266.243 LINE",
"429.032 266.119 LINE",
"429.032 332.487 LINE"
);
},
{
closed = 1;
nodes = (
"419.259 424.25 LINE",
"419.276 409.516 LINE SMOOTH",
"419.276 382.593 OFFCURVE",
"397.698 360.753 OFFCURVE",
"370.904 360.248 CURVE",
"370.904 358.012 LINE",
"429.032 358.012 LINE",
"429.032 424.375 LINE"
);
},
{
closed = 1;
nodes = (
"403.236 672.218 LINE",
"403.236 669.51 LINE",
"435.66 668.9 OFFCURVE",
"461.765 642.468 OFFCURVE",
"461.765 609.891 CURVE SMOOTH",
"461.746 592.067 LINE",
"471.846 591.917 LINE",
"471.846 672.218 LINE"
);
},
{
closed = 1;
nodes = (
"452.862 710.201 OFFCURVE",
"393.24 699.987 OFFCURVE",
"349.88 699.987 CURVE",
"471.811 688.909 LINE",
"471.811 718.187 LINE"
);
},
{
closed = 1;
nodes = (
"136.865 72.864 LINE",
"136.21 38.029 OFFCURVE",
"107.813 9.979 OFFCURVE",
"72.811 9.979 CURVE SMOOTH",
"72.659 9.979 OFFCURVE",
"60.318 10 OFFCURVE",
"60.161 10 CURVE",
"60 0 LINE",
"139.775 0 LINE",
"139.775 72.864 LINE"
);
},
{
closed = 1;
nodes = (
"140.126 700.06 LINE",
"60.351 700.06 LINE",
"60.513 690.06 LINE",
"60.67 690.06 OFFCURVE",
"73.011 690.08 OFFCURVE",
"73.163 690.08 CURVE SMOOTH",
"108.164 690.08 OFFCURVE",
"136.561 662.03 OFFCURVE",
"137.217 627.196 CURVE",
"140.126 627.196 LINE"
);
}
);
width = 577;
},
{
anchors = (
{
name = bottom;
position = "{358.706, 0}";
},
{
name = ogonek;
position = "{567.919, 4.638}";
},
{
name = top;
position = "{339.039, 764}";
}
);
layerId = "29CFC173-9C98-4BE1-970A-002FF3BCF672";
paths = (
{
closed = 1;
nodes = (
"106.869 700 LINE",
"106.869 0 LINE",
"311.901 0 LINE",
"311.901 700 LINE"
);
},
{
closed = 1;
nodes = (
"309.082 50.59 LINE",
"309.082 0 LINE",
"611.857 0 LINE",
"571.857 50.59 LINE"
);
},
{
closed = 1;
nodes = (
"309.082 370.218 LINE",
"309.082 320.218 LINE",
"539.032 320.218 LINE",
"539.032 370.218 LINE"
);
},
{
closed = 1;
nodes = (
"309.082 700 LINE",
"309.082 649.409 LINE SMOOTH",
"591.797 649.409 LINE",
"591.797 700 LINE"
);
},
{
closed = 1;
nodes = (
"642.845 231.543 LINE",
"611.753 117.359 OFFCURVE",
"531.283 50.592 OFFCURVE",
"435.32 50.592 CURVE",
"399.016 0 LINE",
"614.557 0 LINE",
"652.845 231.543 LINE"
);
},
{
closed = 1;
nodes = (
"420.904 322.487 LINE",
"420.904 320.249 LINE",
"484.378 319.055 OFFCURVE",
"529.487 273.785 OFFCURVE",
"529.275 210.977 CURVE SMOOTH",
"529.259 206.243 LINE",
"539.032 206.119 LINE",
"539.032 322.487 LINE"
);
},
{
closed = 1;
nodes = (
"529.259 484.25 LINE",
"529.276 479.516 LINE SMOOTH",
"529.501 416.714 OFFCURVE",
"484.451 371.446 OFFCURVE",
"420.904 370.248 CURVE",
"420.904 368.012 LINE",
"539.032 368.012 LINE",
"539.032 484.375 LINE"
);
},
{
closed = 1;
nodes = (
"453.236 652.218 LINE",
"453.236 649.51 LINE",
"534.22 647.987 OFFCURVE",
"581.959 599.769 OFFCURVE",
"581.765 519.891 CURVE SMOOTH",
"581.746 512.067 LINE",
"591.846 511.917 LINE",
"591.846 652.218 LINE"
);
},
{
closed = 1;
nodes = (
"572.862 710.201 OFFCURVE",
"513.24 699.987 OFFCURVE",
"469.88 699.987 CURVE",
"591.811 688.909 LINE",
"591.811 718.187 LINE"
);
},
{
closed = 1;
nodes = (
"106.865 72.864 LINE",
"106.21 38.029 OFFCURVE",
"77.813 9.979 OFFCURVE",
"42.811 9.979 CURVE SMOOTH",
"42.659 9.979 OFFCURVE",
"30.318 10 OFFCURVE",
"30.161 10 CURVE",
"30 0 LINE",
"109.775 0 LINE",
"109.775 72.864 LINE"
);
},
{
closed = 1;
nodes = (
"109.782 700.06 LINE",
"30.007 700.06 LINE",
"30.169 690.06 LINE",
"30.326 690.06 OFFCURVE",
"42.667 690.08 OFFCURVE",
"42.819 690.08 CURVE SMOOTH",
"77.82 690.08 OFFCURVE",
"106.217 662.03 OFFCURVE",
"106.873 627.196 CURVE",
"109.782 627.196 LINE"
);
}
);
width = 666;
}
);
leftKerningGroup = h;
rightKerningGroup = e;
unicode = 0065;
},
{
glyphname = f;
lastChange = "2012-05-04 19:05:48 +0000";
layers = (
{
layerId = "A24B85EF-CA04-493E-A47C-A7B61068A6D7";
paths = (
{
closed = 1;
nodes = (
"136.869 700 LINE",
"136.869 0 LINE",
"201.901 0 LINE",
"201.901 700 LINE"
);
},
{
closed = 1;
nodes = (
"199.082 360.218 LINE",
"199.082 330.218 LINE",
"429.032 330.218 LINE",
"429.032 360.218 LINE"
);
},
{
closed = 1;
nodes = (
"199.082 700 LINE",
"199.082 669.409 LINE SMOOTH",
"471.797 669.409 LINE",
"471.797 700 LINE"
);
},
{
closed = 1;
nodes = (
"370.904 332.487 LINE",
"370.904 330.249 LINE",
"397.698 329.745 OFFCURVE",
"419.275 307.901 OFFCURVE",
"419.275 280.977 CURVE SMOOTH",
"419.259 266.243 LINE",
"429.032 266.119 LINE",
"429.032 332.487 LINE"
);
},
{
closed = 1;
nodes = (
"419.259 424.25 LINE",
"419.276 409.516 LINE SMOOTH",
"419.276 382.593 OFFCURVE",
"397.698 360.753 OFFCURVE",
"370.904 360.248 CURVE",
"370.904 358.012 LINE",
"429.032 358.012 LINE",
"429.032 424.375 LINE"
);
},
{
closed = 1;
nodes = (
"413.456 671.625 LINE",
"413.456 669.387 LINE",
"440.253 668.883 OFFCURVE",
"461.827 647.038 OFFCURVE",
"461.827 620.115 CURVE SMOOTH",
"461.811 605.384 LINE",
"471.811 605.26 LINE",
"471.811 671.625 LINE"
);
},
{
closed = 1;
nodes = (
"452.862 710.201 OFFCURVE",
"393.24 699.987 OFFCURVE",
"349.88 699.987 CURVE",
"471.811 688.909 LINE",
"471.811 718.187 LINE"
);
},
{
closed = 1;
nodes = (
"136.865 72.864 LINE",
"136.21 38.029 OFFCURVE",
"107.813 9.979 OFFCURVE",
"72.811 9.979 CURVE SMOOTH",
"72.659 9.979 OFFCURVE",
"60.318 10 OFFCURVE",
"60.161 10 CURVE",
"60 0 LINE",
"139.775 0 LINE",
"139.775 72.864 LINE"
);
},
{
closed = 1;
nodes = (
"140.126 700.06 LINE",
"60.351 700.06 LINE",
"60.513 690.06 LINE",
"60.67 690.06 OFFCURVE",
"73.011 690.08 OFFCURVE",
"73.163 690.08 CURVE SMOOTH",
"108.164 690.08 OFFCURVE",
"136.561 662.03 OFFCURVE",
"137.217 627.196 CURVE",
"140.126 627.196 LINE"
);
},
{
closed = 1;
nodes = (
"199.007 0 LINE",
"278.782 0 LINE",
"278.621 10 LINE",
"278.464 10 OFFCURVE",
"266.123 9.979 OFFCURVE",
"265.971 9.979 CURVE SMOOTH",
"230.969 9.979 OFFCURVE",
"202.572 38.029 OFFCURVE",
"201.917 72.864 CURVE",
"199.007 72.864 LINE"
);
}
);
width = 541;
},
{
layerId = "29CFC173-9C98-4BE1-970A-002FF3BCF672";
paths = (
{
closed = 1;
nodes = (
"106.869 700 LINE",
"106.869 0 LINE",
"311.901 0 LINE",
"311.901 700 LINE"
);
},
{
closed = 1;
nodes = (
"309.082 370.218 LINE",
"309.082 320.218 LINE",
"539.032 320.218 LINE",
"539.032 370.218 LINE"
);
},
{
closed = 1;
nodes = (
"309.082 700 LINE",
"309.082 649.409 LINE SMOOTH",
"591.797 649.409 LINE",
"591.797 700 LINE"
);
},
{
closed = 1;
nodes = (
"420.904 322.487 LINE",
"420.904 320.249 LINE",
"484.378 319.055 OFFCURVE",
"529.487 273.785 OFFCURVE",
"529.275 210.977 CURVE SMOOTH",
"529.259 206.243 LINE",
"539.032 206.119 LINE",
"539.032 322.487 LINE"
);
},
{
closed = 1;
nodes = (
"529.259 484.25 LINE",
"529.276 479.516 LINE SMOOTH",
"529.501 416.714 OFFCURVE",
"484.451 371.446 OFFCURVE",
"420.904 370.248 CURVE",
"420.904 368.012 LINE",
"539.032 368.012 LINE",
"539.032 484.375 LINE"
);
},
{
closed = 1;
nodes = (
"453.236 652.218 LINE",
"453.236 649.51 LINE",
"534.22 647.987 OFFCURVE",
"581.959 599.769 OFFCURVE",
"581.765 519.891 CURVE SMOOTH",
"581.746 512.067 LINE",
"591.846 511.917 LINE",
"591.846 652.218 LINE"
);
},
{
closed = 1;
nodes = (
"572.862 710.201 OFFCURVE",
"513.24 699.987 OFFCURVE",
"469.88 699.987 CURVE",
"591.811 688.909 LINE",
"591.811 718.187 LINE"
);
},
{
closed = 1;
nodes = (
"106.865 72.864 LINE",
"106.21 38.029 OFFCURVE",
"77.813 9.979 OFFCURVE",
"42.811 9.979 CURVE SMOOTH",
"42.659 9.979 OFFCURVE",
"30.318 10 OFFCURVE",
"30.161 10 CURVE",
"30 0 LINE",
"109.775 0 LINE",
"109.775 72.864 LINE"
);
},
{
closed = 1;
nodes = (
"109.783 700.067 LINE",
"30.008 700.067 LINE",
"30.17 690.067 LINE",
"30.327 690.067 OFFCURVE",
"42.668 690.087 OFFCURVE",
"42.82 690.087 CURVE SMOOTH",
"77.821 690.087 OFFCURVE",
"106.218 662.037 OFFCURVE",
"106.874 627.203 CURVE",
"109.783 627.203 LINE"
);
},
{
closed = 1;
nodes = (
"309.029 0 LINE",
"388.804 0 LINE",
"388.643 10 LINE",
"388.486 10 OFFCURVE",
"376.145 9.979 OFFCURVE",
"375.993 9.979 CURVE SMOOTH",
"340.991 9.979 OFFCURVE",
"312.594 38.029 OFFCURVE",
"311.939 72.864 CURVE",
"309.029 72.864 LINE"
);
}
);
width = 631;
}
);
leftKerningGroup = h;
rightKerningGroup = f;
unicode = 0066;
},
{
glyphname = g;
lastChange = "2012-05-05 22:18:39 +0000";
layers = (
{
anchors = (
{
name = bottom;
position = "{418.42, -14}";
},
{
name = top;
position = "{416.128, 764}";
}
);
layerId = "A24B85EF-CA04-493E-A47C-A7B61068A6D7";
paths = (
{
closed = 1;
nodes = (
"708.151 309.103 OFFCURVE",
"726.339 325.41 OFFCURVE",
"758.673 325.41 CURVE SMOOTH",
"773.743 325.389 LINE",
"773.743 335.389 LINE",
"577.875 335.389 LINE",
"577.875 325.389 LINE",
"593.642 325.41 LINE SMOOTH",
"625.918 325.455 OFFCURVE",
"645.075 309.049 OFFCURVE",
"645.075 279.843 CURVE",
"643.565 102.656 LINE",
"587.402 49.354 OFFCURVE",
"506.333 15.926 OFFCURVE",
"419.42 15.926 CURVE SMOOTH",
"249.918 16.817 OFFCURVE",
"135 150.447 OFFCURVE",
"135 350 CURVE SMOOTH",
"135 550.445 OFFCURVE",
"249.919 684.074 OFFCURVE",
"419.422 684.074 CURVE SMOOTH",
"551.47 684.074 OFFCURVE",
"642.999 619.702 OFFCURVE",
"673.378 505.264 CURVE",
"681.701 505.232 LINE",
"661.525 646.468 LINE",
"602.775 684.286 OFFCURVE",
"529.117 714 OFFCURVE",
"419.128 714 CURVE SMOOTH",
"206.768 714 OFFCURVE",
"60 568.401 OFFCURVE",
"60 350.002 CURVE SMOOTH",
"60 132.363 OFFCURVE",
"206.768 -13 OFFCURVE",
"419.42 -14 CURVE SMOOTH",
"569.586 -14 OFFCURVE",
"663.024 54.215 OFFCURVE",
"708.625 114.81 CURVE",
"708.625 280.182 LINE"
);
}
);
width = 798;
},
{
anchors = (
{
name = bottom;
position = "{444.347, -64}";
},
{
name = top;
position = "{426, 764}";
}
);
layerId = "29CFC173-9C98-4BE1-970A-002FF3BCF672";
paths = (
{
closed = 1;
nodes = (
"783.151 309.103 OFFCURVE",
"801.339 325.41 OFFCURVE",
"833.673 325.41 CURVE SMOOTH",
"848.743 325.389 LINE",
"848.743 335.389 LINE",
"512.875 335.389 LINE",
"512.875 325.389 LINE",
"528.642 325.41 LINE SMOOTH",
"560.918 325.455 OFFCURVE",
"580.396 309.047 OFFCURVE",
"580.075 279.843 CURVE SMOOTH",
"578.565 142.656 LINE",
"578.565 73 OFFCURVE",
"512 36 OFFCURVE",
"446.881 35.926 CURVE SMOOTH",
"314 35.775 OFFCURVE",
"255 153 OFFCURVE",
"255 342 CURVE SMOOTH",
"255 547 OFFCURVE",
"325 664 OFFCURVE",
"484.711 664.074 CURVE SMOOTH",
"575 664 OFFCURVE",
"672 627 OFFCURVE",
"714.378 477.264 CURVE",
"722.701 477.232 LINE",
"732.525 668.468 LINE",
"673.775 693.286 OFFCURVE",
"545.117 714 OFFCURVE",
"435.128 714 CURVE",
"184 714 OFFCURVE",
"35 578 OFFCURVE",
"35 352 CURVE SMOOTH",
"35 122 OFFCURVE",
"189 -14 OFFCURVE",
"425.347 -14 CURVE SMOOTH",
"592 -14 OFFCURVE",
"736 54 OFFCURVE",
"783.625 114.81 CURVE",
"784 280 LINE"
);
}
);
width = 861;
}
);
leftKerningGroup = o;
rightKerningGroup = g;
unicode = 0067;
},
{
glyphname = gcommaaccent;
lastChange = "2012-04-12 17:51:52 +0000";
layers = (
{
layerId = "A24B85EF-CA04-493E-A47C-A7B61068A6D7";
paths = (
{
closed = 1;
nodes = (
"708.151 309.103 OFFCURVE",
"726.339 325.41 OFFCURVE",
"758.673 325.41 CURVE SMOOTH",
"773.743 325.389 LINE",
"773.743 335.389 LINE",
"577.875 335.389 LINE",
"577.875 325.389 LINE",
"593.642 325.41 LINE SMOOTH",
"625.918 325.455 OFFCURVE",
"645.075 309.049 OFFCURVE",
"645.075 279.843 CURVE",
"643.565 102.656 LINE",
"587.402 49.354 OFFCURVE",
"506.333 15.926 OFFCURVE",
"419.42 15.926 CURVE SMOOTH",
"249.918 16.817 OFFCURVE",
"135 150.447 OFFCURVE",
"135 350 CURVE SMOOTH",
"135 550.445 OFFCURVE",
"249.919 684.074 OFFCURVE",
"419.422 684.074 CURVE SMOOTH",
"551.47 684.074 OFFCURVE",
"642.999 619.702 OFFCURVE",
"673.378 505.264 CURVE",
"681.701 505.232 LINE",
"661.525 646.468 LINE",
"602.775 684.286 OFFCURVE",
"529.117 714 OFFCURVE",
"419.128 714 CURVE SMOOTH",
"206.768 714 OFFCURVE",
"60 568.401 OFFCURVE",
"60 350.002 CURVE SMOOTH",
"60 132.363 OFFCURVE",
"206.768 -13 OFFCURVE",
"419.42 -14 CURVE SMOOTH",
"569.586 -14 OFFCURVE",
"663.024 54.215 OFFCURVE",
"708.625 114.81 CURVE",
"708.625 280.182 LINE"
);
},
{
closed = 1;
nodes = (
"382.238 -111 OFFCURVE",
"399.148 -125 OFFCURVE",
"409.572 -138 CURVE SMOOTH",
"423.253 -154 OFFCURVE",
"431.215 -196 OFFCURVE",
"382.574 -211 CURVE",
"384.525 -218 LINE",
"436.806 -216 OFFCURVE",
"479.868 -161 OFFCURVE",
"453.874 -99 CURVE SMOOTH",
"440.343 -66 OFFCURVE",
"401.395 -68 OFFCURVE",
"391.2 -91 CURVE SMOOTH"
);
}
);
width = 798;
},
{
layerId = "29CFC173-9C98-4BE1-970A-002FF3BCF672";
paths = (
{
closed = 1;
nodes = (
"783.151 309.103 OFFCURVE",
"801.339 325.41 OFFCURVE",
"833.673 325.41 CURVE SMOOTH",
"848.743 325.389 LINE",
"848.743 335.389 LINE",
"512.875 335.389 LINE",
"512.875 325.389 LINE",
"528.642 325.41 LINE SMOOTH",
"560.918 325.455 OFFCURVE",
"580.396 309.047 OFFCURVE",
"580.075 279.843 CURVE SMOOTH",
"578.565 142.656 LINE",
"578.565 73 OFFCURVE",
"512 36 OFFCURVE",
"446.881 35.926 CURVE SMOOTH",
"314 35.775 OFFCURVE",
"255 153 OFFCURVE",
"255 342 CURVE SMOOTH",
"255 547 OFFCURVE",
"325 664 OFFCURVE",
"484.711 664.074 CURVE SMOOTH",
"575 664 OFFCURVE",
"672 627 OFFCURVE",
"714.378 477.264 CURVE",
"722.701 477.232 LINE",
"732.525 668.468 LINE",
"673.775 693.286 OFFCURVE",
"545.117 714 OFFCURVE",
"435.128 714 CURVE",
"184 714 OFFCURVE",
"35 578 OFFCURVE",
"35 352 CURVE SMOOTH",
"35 122 OFFCURVE",
"189 -14 OFFCURVE",
"425.347 -14 CURVE SMOOTH",
"592 -14 OFFCURVE",
"736 54 OFFCURVE",
"783.625 114.81 CURVE",
"784 280 LINE"
);
},
{
closed = 1;
nodes = (
"374.488 -96 OFFCURVE",
"370.172 -145 OFFCURVE",
"395.808 -174 CURVE SMOOTH",
"433.474 -216 OFFCURVE",
"408.6 -253 OFFCURVE",
"382.948 -264 CURVE",
"385.682 -273 LINE",
"471.14 -290 OFFCURVE",
"541.498 -189 OFFCURVE",
"503.121 -105 CURVE SMOOTH",
"485.354 -66 OFFCURVE",
"434.185 -52 OFFCURVE",
"402.204 -76 CURVE SMOOTH"
);
}
);
width = 861;
}
);
leftKerningGroup = o;
leftMetricsKey = g;
rightKerningGroup = g;
rightMetricsKey = g;
unicode = 0123;
},
{
glyphname = h;
lastChange = "2012-05-10 12:17:52 +0000";
layers = (
{
anchors = (
{
name = center;
position = "{375.621, 296.227}";
},
{
name = top;
position = "{378.314, 650.822}";
}
);
layerId = "A24B85EF-CA04-493E-A47C-A7B61068A6D7";
paths = (
{
closed = 1;
nodes = (
"611.142 700 LINE",
"611.142 0 LINE",
"676.189 0 LINE",
"676.189 700 LINE"
);
},
{
closed = 1;
nodes = (
"136.873 700 LINE",
"136.873 0 LINE",
"201.92 0 LINE",
"201.92 700 LINE"
);
},
{
closed = 1;
nodes = (
"191.574 361.058 LINE",
"191.574 331.058 LINE",
"620.318 331.058 LINE",
"620.318 361.058 LINE"
);
},
{
closed = 1;
nodes = (
"136.865 72.864 LINE",
"136.21 38.029 OFFCURVE",
"107.813 9.979 OFFCURVE",
"72.811 9.979 CURVE SMOOTH",
"72.659 9.979 OFFCURVE",
"60.318 10 OFFCURVE",
"60.161 10 CURVE",
"60 0 LINE",
"139.775 0 LINE",
"139.775 72.864 LINE"
);
},
{
closed = 1;
nodes = (
"139.791 700.06 LINE",
"60.016 700.06 LINE",
"60.178 690.06 LINE",
"60.335 690.06 OFFCURVE",
"72.676 690.08 OFFCURVE",
"72.828 690.08 CURVE SMOOTH",
"107.829 690.08 OFFCURVE",
"136.226 662.03 OFFCURVE",
"136.882 627.196 CURVE",
"139.791 627.196 LINE"
);
},
{
closed = 1;
nodes = (
"199.012 0 LINE",
"278.787 0 LINE",
"278.626 10 LINE",
"278.469 10 OFFCURVE",
"266.128 9.979 OFFCURVE",
"265.976 9.979 CURVE SMOOTH",
"230.974 9.979 OFFCURVE",
"202.577 38.029 OFFCURVE",
"201.922 72.864 CURVE",
"199.012 72.864 LINE"
);
},
{
closed = 1;
nodes = (
"201.905 627.196 LINE",
"202.561 662.03 OFFCURVE",
"230.958 690.08 OFFCURVE",
"265.959 690.08 CURVE SMOOTH",
"266.111 690.08 OFFCURVE",
"278.452 690.06 OFFCURVE",
"278.609 690.06 CURVE",
"278.771 700.06 LINE",
"198.996 700.06 LINE",
"198.996 627.196 LINE"
);
},
{
closed = 1;
nodes = (
"611.161 72.864 LINE",
"610.506 38.029 OFFCURVE",
"582.109 9.979 OFFCURVE",
"547.107 9.979 CURVE SMOOTH",
"546.955 9.979 OFFCURVE",
"534.614 10 OFFCURVE",
"534.457 10 CURVE",
"534.296 0 LINE",
"614.071 0 LINE",
"614.071 72.864 LINE"
);
},
{
closed = 1;
nodes = (
"614.087 700.06 LINE",
"534.312 700.06 LINE",
"534.474 690.06 LINE",
"534.631 690.06 OFFCURVE",
"546.972 690.08 OFFCURVE",
"547.124 690.08 CURVE SMOOTH",
"582.125 690.08 OFFCURVE",
"610.522 662.03 OFFCURVE",
"611.178 627.196 CURVE",
"614.087 627.196 LINE"
);
},
{
closed = 1;
nodes = (
"673.308 0 LINE",
"753.083 0 LINE",
"752.922 10 LINE",
"752.765 10 OFFCURVE",
"740.424 9.979 OFFCURVE",
"740.272 9.979 CURVE SMOOTH",
"705.27 9.979 OFFCURVE",
"676.873 38.029 OFFCURVE",
"676.218 72.864 CURVE",
"673.308 72.864 LINE"
);
},
{
closed = 1;
nodes = (
"676.201 627.196 LINE",
"676.857 662.03 OFFCURVE",
"705.254 690.08 OFFCURVE",
"740.255 690.08 CURVE SMOOTH",
"740.407 690.08 OFFCURVE",
"752.748 690.06 OFFCURVE",
"752.905 690.06 CURVE",
"753.067 700.06 LINE",
"673.292 700.06 LINE",
"673.292 627.196 LINE"
);
}
);
width = 813;
},
{
anchors = (
{
name = center;
position = "{410, 350}";
},
{
name = top;
position = "{410, 700}";
}
);
layerId = "29CFC173-9C98-4BE1-970A-002FF3BCF672";
paths = (
{
closed = 1;
nodes = (
"581.142 700 LINE",
"581.142 0 LINE",
"786.189 0 LINE",
"786.189 700 LINE"
);
},
{
closed = 1;
nodes = (
"106.873 700 LINE",
"106.873 0 LINE",
"311.92 0 LINE",
"311.92 700 LINE"
);
},
{
closed = 1;
nodes = (
"301.574 375 LINE",
"301.574 325 LINE",
"590.318 325 LINE",
"590.318 375 LINE"
);
},
{
closed = 1;
nodes = (
"106.865 72.864 LINE",
"106.21 38.029 OFFCURVE",
"77.813 9.979 OFFCURVE",
"42.811 9.979 CURVE SMOOTH",
"42.659 9.979 OFFCURVE",
"30.318 10 OFFCURVE",
"30.161 10 CURVE",
"30 0 LINE",
"109.775 0 LINE",
"109.775 72.864 LINE"
);
},
{
closed = 1;
nodes = (
"109.791 700.06 LINE",
"30.016 700.06 LINE",
"30.178 690.06 LINE",
"30.335 690.06 OFFCURVE",
"42.676 690.08 OFFCURVE",
"42.828 690.08 CURVE SMOOTH",
"77.829 690.08 OFFCURVE",
"106.226 662.03 OFFCURVE",
"106.882 627.196 CURVE",
"109.791 627.196 LINE"
);
},
{
closed = 1;
nodes = (
"309.012 0 LINE",
"388.787 0 LINE",
"388.626 10 LINE",
"388.469 10 OFFCURVE",
"376.128 9.979 OFFCURVE",
"375.976 9.979 CURVE SMOOTH",
"340.974 9.979 OFFCURVE",
"312.577 38.029 OFFCURVE",
"311.922 72.864 CURVE",
"309.012 72.864 LINE"
);
},
{
closed = 1;
nodes = (
"311.905 627.196 LINE",
"312.561 662.03 OFFCURVE",
"340.958 690.08 OFFCURVE",
"375.959 690.08 CURVE SMOOTH",
"376.111 690.08 OFFCURVE",
"388.452 690.06 OFFCURVE",
"388.609 690.06 CURVE",
"388.771 700.06 LINE",
"308.996 700.06 LINE",
"308.996 627.196 LINE"
);
},
{
closed = 1;
nodes = (
"581.161 72.864 LINE",
"580.506 38.029 OFFCURVE",
"552.109 9.979 OFFCURVE",
"517.107 9.979 CURVE SMOOTH",
"516.955 9.979 OFFCURVE",
"504.614 10 OFFCURVE",
"504.457 10 CURVE",
"504.296 0 LINE",
"584.071 0 LINE",
"584.071 72.864 LINE"
);
},
{
closed = 1;
nodes = (
"584.087 700.06 LINE",
"504.312 700.06 LINE",
"504.474 690.06 LINE",
"504.631 690.06 OFFCURVE",
"516.972 690.08 OFFCURVE",
"517.124 690.08 CURVE SMOOTH",
"552.125 690.08 OFFCURVE",
"580.522 662.03 OFFCURVE",
"581.178 627.196 CURVE",
"584.087 627.196 LINE"
);
},
{
closed = 1;
nodes = (
"783.308 0 LINE",
"863.083 0 LINE",
"862.922 10 LINE",
"862.765 10 OFFCURVE",
"850.424 9.979 OFFCURVE",
"850.272 9.979 CURVE SMOOTH",
"815.27 9.979 OFFCURVE",
"786.873 38.029 OFFCURVE",
"786.218 72.864 CURVE",
"783.308 72.864 LINE"
);
},
{
closed = 1;
nodes = (
"786.201 627.196 LINE",
"786.857 662.03 OFFCURVE",
"815.254 690.08 OFFCURVE",
"850.255 690.08 CURVE SMOOTH",
"850.407 690.08 OFFCURVE",
"862.748 690.06 OFFCURVE",
"862.905 690.06 CURVE",
"863.067 700.06 LINE",
"783.292 700.06 LINE",
"783.292 627.196 LINE"
);
}
);
width = 893;
}
);
leftKerningGroup = h;
rightKerningGroup = h;
unicode = 0068;
},
{
glyphname = hbar;
lastChange = "2012-04-24 13:58:41 +0000";
layers = (
{
layerId = "A24B85EF-CA04-493E-A47C-A7B61068A6D7";
paths = (
{
closed = 1;
nodes = (
"73.574 528.11 LINE",
"73.574 498.11 LINE",
"742.318 498.11 LINE",
"742.318 528.11 LINE"
);
},
{
closed = 1;
nodes = (
"611.142 700 LINE",
"611.142 0 LINE",
"676.189 0 LINE",
"676.189 700 LINE"
);
},
{
closed = 1;
nodes = (
"136.873 700 LINE",
"136.873 0 LINE",
"201.92 0 LINE",
"201.92 700 LINE"
);
},
{
closed = 1;
nodes = (
"191.574 361.058 LINE",
"191.574 331.058 LINE",
"620.318 331.058 LINE",
"620.318 361.058 LINE"
);
},
{
closed = 1;
nodes = (
"136.865 72.864 LINE",
"136.21 38.029 OFFCURVE",
"107.813 9.979 OFFCURVE",
"72.811 9.979 CURVE SMOOTH",
"72.659 9.979 OFFCURVE",
"60.318 10 OFFCURVE",
"60.161 10 CURVE",
"60 0 LINE",
"139.775 0 LINE",
"139.775 72.864 LINE"
);
},
{
closed = 1;
nodes = (
"139.791 700.06 LINE",
"60.016 700.06 LINE",
"60.178 690.06 LINE",
"60.335 690.06 OFFCURVE",
"72.676 690.08 OFFCURVE",
"72.828 690.08 CURVE SMOOTH",
"107.829 690.08 OFFCURVE",
"136.226 662.03 OFFCURVE",
"136.882 627.196 CURVE",
"139.791 627.196 LINE"
);
},
{
closed = 1;
nodes = (
"199.012 0 LINE",
"278.787 0 LINE",
"278.626 10 LINE",
"278.469 10 OFFCURVE",
"266.128 9.979 OFFCURVE",
"265.976 9.979 CURVE SMOOTH",
"230.974 9.979 OFFCURVE",
"202.577 38.029 OFFCURVE",
"201.922 72.864 CURVE",
"199.012 72.864 LINE"
);
},
{
closed = 1;
nodes = (
"201.905 627.196 LINE",
"202.561 662.03 OFFCURVE",
"230.958 690.08 OFFCURVE",
"265.959 690.08 CURVE SMOOTH",
"266.111 690.08 OFFCURVE",
"278.452 690.06 OFFCURVE",
"278.609 690.06 CURVE",
"278.771 700.06 LINE",
"198.996 700.06 LINE",
"198.996 627.196 LINE"
);
},
{
closed = 1;
nodes = (
"611.161 72.864 LINE",
"610.506 38.029 OFFCURVE",
"582.109 9.979 OFFCURVE",
"547.107 9.979 CURVE SMOOTH",
"546.955 9.979 OFFCURVE",
"534.614 10 OFFCURVE",
"534.457 10 CURVE",
"534.296 0 LINE",
"614.071 0 LINE",
"614.071 72.864 LINE"
);
},
{
closed = 1;
nodes = (
"614.087 700.06 LINE",
"534.312 700.06 LINE",
"534.474 690.06 LINE",
"534.631 690.06 OFFCURVE",
"546.972 690.08 OFFCURVE",
"547.124 690.08 CURVE SMOOTH",
"582.125 690.08 OFFCURVE",
"610.522 662.03 OFFCURVE",
"611.178 627.196 CURVE",
"614.087 627.196 LINE"
);
},
{
closed = 1;
nodes = (
"673.308 0 LINE",
"753.083 0 LINE",
"752.922 10 LINE",
"752.765 10 OFFCURVE",
"740.424 9.979 OFFCURVE",
"740.272 9.979 CURVE SMOOTH",
"705.27 9.979 OFFCURVE",
"676.873 38.029 OFFCURVE",
"676.218 72.864 CURVE",
"673.308 72.864 LINE"
);
},
{
closed = 1;
nodes = (
"676.201 627.196 LINE",
"676.857 662.03 OFFCURVE",
"705.254 690.08 OFFCURVE",
"740.255 690.08 CURVE SMOOTH",
"740.407 690.08 OFFCURVE",
"752.748 690.06 OFFCURVE",
"752.905 690.06 CURVE",
"753.067 700.06 LINE",
"673.292 700.06 LINE",
"673.292 627.196 LINE"
);
}
);
width = 813;
},
{
layerId = "29CFC173-9C98-4BE1-970A-002FF3BCF672";
paths = (
{
closed = 1;
nodes = (
"42.268 538.11 LINE",
"42.268 488.11 LINE",
"853.012 488.11 LINE",
"853.012 538.11 LINE"
);
},
{
closed = 1;
nodes = (
"581.142 700 LINE",
"581.142 0 LINE",
"786.189 0 LINE",
"786.189 700 LINE"
);
},
{
closed = 1;
nodes = (
"106.873 700 LINE",
"106.873 0 LINE",
"311.92 0 LINE",
"311.92 700 LINE"
);
},
{
closed = 1;
nodes = (
"301.574 375 LINE",
"301.574 325 LINE",
"590.318 325 LINE",
"590.318 375 LINE"
);
},
{
closed = 1;
nodes = (
"106.865 72.864 LINE",
"106.21 38.029 OFFCURVE",
"77.813 9.979 OFFCURVE",
"42.811 9.979 CURVE SMOOTH",
"42.659 9.979 OFFCURVE",
"30.318 10 OFFCURVE",
"30.161 10 CURVE",
"30 0 LINE",
"109.775 0 LINE",
"109.775 72.864 LINE"
);
},
{
closed = 1;
nodes = (
"109.791 700.06 LINE",
"30.016 700.06 LINE",
"30.178 690.06 LINE",
"30.335 690.06 OFFCURVE",
"42.676 690.08 OFFCURVE",
"42.828 690.08 CURVE SMOOTH",
"77.829 690.08 OFFCURVE",
"106.226 662.03 OFFCURVE",
"106.882 627.196 CURVE",
"109.791 627.196 LINE"
);
},
{
closed = 1;
nodes = (
"309.012 0 LINE",
"388.787 0 LINE",
"388.626 10 LINE",
"388.469 10 OFFCURVE",
"376.128 9.979 OFFCURVE",
"375.976 9.979 CURVE SMOOTH",
"340.974 9.979 OFFCURVE",
"312.577 38.029 OFFCURVE",
"311.922 72.864 CURVE",
"309.012 72.864 LINE"
);
},
{
closed = 1;
nodes = (
"311.905 627.196 LINE",
"312.561 662.03 OFFCURVE",
"340.958 690.08 OFFCURVE",
"375.959 690.08 CURVE SMOOTH",
"376.111 690.08 OFFCURVE",
"388.452 690.06 OFFCURVE",
"388.609 690.06 CURVE",
"388.771 700.06 LINE",
"308.996 700.06 LINE",
"308.996 627.196 LINE"
);
},
{
closed = 1;
nodes = (
"581.161 72.864 LINE",
"580.506 38.029 OFFCURVE",
"552.109 9.979 OFFCURVE",
"517.107 9.979 CURVE SMOOTH",
"516.955 9.979 OFFCURVE",
"504.614 10 OFFCURVE",
"504.457 10 CURVE",
"504.296 0 LINE",
"584.071 0 LINE",
"584.071 72.864 LINE"
);
},
{
closed = 1;
nodes = (
"584.087 700.06 LINE",
"504.312 700.06 LINE",
"504.474 690.06 LINE",
"504.631 690.06 OFFCURVE",
"516.972 690.08 OFFCURVE",
"517.124 690.08 CURVE SMOOTH",
"552.125 690.08 OFFCURVE",
"580.522 662.03 OFFCURVE",
"581.178 627.196 CURVE",
"584.087 627.196 LINE"
);
},
{
closed = 1;
nodes = (
"783.308 0 LINE",
"863.083 0 LINE",
"862.922 10 LINE",
"862.765 10 OFFCURVE",
"850.424 9.979 OFFCURVE",
"850.272 9.979 CURVE SMOOTH",
"815.27 9.979 OFFCURVE",
"786.873 38.029 OFFCURVE",
"786.218 72.864 CURVE",
"783.308 72.864 LINE"
);
},
{
closed = 1;
nodes = (
"786.201 627.196 LINE",
"786.857 662.03 OFFCURVE",
"815.254 690.08 OFFCURVE",
"850.255 690.08 CURVE SMOOTH",
"850.407 690.08 OFFCURVE",
"862.748 690.06 OFFCURVE",
"862.905 690.06 CURVE",
"863.067 700.06 LINE",
"783.292 700.06 LINE",
"783.292 627.196 LINE"
);
}
);
width = 893;
}
);
leftKerningGroup = h;
leftMetricsKey = h;
rightKerningGroup = h;
rightMetricsKey = h;
unicode = 0127;
},
{
glyphname = i;
lastChange = "2018-07-27 09:03:37 +0000";
layers = (
{
anchors = (
{
name = ogonek;
position = "{170.048, 3}";
},
{
name = top;
position = "{173.306, 764}";
}
);
layerId = "A24B85EF-CA04-493E-A47C-A7B61068A6D7";
paths = (
{
closed = 1;
nodes = (
"136.873 700 LINE",
"136.873 0 LINE",
"201.92 0 LINE",
"201.92 700 LINE"
);
},
{
closed = 1;
nodes = (
"136.865 72.864 LINE",
"136.21 38.029 OFFCURVE",
"107.813 9.979 OFFCURVE",
"72.811 9.979 CURVE SMOOTH",
"72.659 9.979 OFFCURVE",
"60.318 10 OFFCURVE",
"60.161 10 CURVE",
"60 0 LINE",
"139.775 0 LINE",
"139.775 72.864 LINE"
);
},
{
closed = 1;
nodes = (
"139.791 700.06 LINE",
"60.016 700.06 LINE",
"60.178 690.06 LINE",
"60.335 690.06 OFFCURVE",
"72.676 690.08 OFFCURVE",
"72.828 690.08 CURVE SMOOTH",
"107.829 690.08 OFFCURVE",
"136.226 662.03 OFFCURVE",
"136.882 627.196 CURVE",
"139.791 627.196 LINE"
);
},
{
closed = 1;
nodes = (
"199.012 0 LINE",
"278.787 0 LINE",
"278.626 10 LINE",
"278.469 10 OFFCURVE",
"266.128 9.979 OFFCURVE",
"265.976 9.979 CURVE SMOOTH",
"230.974 9.979 OFFCURVE",
"202.577 38.029 OFFCURVE",
"201.922 72.864 CURVE",
"199.012 72.864 LINE"
);
},
{
closed = 1;
nodes = (
"201.905 627.196 LINE",
"202.561 662.03 OFFCURVE",
"230.958 690.08 OFFCURVE",
"265.959 690.08 CURVE SMOOTH",
"266.111 690.08 OFFCURVE",
"278.452 690.06 OFFCURVE",
"278.609 690.06 CURVE",
"278.771 700.06 LINE",
"198.996 700.06 LINE",
"198.996 627.196 LINE"
);
}
);
width = 338;
},
{
anchors = (
{
name = ogonek;
position = "{210.048, 3}";
},
{
name = top;
position = "{208.306, 764}";
}
);
layerId = "29CFC173-9C98-4BE1-970A-002FF3BCF672";
paths = (
{
closed = 1;
nodes = (
"106.873 700 LINE",
"106.873 0 LINE",
"311.92 0 LINE",
"311.92 700 LINE"
);
},
{
closed = 1;
nodes = (
"106.865 72.864 LINE",
"106.21 38.029 OFFCURVE",
"77.813 9.979 OFFCURVE",
"42.811 9.979 CURVE SMOOTH",
"42.659 9.979 OFFCURVE",
"30.318 10 OFFCURVE",
"30.161 10 CURVE",
"30 0 LINE",
"109.775 0 LINE",
"109.775 72.864 LINE"
);
},
{
closed = 1;
nodes = (
"109.791 700.06 LINE",
"30.016 700.06 LINE",
"30.178 690.06 LINE",
"30.335 690.06 OFFCURVE",
"42.676 690.08 OFFCURVE",
"42.828 690.08 CURVE SMOOTH",
"77.829 690.08 OFFCURVE",
"106.226 662.03 OFFCURVE",
"106.882 627.196 CURVE",
"109.791 627.196 LINE"
);
},
{
closed = 1;
nodes = (
"309.012 0 LINE",
"388.787 0 LINE",
"388.626 10 LINE",
"388.469 10 OFFCURVE",
"376.128 9.979 OFFCURVE",
"375.976 9.979 CURVE SMOOTH",
"340.974 9.979 OFFCURVE",
"312.577 38.029 OFFCURVE",
"311.922 72.864 CURVE",
"309.012 72.864 LINE"
);
},
{
closed = 1;
nodes = (
"311.905 627.196 LINE",
"312.561 662.03 OFFCURVE",
"340.958 690.08 OFFCURVE",
"375.959 690.08 CURVE SMOOTH",
"376.111 690.08 OFFCURVE",
"388.452 690.06 OFFCURVE",
"388.609 690.06 CURVE",
"388.771 700.06 LINE",
"308.996 700.06 LINE",
"308.996 627.196 LINE"
);
}
);
width = 418;
}
);
leftKerningGroup = h;
rightKerningGroup = h;
unicode = 0069;
},
